<?xml version="1.0" encoding="UTF-8" standalone="no"?>
<!DOCTYPE svg PUBLIC "-//W3C//DTD SVG 1.1//EN" "http://www.w3.org/Graphics/SVG/1.1/DTD/svg11.dtd">
<svg width="100%" height="100%" viewBox="0 0 24 24" version="1.1" xmlns="http://www.w3.org/2000/svg" xmlns:xlink="http://www.w3.org/1999/xlink" xml:space="preserve" xmlns:serif="http://www.serif.com/" style="fill-rule:evenodd;clip-rule:evenodd;stroke-linejoin:round;stroke-miterlimit:2;">
    <g transform="matrix(1,0,0,1,-994,-40)">
        <g transform="matrix(0.5,0,0,0.5,1006,52.6458)">
            <g transform="matrix(1,0,0,1,-20,-19.2917)">
                <g id="shape-f1b614c0-8ea6-11ec-9ee1-17f27e687494">
                    <g id="shape-f1b63bd0-8ea6-11ec-9ee1-17f27e687494">
                        <g id="shape-f1b6ff20-8ea6-11ec-9ee1-17f27e687494">
                            <path d="M20,0C18.264,0 16.75,1.687 16.75,3.917C16.75,6.147 18.264,7.833 20,7.833C21.736,7.833 23.25,6.147 23.25,3.917C23.25,1.687 21.736,0 20,0ZM7.855,1.828L6.439,2.536C7.682,4.381 9.123,6.454 10.586,8.281C12.228,10.334 13.915,12.035 15.002,12.579L15.417,12.786L15.417,16.076C17.678,16.377 19.293,16.491 21.073,16.417C21.018,16.376 20.963,16.335 20.91,16.294C20.501,15.97 20.145,15.61 19.869,15.222C19.38,15.173 18.987,14.858 18.753,14.502C18.498,14.114 18.372,13.648 18.372,13.146C18.372,12.645 18.498,12.179 18.753,11.791C19.008,11.404 19.45,11.063 20,11.063C20.55,11.063 20.992,11.404 21.247,11.791C21.503,12.179 21.628,12.645 21.628,13.146C21.628,13.648 21.503,14.114 21.247,14.502C21.242,14.51 21.236,14.517 21.231,14.525C21.391,14.721 21.592,14.921 21.84,15.116C22.363,15.53 23.067,15.905 23.902,16.171C24.123,16.144 24.35,16.116 24.583,16.085L24.583,12.786L24.998,12.579C26.085,12.035 27.772,10.334 29.414,8.281C30.877,6.454 32.318,4.381 33.561,2.536L32.145,1.828C28.255,5.702 24.316,9.333 20,9.333C15.684,9.333 11.744,5.702 7.855,1.828ZM10.279,16.822L11.292,21.886C19.713,22.666 20.287,22.666 28.708,21.886L29.72,16.824C20.547,18.278 19.452,18.255 10.279,16.822ZM13.55,23.6L14.662,32.5L25.338,32.5L26.45,23.6C20.804,24.103 19.196,24.103 13.55,23.6ZM10.083,34L10.083,35.667L29.917,35.667L29.917,34L10.083,34ZM0,37.083L0,38.583L40,38.583L40,37.083L0,37.083Z" style="fill-rule:nonzero;"/>
                        </g>
                    </g>
                </g>
            </g>
        </g>
    </g>
</svg>
