<svg id="screenshot" viewBox="416.1743357524365 435.9282858228139 40 38.58333333333337" width="40" height="38.58333333333337" version="1.1" xmlns="http://www.w3.org/2000/svg" xmlns:xlink="http://www.w3.org/1999/xlink" style="-webkit-print-color-adjust: exact;"><g id="shape-f1b614c0-8ea6-11ec-9ee1-17f27e687494" style="height: 512px; width: 512px;"><g id="shape-f1b63bd0-8ea6-11ec-9ee1-17f27e687494" class=""><g id="shape-f1b6ff20-8ea6-11ec-9ee1-17f27e687494"><path d="M436.1743357524365,435.9282858228139C434.43808575243656,435.9282858228139,432.9243357524365,437.61495248948063,432.9243357524365,439.84495248948065C432.9243357524365,442.07495248948055,434.43808575243656,443.7616191561473,436.1743357524365,443.7616191561473C437.91058575243653,443.7616191561473,439.4243357524365,442.07495248948055,439.4243357524365,439.84495248948065C439.4243357524365,437.61495248948063,437.91058575243653,435.9282858228139,436.1743357524365,435.9282858228139ZZM424.0291690857698,437.7561191561472L422.61333575243657,438.46411915614726C423.85641908576986,440.3097024894805,425.2977524191032,442.3818691561472,426.7600024191032,444.2097024894806C428.4022524191032,446.2625358228139,430.08916908576987,447.9637024894805,431.1764190857698,448.5073691561472L431.59100241910323,448.7147024894806L431.59100241910323,452.004535822814C433.8518357524365,452.3052024894805,435.4673357524365,452.41970248948064,437.24725241910323,452.34536915614717C437.19225241910317,452.30453582281393,437.1375857524365,452.2637024894806,437.0847524191032,452.22203582281395C436.6751690857699,451.89870248948057,436.3197524191032,451.53820248948057,436.0430857524366,451.15070248948064C435.55391908576985,451.1017858228139,435.16166908576986,450.7862024894806,434.9270857524365,450.4298691561472C434.67183575243655,450.0423691561473,434.5462524191032,449.5763691561473,434.5462524191032,449.0747024894806C434.5462524191032,448.57303582281395,434.67183575243655,448.10703582281394,434.9270857524365,447.7193691561472C435.1824190857699,447.33186915614726,435.6240857524365,446.99136915614724,436.1743357524365,446.99136915614724C436.7245857524365,446.99136915614724,437.1662524191032,447.3317858228139,437.4215857524365,447.7193691561472C437.67683575243655,448.10703582281394,437.8024190857699,448.57303582281395,437.8024190857699,449.0747024894806C437.8024190857699,449.5763691561473,437.67683575243655,450.0423691561473,437.4215857524365,450.42995248948057C437.4165857524365,450.4377858228139,437.41075241910323,450.4453691561473,437.40558575243654,450.45303582281394C437.5655857524365,450.64953582281396,437.76683575243646,450.8495358228139,438.0141690857698,451.04470248948064C438.5377524191032,451.4582024894805,439.2410024191032,451.83303582281394,440.0766690857698,452.0997024894806C440.29750241910324,452.07270248948055,440.5238357524365,452.04386915614725,440.75766908576986,452.0130358228139L440.75766908576986,448.7147024894806L441.1722524191032,448.5073691561472C442.2595857524366,447.9636191561473,443.9464190857699,446.2623691561473,445.58875241910323,444.20961915614726C447.0509190857699,442.381785822814,448.49225241910324,440.3096191561473,449.7354190857699,438.4640358228139L448.3195857524365,437.75603582281394C444.4298357524365,441.6301191561472,440.4903357524365,445.2616191561473,436.1743357524365,445.2616191561473C431.85833575243646,445.2616191561473,427.91875241910316,441.6301191561472,424.0291690857698,437.7561191561472ZZM426.4536690857699,452.7502858228139L427.4663357524365,457.81386915614723C435.8877524191032,458.5940358228139,436.4609190857699,458.5940358228139,444.8823357524366,457.81386915614723L445.89458575243657,452.7527024894806C436.72125241910317,454.20670248948056,435.62625241910314,454.1829524894806,426.4536690857699,452.7502858228139ZZM429.72400241910316,459.5282024894806L430.8365024191032,468.42820248948055L441.51233575243657,468.42820248948055L442.6246690857698,459.5282024894806C436.9780024191032,460.0308691561472,435.37075241910316,460.0308691561472,429.72400241910316,459.5282024894806ZZM426.25766908576986,469.9282858228139L426.25766908576986,471.59495248948065L446.09100241910323,471.59495248948065L446.09100241910323,469.9282858228139L426.25766908576986,469.9282858228139ZZM416.1743357524365,473.0116191561473L416.1743357524365,474.5116191561473L456.1743357524365,474.5116191561473L456.1743357524365,473.0116191561473L416.1743357524365,473.0116191561473ZZ" style="fill: rgb(0, 0, 0); fill-opacity: 1;"/></g></g></g></svg>