<svg id="screenshot" viewBox="268.19809438520167 435.23906360059175 39.955456570156 39.9617777777778" width="39.955456570156" height="39.9617777777778" version="1.1" xmlns="http://www.w3.org/2000/svg" xmlns:xlink="http://www.w3.org/1999/xlink" style="-webkit-print-color-adjust: exact;"><g id="shape-05b5d240-8ea6-11ec-9ee1-17f27e687494" style="height: 512px; width: 512px;"><g id="shape-05b5d241-8ea6-11ec-9ee1-17f27e687494" class=""><g id="shape-05b5d242-8ea6-11ec-9ee1-17f27e687494"><path d="M298.55266008676074,435.23906360059175C291.6350654319723,435.23906360059175,288.1758226702797,441.0817302672584,288.1758226702797,441.0817302672584C288.1758226702797,441.0817302672584,284.7165799085868,435.23995248948063,277.7989852537986,435.23995248948063C274.49029928497896,435.23995248948063,268.19809438520167,438.237285822814,268.19809438520167,446.3626191561474C268.19809438520167,460.69506360059177,288.1758226702797,475.20084137836955,288.1758226702797,475.20084137836955C288.1758226702797,475.20084137836955,308.1535509553577,460.69506360059177,308.1535509553577,446.3626191561474C308.1535509553577,438.2363969339251,301.86134605558016,435.23995248948063,298.55266008676074,435.23906360059175ZZM285.5912346970057,445.4630636005917L290.99862890635984,445.4630636005917L290.99862890635984,452.52217471170286L298.0576934943332,452.52217471170286L298.0576934943332,457.91773026725843L290.99862890635984,457.91773026725843L290.99862890635984,465.01853026725837L285.5912346970057,465.01853026725837L285.5912346970057,457.91773026725843L278.4585843629301,457.91773026725843L278.4585843629301,452.52217471170286L285.5912346970057,452.52217471170286Z" style="fill: rgb(0, 0, 0); fill-opacity: 1;"/></g></g></g></svg>