<?xml version="1.0" encoding="UTF-8" standalone="no"?>
<!DOCTYPE svg PUBLIC "-//W3C//DTD SVG 1.1//EN" "http://www.w3.org/Graphics/SVG/1.1/DTD/svg11.dtd">
<svg width="100%" height="100%" viewBox="0 0 24 24" version="1.1" xmlns="http://www.w3.org/2000/svg" xmlns:xlink="http://www.w3.org/1999/xlink" xml:space="preserve" xmlns:serif="http://www.serif.com/" style="fill-rule:evenodd;clip-rule:evenodd;stroke-linejoin:round;stroke-miterlimit:2;">
    <g transform="matrix(1,0,0,1,-962,-40)">
        <g transform="matrix(0.500478,0,0,0.500478,973.998,52)">
            <g transform="matrix(1,0,0,1,-19.9777,-19.9809)">
                <g id="shape-05b5d240-8ea6-11ec-9ee1-17f27e687494">
                    <g id="shape-05b5d241-8ea6-11ec-9ee1-17f27e687494">
                        <g id="shape-05b5d242-8ea6-11ec-9ee1-17f27e687494">
                            <path d="M30.355,0C23.437,0 19.978,5.843 19.978,5.843C19.978,5.843 16.518,0.001 9.601,0.001C6.292,0.001 0,2.998 0,11.124C0,25.456 19.978,39.962 19.978,39.962C19.978,39.962 39.955,25.456 39.955,11.124C39.955,2.997 33.663,0.001 30.355,0ZM17.393,10.224L22.801,10.224L22.801,17.283L29.86,17.283L29.86,22.679L22.801,22.679L22.801,29.779L17.393,29.779L17.393,22.679L10.26,22.679L10.26,17.283L17.393,17.283L17.393,10.224Z" style="fill-rule:nonzero;"/>
                        </g>
                    </g>
                </g>
            </g>
        </g>
    </g>
</svg>
