<svg id="screenshot" viewBox="268.1978115891735 371.6461149572582 39.95602216221232 40.041376018676374" width="39.95602216221232" height="40.041376018676374" version="1.1" xmlns="http://www.w3.org/2000/svg" xmlns:xlink="http://www.w3.org/1999/xlink" style="-webkit-print-color-adjust: exact;"><g id="shape-05b7ce10-8ea6-11ec-9ee1-17f27e687494" style="height: 512px; width: 512px;"><g id="shape-05b7ce11-8ea6-11ec-9ee1-17f27e687494" class=""><g id="shape-05b81c30-8ea6-11ec-9ee1-17f27e687494"><path d="M275.5006802844533,371.64656163163704C275.3628762226464,371.6495521045862,275.22629384112645,371.67187016071637,275.0953591835356,371.71279256845617C274.5793041376643,371.8747097797851,274.1627903761961,372.3269973614846,273.9393958807833,373.08107143555856C273.71600138537053,373.83514550963264,273.73251514683864,374.8475202373015,274.0924234037194,375.8736640281512C274.4523316606002,376.8998078190008,275.0790289083062,377.72098428958907,275.73462523858154,378.19924137019905C276.39031331197623,378.67749845080914,277.0098545963798,378.80455727433855,277.5260013853705,378.6426400630096C278.04205643124226,378.4807228516805,278.45838670647174,378.02860956192023,278.68168945876516,377.2744483418767C278.90508395417794,376.5203742678026,278.8886619358292,375.50791239416424,278.5286619358295,374.48176860331455C278.16875367894875,373.4555376664954,277.5421481743616,372.63462263381564,276.88646010096693,372.15636555320566C276.39471698170075,371.7976727427482,275.923340834912,371.63645269917515,275.5006802844533,371.64656163163704ZZM292.37526744041645,372.72481871224704C292.0577445046366,372.7385006294584,291.7784784495908,372.87723701290065,291.6183867064716,373.1905267732492L290.36746927527895,375.3469537884997L287.91490046793945,378.1625529170401C287.91490046793945,378.1625529170401,282.976184871609,377.3322261196545,281.30581789913197,377.56447012836907C280.9591154938968,377.6121667633655,280.6129781802639,377.6634988693695,280.2674692752786,377.71845705647377C279.93590964225143,378.82137644645184,279.18407477986614,379.77440476889194,278.04801973399447,380.1308317841425C276.99178120188446,380.4622479061468,275.87609312848974,380.1920082547307,274.95068028445314,379.59244398457815C274.5318729450038,379.89841348348887,274.1445334954625,380.2530975793494,273.7986619358295,380.66695378849977C272.0854509266552,381.9445137013538,271.3780197339944,382.82355509568936,269.9362766147284,383.7100910434017C270.21912065142544,382.41475335276994,270.9163683578478,381.1238601065826,271.6817812018845,380.0605049867569C271.807469275279,379.8859516098505,272.7363683578475,379.14067927869587,272.86416652298533,378.97937208915334C273.55040505509544,377.6978034617024,272.08765276151746,375.3875638102862,270.7104050550953,377.59723701290056C270.57967111014125,377.769698886539,270.036460100967,379.2422914791315,269.9015059725267,379.43566838544973C268.5644417523432,381.95131108697467,267.7293958807833,383.602727208979,268.4818729450036,386.08708450745405C268.7347169817009,386.9217686033146,271.3176527615175,385.6596335270618,273.54884542206776,384.15601696932765C275.977194045921,387.410047470417,278.9950839541781,388.39165967085273,280.7390289083065,389.6530104333799C278.60453349546253,396.9195899540771,281.6809555138108,402.486387339698,283.4249004679392,407.7550583636631L280.7506802844533,410.8998078190009C279.9371023028017,411.8259080368658,285.2195793670222,412.0425529170401,285.5591206514256,410.96516729612506L286.26646010096704,408.0161476882819C283.62141422940715,400.12874028087447,285.978203220233,394.2744483418767,287.88297386243505,389.9140126120292C292.9479279908752,384.768653134905,298.45453349546244,382.74155073839086,303.3783867064718,378.690396054295L307.53453349546237,377.85074463817296C308.5297628532604,376.1151455096327,308.4736160642698,375.2583263375194,306.2635243211504,375.1756248124649L302.14205643124217,376.7089581457982C296.95068028445314,379.4808099976501,288.7466435872053,381.35802132662616,285.0323316606001,385.24839169699646C284.95003808261856,384.02442655538437,283.4360013853708,381.126387339698,283.114716981701,380.1558426773887C284.89205643124217,380.38006925690934,287.304441752343,380.52386010658256,288.67820322023283,379.9221171871926C290.14655184408605,379.27897993229055,291.7635243211504,376.3669102155151,291.7635243211504,376.3669102155151L293.56746927527877,375.0988492133364C295.13306560555395,374.22233505211636,293.5096711101411,372.67636555320564,292.37526744041645,372.72481871224704ZZ" style="fill: rgb(0, 0, 0); fill-opacity: 1;"/></g></g></g></svg>