<?xml version="1.0" encoding="UTF-8" standalone="no"?>
<!DOCTYPE svg PUBLIC "-//W3C//DTD SVG 1.1//EN" "http://www.w3.org/Graphics/SVG/1.1/DTD/svg11.dtd">
<svg width="100%" height="100%" viewBox="0 0 24 24" version="1.1" xmlns="http://www.w3.org/2000/svg" xmlns:xlink="http://www.w3.org/1999/xlink" xml:space="preserve" xmlns:serif="http://www.serif.com/" style="fill-rule:evenodd;clip-rule:evenodd;stroke-linejoin:round;stroke-miterlimit:2;">
    <g transform="matrix(1,0,0,1,-930,-40)">
        <g transform="matrix(0.499483,0,0,0.499483,941.979,52)">
            <g transform="matrix(1,0,0,1,-19.978,-20.0207)">
                <clipPath id="_clip1">
                    <rect x="0" y="0" width="39.956" height="40.041"/>
                </clipPath>
                <g clip-path="url(#_clip1)">
                    <g id="shape-05b7ce10-8ea6-11ec-9ee1-17f27e687494">
                        <g id="shape-05b7ce11-8ea6-11ec-9ee1-17f27e687494">
                            <g id="shape-05b81c30-8ea6-11ec-9ee1-17f27e687494">
                                <path d="M7.303,0C7.165,0.003 7.028,0.026 6.898,0.067C6.381,0.229 5.965,0.681 5.742,1.435C5.518,2.189 5.535,3.201 5.895,4.228C6.255,5.254 6.881,6.075 7.537,6.553C8.193,7.031 8.812,7.158 9.328,6.997C9.844,6.835 10.261,6.382 10.484,5.628C10.707,4.874 10.691,3.862 10.331,2.836C9.971,1.809 9.344,0.989 8.689,0.51C8.197,0.152 7.726,-0.01 7.303,0ZM24.177,1.079C23.86,1.092 23.581,1.231 23.421,1.544L22.17,3.701L19.717,6.516C19.717,6.516 14.778,5.686 13.108,5.918C12.761,5.966 12.415,6.017 12.07,6.072C11.738,7.175 10.986,8.128 9.85,8.485C8.794,8.816 7.678,8.546 6.753,7.946C6.334,8.252 5.947,8.607 5.601,9.021C3.888,10.298 3.18,11.177 1.738,12.064C2.021,10.769 2.719,9.478 3.484,8.414C3.61,8.24 4.539,7.495 4.666,7.333C5.353,6.052 3.89,3.741 2.513,5.951C2.382,6.124 1.839,7.596 1.704,7.79C0.367,10.305 -0.468,11.957 0.284,14.441C0.537,15.276 3.12,14.014 5.351,12.51C7.779,15.764 10.797,16.746 12.541,18.007C10.407,25.273 13.483,30.84 15.227,36.109L12.553,39.254C11.739,40.18 17.022,40.396 17.361,39.319L18.069,36.37C15.424,28.483 17.78,22.628 19.685,18.268C24.75,13.123 30.257,11.095 35.181,7.044L39.337,6.205C40.332,4.469 40.276,3.612 38.066,3.53L33.944,5.063C28.753,7.835 20.549,9.712 16.835,13.602C16.752,12.378 15.238,9.48 14.917,8.51C16.694,8.734 19.107,8.878 20.48,8.276C21.949,7.633 23.566,4.721 23.566,4.721L25.37,3.453C26.935,2.576 25.312,1.03 24.177,1.079Z" style="fill-rule:nonzero;"/>
                            </g>
                        </g>
                    </g>
                </g>
            </g>
        </g>
    </g>
</svg>
