<svg id="screenshot" viewBox="416.16945074102887 372.0421689930091 40.00977002281536 39.96519613844589" width="40.00977002281536" height="39.96519613844589" version="1.1" xmlns="http://www.w3.org/2000/svg" xmlns:xlink="http://www.w3.org/1999/xlink" style="-webkit-print-color-adjust: exact;"><g id="shape-05af69a0-8ea6-11ec-9ee1-17f27e687494" style="height: 512px; width: 512px;"><g id="shape-05af90b0-8ea6-11ec-9ee1-17f27e687494" class=""><g id="shape-05b0f040-8ea6-11ec-9ee1-17f27e687494"><path d="M434.7945730004602,372.0423050719136C434.6000466846707,372.04305624562255,434.40636247414443,372.04530976674926,434.212930895197,372.0511313629935C434.060930895197,372.05582619867425,433.90893089519705,372.06108441463664,433.7576887899338,372.0687839451531C433.0154572109865,372.2159200953878,432.6727203688812,372.5782675132282,432.48661510572333,372.99300929726576C432.2815624741444,373.4502862925709,432.2895624741444,374.06559145689016,432.51819405309175,374.61272760712484C432.7469940530917,375.16014544750044,433.1666151057234,375.6076571845897,433.75246773730225,375.7747933348245C434.33840457940755,375.9419294850592,435.14497300046014,375.8555445085334,436.20509931624963,375.09995765407325L437.0525098425654,376.5788308935099C435.72046773730233,377.5281266681578,434.43154142151275,377.77854920336904,433.3629940530917,377.4736665742611C432.294530895197,377.168783945153,431.50168878993384,376.33535671510606,431.09200457940756,375.35507502496523C430.705983526776,374.43150694984786,430.6350782636181,373.3479388747305,431.00526773730235,372.3856853536038C427.3912045794076,373.037328546092,424.1187835267759,374.582680658768,421.60518352677593,376.7577041329465C420.7790782636181,377.7612722080638,420.6982361583549,378.92765718458975,421.0603414215128,379.72427690289953C421.4670782636181,380.6187369967962,422.42539405309174,381.27169474327513,424.34202563203917,380.595638405247L424.81832036888125,382.2682205648714C422.411583526776,383.1170468559511,420.4278361583549,382.2130092972658,419.65789931624965,380.5193942737916C419.4701098425654,380.10653042402635,419.3554151057233,379.6596759639324,419.3103624741444,379.1989247902235C418.90497300046013,379.73526281839247,418.53899405309176,380.29357267754744,418.21562563203906,380.8744177479699L418.22623615835494,380.8800515507869C417.5008466846707,382.72192948505915,417.4843414215128,383.9977041329465,417.77352036888124,384.8267182174535C418.0628677373023,385.65582619867416,418.6690993162497,386.1825867620545,419.6025730004602,386.4729154005521C421.4693519478286,387.05319709069295,424.4922572109865,386.35300929726577,426.62093089519703,384.58033324092764C427.5320887899338,383.82164779491836,428.3958361583549,381.98155389820465,428.4710361583549,380.55451164468366C428.50850984256545,379.8408966212095,428.372930895197,379.2771407526649,428.1051414215128,378.91714075266475C427.83735194782855,378.55714075266485,427.40855194782864,378.2877510813033,426.5208887899339,378.2979858230873L426.5051414215128,376.54343183247704C427.7250993162496,376.52934732543474,428.7156677373023,376.98981680900283,429.3156677373023,377.7963895789559C429.915583526776,378.60296234890893,430.0954572109865,379.6416477949183,430.041983526776,380.65723464937844C429.93503615835493,382.68850225501217,428.98135194782856,384.8048402831813,427.56299405309176,385.98587314703093C425.0471203688812,388.0810844146366,421.72417300046015,388.9535726775474,419.18152036888125,388.1631501423361C418.00358352677597,387.7969529592375,416.96088878993385,387.0001454475005,416.42362563203915,385.7659670437446C415.6197519478286,390.03319709069297,416.7876677373023,393.99695295923755,419.0104045794076,396.7400515507869C419.300930895197,397.0987369967962,419.6101519478286,397.43770413294646,419.9341940530918,397.75225812355677C419.70227826361804,397.01169474327514,419.5960045794076,396.24052103435497,419.62093089519703,395.4900046024301C419.6655624741444,394.1449341798949,420.1330993162496,392.8284083582986,421.0710361583549,391.91911258365064C421.84021510572336,391.1730092972657,422.9027835267759,390.74258676205443,424.17360457940754,390.745403663463C424.2583203688812,390.745403663463,424.34488878993386,390.74709380430807,424.43145721098654,390.75103746627985C424.6293519478286,390.7604271376414,424.8325519478286,390.7795820672188,425.0394572109865,390.8098168090029L424.833983526776,392.54991070571646C423.5213098425654,392.35761023623286,422.66935194782855,392.69282150383845,422.102530895197,393.2423989686273C421.53579405309176,393.7920703301296,421.22312036888127,394.61460554139717,421.19196247414436,395.5546055413972C421.12964668467066,397.43479333482446,422.20838352677595,399.6302862925709,424.53427826361803,400.26709380430805L424.531583526776,400.28474638646765C426.8214361583549,400.7720703301296,429.37672036888125,400.31967596393235,431.9421098425654,398.5739482644019C431.94362563203913,398.57282150383855,431.945730895197,398.5723520202704,431.94733089519707,398.57113136299347C432.4812256320391,398.15329098740665,432.7688045794075,397.7440891094724,432.910530895197,397.3915069498479C433.07768878993386,396.97535671510616,433.07415194782857,396.6129154005522,432.95516247414434,396.22361962590423C432.71735194782855,395.44521587003567,431.8654782636181,394.64502807660847,431.08417300046017,394.42202338177276C429.82084668467064,394.0614600014911,429.0183203688812,394.5568590625239,428.64206773730234,395.1469060108808C428.2658151057234,395.73657737238307,428.2429098425655,396.3159200953878,428.8236256320391,396.8192064803644L427.85773089519705,398.2041830061859C426.6630361583549,397.1682205648714,426.5868256320391,395.3415538982048,427.3604677373023,394.1285961517259C427.94084668467076,393.21892479022347,428.9592045794076,392.595638405247,430.18690984256546,392.55582619867425C430.2380256320391,392.55413605782917,430.2903203688812,392.5524459169841,430.3421940530918,392.5530092972657C430.70480457940755,392.55582619867425,431.0824045794076,392.61141305313424,431.47373089519704,392.72296234890894C432.7794151057234,393.09573230196054,433.9865730004602,394.1574224428057,434.444678263618,395.65723464937844C434.5639203688812,396.04737549444883,434.62067826361806,396.4731970906929,434.60265721098654,396.90737549444884C436.0098151057233,396.1056853536038,437.4937730004601,395.3937604709746,439.00535194782856,394.8591125836507C441.5448045794076,393.5652158700357,442.64577300046017,391.29685906252394,442.6028256320392,389.3868121141671C442.55945721098647,387.46258676205446,441.49234142151283,385.8431501423362,439.03432036888125,385.57216422684326L439.1896045794076,383.82624873388545C442.2772677373023,384.16671821745354,444.11272036888124,386.6288778418667,444.1738572109865,389.34268065876813C444.2093940530917,390.9239013160451,443.6893098425654,392.56925342872114,442.6422361583549,393.9699107057164C443.99566773730226,393.8008966212094,445.3406782636181,393.82953511886205,446.6447624741444,394.1226806587681C446.379330895197,393.51498112825163,446.25065721098645,392.8571407526648,446.26859405309176,392.20361962590425C446.3256045794076,390.1345116446836,447.90396247414435,388.20427690289955,450.384383526776,388.17488723153804C450.54968878993384,388.17282150383846,450.7190361583549,388.1798637573596,450.89217300046016,388.1953567151062L450.7658572109865,389.9441830061859C448.6667414215128,389.75657737238316,447.87743615835495,390.98512197332207,447.8422361583549,392.2593003770779C447.80754142151284,393.5193942737916,448.5618151057233,394.92991070571645,450.7239203688812,395.1171407526648C453.10707826361806,395.1406149310686,454.81554142151276,393.6994881705052,455.6527624741444,391.5578919263737C456.77360457940756,388.6906618794254,456.2419835267759,384.39197643341595,452.718530895197,380.4604271376413C452.65183615835485,380.3859670437446,452.5856466846707,380.31084967285267,452.51853089519705,380.2374224428057C452.4811414215128,380.59347878083383,452.39861510572337,380.9362956822423,452.2792045794075,381.25563840524694C451.66867826361806,382.8885022550122,450.2385308951971,383.9906618794254,448.7528887899339,384.298549203369C446.7036256320391,384.7231501423362,445.02320457940755,383.79648347566956,444.2476256320391,382.38249286534085C443.47204668467066,380.9686900484395,443.6756677373023,378.9693473254348,445.07120457940755,377.9167651658104L445.9528887899339,379.3721642268432C445.20232036888126,379.9381736165145,445.1714151057233,380.70455859304036,445.5896887899339,381.4669999075944C446.0079624741444,382.2296290155756,446.9513730004602,382.8900984991436,448.465983526776,382.5762956822423C449.4180677373023,382.37892479022355,450.4782782636181,381.5124459169841,450.8264045794076,380.58099051792306C451.0007203688813,380.1152628183926,451.0344045794076,379.65498112825173,450.8607624741444,379.12840835829854C450.7197098425654,378.70070882778225,450.42396247414445,378.2116008465615,449.87381510572334,377.6964834756694L449.85806773730224,377.6819294850592C447.5577730004602,375.7488778418667,445.11381510572335,374.35864310008265,442.6370151057233,373.4418355883455C442.63853089519705,373.4448402831812,442.6408045794076,373.4474693911625,442.6423203688812,373.45056798271173C443.20518352677595,374.59798582308736,443.2469519478286,375.89958206721883,442.9002572109865,377.05094356956624C442.20695194782866,379.35376047097463,440.0312045794076,381.1681266681577,437.3396677373023,381.067844978017C436.75457300046014,381.0462487338855,436.1977730004602,381.3608027244958,435.7240045794075,381.9746055413972C435.2501519478286,382.5884083582986,434.9042151057233,383.487563287876,434.8239624741444,384.44530976674935C434.66354142151283,386.3608027244958,435.4069519478286,388.47216422684323,438.3055624741444,389.5157323019606L437.82084668467064,391.1854036634629C434.3612256320391,389.9399576540733,433.0351624741444,386.908783945153,433.25495194782866,384.28399521275867C433.3650151057234,382.97178863998874,433.8196677373023,381.75235202027045,434.531330895197,380.83047408599816C435.24307826361803,379.9085961517259,436.2555414215128,379.2715069498479,437.3919624741444,379.31347878083386C439.4163835267759,379.388783945153,440.9560045794076,377.99103746627986,441.4077098425654,376.4906618794254C441.63356247414436,375.74061493106854,441.6043414215128,374.9942299545427,441.26034142151286,374.2930092972657C440.92619405309176,373.61207033012954,440.264130895197,372.93873699679625,439.07878352677596,372.4473754944488C437.6376045794076,372.168783945153,436.2021519478286,372.037328546092,434.7945730004602,372.0423050719136ZZM443.3181098425655,395.69845530665543C439.7884256320391,396.0186431000826,435.96097300046017,397.8956384052469,432.76821510572336,400.07047408599817C428.0541098425655,403.2815538982047,423.0932677373023,402.58061493106857,419.57343615835487,399.66859615172586C420.9581940530918,405.19385436768823,425.86497300046017,406.3153567151061,430.9839624741444,404.9178919263737C431.4962151057233,404.70333793576344,431.99954142151284,404.30399521275865,432.4287624741444,403.78831446158495C433.0230361583549,403.07404216111547,433.4536045794075,402.1479388747306,433.58918352677597,401.38221117520004L435.13394142151276,401.72258676205445C434.9280466846707,402.8853097667493,434.369478263618,404.0386431000826,433.5839624741444,404.9826806587681C432.8302782636181,405.88831446158497,431.84838352677593,406.61178863998873,430.7128887899339,406.8018355883456C430.1431203688812,408.216859062524,429.6742361583549,409.5886900484395,429.4839203688812,410.54887784186667C429.1849730004602,412.05685906252404,430.6802151057234,412.6357323019606,431.3496887899339,411.1150750249652C432.95154142151284,407.4772346493784,435.2124256320392,404.23901868693713,438.03650984256547,401.4468121141672C440.23137300046017,399.8362017855287,442.11280457940757,397.8502862925709,443.3181098425655,395.69845530665543ZZ" style="fill: rgb(0, 0, 0); fill-opacity: 1;"/></g></g></g></svg>