<?xml version="1.0" encoding="UTF-8" standalone="no"?>
<!DOCTYPE svg PUBLIC "-//W3C//DTD SVG 1.1//EN" "http://www.w3.org/Graphics/SVG/1.1/DTD/svg11.dtd">
<svg width="100%" height="100%" viewBox="0 0 24 24" version="1.1" xmlns="http://www.w3.org/2000/svg" xmlns:xlink="http://www.w3.org/1999/xlink" xml:space="preserve" xmlns:serif="http://www.serif.com/" style="fill-rule:evenodd;clip-rule:evenodd;stroke-linejoin:round;stroke-miterlimit:2;">
    <g transform="matrix(1,0,0,1,-898,-40)">
        <g transform="matrix(0.499878,0,0,0.499878,910,51.9866)">
            <g transform="matrix(1,0,0,1,-20.0049,-19.9826)">
                <clipPath id="_clip1">
                    <rect x="0" y="0" width="40.01" height="39.965"/>
                </clipPath>
                <g clip-path="url(#_clip1)">
                    <g id="shape-05af69a0-8ea6-11ec-9ee1-17f27e687494">
                        <g id="shape-05af90b0-8ea6-11ec-9ee1-17f27e687494">
                            <g id="shape-05b0f040-8ea6-11ec-9ee1-17f27e687494">
                                <path d="M18.625,0C18.431,0.001 18.237,0.003 18.043,0.009C17.891,0.014 17.739,0.019 17.588,0.027C16.846,0.174 16.503,0.536 16.317,0.951C16.112,1.408 16.12,2.023 16.349,2.571C16.578,3.118 16.997,3.565 17.583,3.733C18.169,3.9 18.976,3.813 20.036,3.058L20.883,4.537C19.551,5.486 18.262,5.736 17.194,5.431C16.125,5.127 15.332,4.293 14.923,3.313C14.537,2.389 14.466,1.306 14.836,0.344C11.222,0.995 7.949,2.541 5.436,4.716C4.61,5.719 4.529,6.885 4.891,7.682C5.298,8.577 6.256,9.23 8.173,8.553L8.649,10.226C6.242,11.075 4.258,10.171 3.488,8.477C3.301,8.064 3.186,7.618 3.141,7.157C2.736,7.693 2.37,8.251 2.046,8.832L2.057,8.838C1.331,10.68 1.315,11.956 1.604,12.785C1.893,13.614 2.5,14.14 3.433,14.431C5.3,15.011 8.323,14.311 10.451,12.538C11.363,11.779 12.226,9.939 12.302,8.512C12.339,7.799 12.203,7.235 11.936,6.875C11.668,6.515 11.239,6.246 10.351,6.256L10.336,4.501C11.556,4.487 12.546,4.948 13.146,5.754C13.746,6.561 13.926,7.599 13.873,8.615C13.766,10.646 12.812,12.763 11.394,13.944C8.878,16.039 5.555,16.911 3.012,16.121C1.834,15.755 0.791,14.958 0.254,13.724C-0.55,17.991 0.618,21.955 2.841,24.698C3.131,25.057 3.441,25.396 3.765,25.71C3.533,24.97 3.427,24.198 3.451,23.448C3.496,22.103 3.964,20.786 4.902,19.877C5.671,19.131 6.733,18.7 8.004,18.703C8.089,18.703 8.175,18.705 8.262,18.709C8.46,18.718 8.663,18.737 8.87,18.768L8.665,20.508C7.352,20.315 6.5,20.651 5.933,21.2C5.366,21.75 5.054,22.572 5.023,23.512C4.96,25.393 6.039,27.588 8.365,28.225L8.362,28.243C10.652,28.73 13.207,28.278 15.773,26.532C15.774,26.531 15.776,26.53 15.778,26.529C16.312,26.111 16.599,25.702 16.741,25.349C16.908,24.933 16.905,24.571 16.786,24.181C16.548,23.403 15.696,22.603 14.915,22.38C13.651,22.019 12.849,22.515 12.473,23.105C12.096,23.694 12.073,24.274 12.654,24.777L11.688,26.162C10.494,25.126 10.417,23.299 11.191,22.086C11.771,21.177 12.79,20.553 14.017,20.514C14.069,20.512 14.121,20.51 14.173,20.511C14.535,20.514 14.913,20.569 15.304,20.681C16.61,21.054 17.817,22.115 18.275,23.615C18.394,24.005 18.451,24.431 18.433,24.865C19.84,24.064 21.324,23.352 22.836,22.817C25.375,21.523 26.476,19.255 26.433,17.345C26.39,15.42 25.323,13.801 22.865,13.53L23.02,11.784C26.108,12.125 27.943,14.587 28.004,17.301C28.04,18.882 27.52,20.527 26.473,21.928C27.826,21.759 29.171,21.787 30.475,22.081C30.21,21.473 30.081,20.815 30.099,20.161C30.156,18.092 31.735,16.162 34.215,16.133C34.38,16.131 34.55,16.138 34.723,16.153L34.596,17.902C32.497,17.714 31.708,18.943 31.673,20.217C31.638,21.477 32.392,22.888 34.554,23.075C36.938,23.098 38.646,21.657 39.483,19.516C40.604,16.648 40.073,12.35 36.549,8.418C36.482,8.344 36.416,8.269 36.349,8.195C36.312,8.551 36.229,8.894 36.11,9.213C35.499,10.846 34.069,11.948 32.583,12.256C30.534,12.681 28.854,11.754 28.078,10.34C27.303,8.927 27.506,6.927 28.902,5.875L29.783,7.33C29.033,7.896 29.002,8.662 29.42,9.425C29.839,10.187 30.782,10.848 32.297,10.534C33.249,10.337 34.309,9.47 34.657,8.539C34.831,8.073 34.865,7.613 34.691,7.086C34.55,6.659 34.255,6.169 33.704,5.654L33.689,5.64C31.388,3.707 28.944,2.316 26.468,1.4C26.469,1.403 26.471,1.405 26.473,1.408C27.036,2.556 27.078,3.857 26.731,5.009C26.038,7.312 23.862,9.126 21.17,9.026C20.585,9.004 20.028,9.319 19.555,9.932C19.081,10.546 18.735,11.445 18.655,12.403C18.494,14.319 19.238,16.43 22.136,17.474L21.651,19.143C18.192,17.898 16.866,14.867 17.086,12.242C17.196,10.93 17.65,9.71 18.362,8.788C19.074,7.866 20.086,7.229 21.223,7.271C23.247,7.347 24.787,5.949 25.238,4.448C25.464,3.698 25.435,2.952 25.091,2.251C24.757,1.57 24.095,0.897 22.909,0.405C21.468,0.127 20.033,-0.005 18.625,0ZM27.149,23.656C23.619,23.976 19.792,25.853 16.599,28.028C11.885,31.239 6.924,30.538 3.404,27.626C4.789,33.152 9.696,34.273 14.815,32.876C15.327,32.661 15.83,32.262 16.259,31.746C16.854,31.032 17.284,30.106 17.42,29.34L18.964,29.68C18.759,30.843 18.2,31.996 17.415,32.941C16.661,33.846 15.679,34.57 14.543,34.76C13.974,36.175 13.505,37.547 13.314,38.507C13.016,40.015 14.511,40.594 15.18,39.073C16.782,35.435 19.043,32.197 21.867,29.405C24.062,27.794 25.943,25.808 27.149,23.656Z" style="fill-rule:nonzero;"/>
                            </g>
                        </g>
                    </g>
                </g>
            </g>
        </g>
    </g>
</svg>
