<?xml version="1.0" encoding="UTF-8" standalone="no"?><!DOCTYPE svg PUBLIC "-//W3C//DTD SVG 1.1//EN" "http://www.w3.org/Graphics/SVG/1.1/DTD/svg11.dtd"><svg width="100%" height="100%" viewBox="0 0 100 100" version="1.1" xmlns="http://www.w3.org/2000/svg" xmlns:xlink="http://www.w3.org/1999/xlink" xml:space="preserve" xmlns:serif="http://www.serif.com/" style="fill-rule:evenodd;clip-rule:evenodd;stroke-linejoin:round;stroke-miterlimit:2;"><g><g id="shape-05b36140-8ea6-11ec-9ee1-17f27e687494"><g id="shape-05b36141-8ea6-11ec-9ee1-17f27e687494"><g id="shape-05b3af60-8ea6-11ec-9ee1-17f27e687494"><path d="M20.996,8.334c17.486,25.053 2.285,23.166 -4.685,25.291c6.956,9.346 2.968,18.128 -7.978,23.628c9.412,3.724 21.916,5.378 7.534,25.027c14.266,-7.952 24.149,-8.622 22.791,9.387c10.36,-10.331 23.85,-15.537 37.297,-6.805c-1.534,-13.054 2.27,-18.771 15.575,-13.14c-14.266,-12.894 -8.371,-20.551 0.082,-28.051c-14.609,-0.57 -16.658,-11.567 -16.12,-24.711c-8.817,9.452 -15.506,8.434 -18.644,-10.06c-6.061,13.574 -14.223,22.237 -35.852,-0.566Zm19.787,19.31c2.886,0.063 4.583,2.155 6.215,4.359l-10.668,18.202c-3.661,0.351 -6.329,-0.808 -7.491,-4.26l10.669,-18.204c0.346,-0.058 0.676,-0.089 0.992,-0.096c0.096,-0.003 0.19,-0.003 0.283,-0.001Zm12.376,1.978c2.886,0.062 4.584,2.154 6.215,4.358l-11.994,21.022c-3.662,0.35 -6.33,-0.81 -7.491,-4.261l11.995,-21.022c0.346,-0.058 0.676,-0.09 0.992,-0.097c0.096,-0.003 0.19,-0.003 0.283,-0Zm10.524,5.66c2.887,0.063 4.583,2.154 6.215,4.358l-11.822,20.759c-3.661,0.35 -6.33,-0.808 -7.49,-4.26l11.821,-20.76c0.346,-0.058 0.676,-0.089 0.993,-0.096c0.095,-0.003 0.19,-0.003 0.283,-0.001Zm8.308,9.755c3.006,0.017 4.794,2.115 6.517,4.324l-9.96,16.995c-3.59,0.229 -6.248,-0.948 -7.491,-4.261l9.96,-16.994c0.339,-0.045 0.662,-0.066 0.974,-0.064Zm-44.581,6.693l18.972,8.392c0.54,3.831 -0.499,6.85 -3.937,8.638l-18.972,-8.393c-0.808,-3.818 1.483,-6.267 3.937,-8.637Z" style="fill-rule:nonzero;"/></g></g></g></g></svg>