<?xml version="1.0" encoding="UTF-8" standalone="no"?>
<!DOCTYPE svg PUBLIC "-//W3C//DTD SVG 1.1//EN" "http://www.w3.org/Graphics/SVG/1.1/DTD/svg11.dtd">
<svg width="100%" height="100%" viewBox="0 0 24 24" version="1.1" xmlns="http://www.w3.org/2000/svg" xmlns:xlink="http://www.w3.org/1999/xlink" xml:space="preserve" xmlns:serif="http://www.serif.com/" style="fill-rule:evenodd;clip-rule:evenodd;stroke-linejoin:round;stroke-miterlimit:2;">
    <g>
        <g id="shape-f1b614c0-8ea6-11ec-9ee1-17f27e687494">
            <g id="shape-f1b63bd0-8ea6-11ec-9ee1-17f27e687494">
                <g id="shape-f1b6ff20-8ea6-11ec-9ee1-17f27e687494">
                    <path d="M12,1.071c-1.042,-0 -1.95,1.012 -1.95,2.35c-0,1.338 0.908,2.35 1.95,2.35c1.042,-0 1.95,-1.012 1.95,-2.35c0,-1.338 -0.908,-2.35 -1.95,-2.35Zm-7.287,1.097l-0.85,0.424c0.746,1.108 1.611,2.351 2.488,3.448c0.986,1.231 1.998,2.252 2.65,2.578l0.249,0.125l0,1.974c1.357,0.18 2.326,0.249 3.394,0.204c-0.033,-0.024 -0.066,-0.049 -0.098,-0.074c-0.245,-0.194 -0.459,-0.41 -0.625,-0.643c-0.293,-0.029 -0.529,-0.218 -0.669,-0.432c-0.153,-0.233 -0.229,-0.512 -0.229,-0.813c0,-0.301 0.076,-0.581 0.229,-0.814c0.153,-0.232 0.418,-0.436 0.748,-0.436c0.33,-0 0.595,0.204 0.748,0.436c0.154,0.233 0.229,0.513 0.229,0.814c-0,0.301 -0.075,0.58 -0.229,0.813c-0.003,0.005 -0.006,0.009 -0.009,0.014c0.096,0.118 0.216,0.238 0.365,0.355c0.314,0.248 0.736,0.473 1.237,0.633c0.133,-0.017 0.269,-0.034 0.409,-0.052l0,-1.979l0.249,-0.125c0.652,-0.326 1.664,-1.347 2.65,-2.578c0.877,-1.097 1.742,-2.34 2.488,-3.448l-0.85,-0.425c-2.334,2.325 -4.697,4.504 -7.287,4.504c-2.59,-0 -4.953,-2.179 -7.287,-4.503Zm1.455,8.996l0.607,3.038c5.053,0.468 5.397,0.468 10.45,0l0.607,-3.037c-5.504,0.873 -6.161,0.859 -11.664,-0.001Zm1.962,4.067l0.667,5.34l6.406,-0l0.667,-5.34c-3.388,0.301 -4.352,0.301 -7.74,-0Zm-2.08,6.24l0,1l11.9,-0l0,-1l-11.9,-0Zm-6.05,1.85l0,0.9l24,-0l0,-0.9l-24,-0Z" style="fill-rule:nonzero;"/>
                </g>
            </g>
        </g>
    </g>
</svg>
