<?xml version="1.0" encoding="UTF-8" standalone="no"?>
<!DOCTYPE svg PUBLIC "-//W3C//DTD SVG 1.1//EN" "http://www.w3.org/Graphics/SVG/1.1/DTD/svg11.dtd">
<svg width="100%" height="100%" viewBox="0 0 24 24" version="1.1" xmlns="http://www.w3.org/2000/svg" xmlns:xlink="http://www.w3.org/1999/xlink" xml:space="preserve" xmlns:serif="http://www.serif.com/" style="fill-rule:evenodd;clip-rule:evenodd;stroke-linejoin:round;stroke-miterlimit:2;">
    <g>
        <g id="shape-05b5d240-8ea6-11ec-9ee1-17f27e687494">
            <g id="shape-05b5d241-8ea6-11ec-9ee1-17f27e687494">
                <g id="shape-05b5d242-8ea6-11ec-9ee1-17f27e687494">
                    <path d="M17.192,2c-3.462,0 -5.194,2.924 -5.194,2.924c0,0 -1.731,-2.924 -5.193,-2.924c-1.656,0 -4.805,1.501 -4.805,5.567c-0,7.173 9.998,14.433 9.998,14.433c0,-0 9.999,-7.26 9.999,-14.433c-0,-4.067 -3.149,-5.567 -4.805,-5.567Zm-6.487,5.117l2.706,-0l0,3.533l3.533,-0l0,2.7l-3.533,0l0,3.554l-2.706,-0l-0,-3.554l-3.57,0l0,-2.7l3.57,-0l-0,-3.533Z" style="fill-rule:nonzero;"/>
                </g>
            </g>
        </g>
    </g>
</svg>
