<?xml version="1.0" encoding="UTF-8" standalone="no"?>
<!DOCTYPE svg PUBLIC "-//W3C//DTD SVG 1.1//EN" "http://www.w3.org/Graphics/SVG/1.1/DTD/svg11.dtd">
<svg width="100%" height="100%" viewBox="0 0 24 24" version="1.1" xmlns="http://www.w3.org/2000/svg" xmlns:xlink="http://www.w3.org/1999/xlink" xml:space="preserve" xmlns:serif="http://www.serif.com/" style="fill-rule:evenodd;clip-rule:evenodd;stroke-linejoin:round;stroke-miterlimit:2;">
    <g>
        <clipPath id="_clip1">
            <rect x="2" y="1.998" width="20" height="19.978"/>
        </clipPath>
        <g clip-path="url(#_clip1)">
            <g id="shape-05af69a0-8ea6-11ec-9ee1-17f27e687494">
                <g id="shape-05af90b0-8ea6-11ec-9ee1-17f27e687494">
                    <g id="shape-05b0f040-8ea6-11ec-9ee1-17f27e687494">
                        <path d="M11.31,1.998c-0.097,0 -0.194,0.001 -0.29,0.004c-0.076,0.003 -0.152,0.005 -0.228,0.009c-0.371,0.074 -0.542,0.255 -0.635,0.462c-0.103,0.229 -0.099,0.536 0.015,0.81c0.115,0.273 0.325,0.497 0.617,0.581c0.293,0.083 0.696,0.04 1.226,-0.338l0.424,0.74c-0.666,0.474 -1.31,0.599 -1.844,0.447c-0.534,-0.153 -0.931,-0.569 -1.136,-1.059c-0.193,-0.462 -0.228,-1.004 -0.043,-1.485c-1.806,0.326 -3.442,1.099 -4.699,2.186c-0.413,0.502 -0.453,1.085 -0.272,1.483c0.203,0.447 0.682,0.773 1.64,0.435l0.238,0.837c-1.203,0.424 -2.194,-0.028 -2.579,-0.875c-0.094,-0.206 -0.151,-0.429 -0.174,-0.66c-0.203,0.268 -0.386,0.547 -0.547,0.838l0.005,0.003c-0.362,0.92 -0.371,1.558 -0.226,1.972c0.144,0.415 0.448,0.678 0.914,0.823c0.933,0.29 2.444,-0.06 3.508,-0.946c0.456,-0.379 0.888,-1.299 0.925,-2.012c0.019,-0.357 -0.049,-0.639 -0.183,-0.819c-0.133,-0.18 -0.348,-0.314 -0.792,-0.309l-0.007,-0.877c0.609,-0.007 1.105,0.223 1.405,0.626c0.299,0.403 0.389,0.923 0.363,1.43c-0.054,1.016 -0.531,2.074 -1.24,2.664c-1.257,1.047 -2.918,1.483 -4.189,1.088c-0.589,-0.183 -1.11,-0.581 -1.379,-1.198c-0.402,2.133 0.182,4.114 1.293,5.486c0.145,0.179 0.3,0.348 0.462,0.506c-0.116,-0.371 -0.169,-0.756 -0.157,-1.131c0.023,-0.673 0.256,-1.331 0.725,-1.785c0.385,-0.373 0.916,-0.588 1.551,-0.587c0.042,0 0.086,0.001 0.129,0.003c0.099,0.005 0.2,0.014 0.304,0.029l-0.103,0.87c-0.656,-0.096 -1.082,0.072 -1.365,0.346c-0.283,0.275 -0.44,0.686 -0.455,1.156c-0.032,0.94 0.508,2.037 1.67,2.356l-0.001,0.009c1.145,0.243 2.422,0.017 3.704,-0.856c0.001,-0 0.002,-0 0.003,-0.001c0.267,-0.209 0.411,-0.413 0.481,-0.59c0.084,-0.208 0.082,-0.389 0.023,-0.583c-0.119,-0.39 -0.545,-0.79 -0.935,-0.901c-0.632,-0.18 -1.033,0.067 -1.221,0.362c-0.188,0.295 -0.2,0.585 0.091,0.836l-0.483,0.693c-0.597,-0.518 -0.636,-1.431 -0.249,-2.038c0.29,-0.454 0.799,-0.766 1.413,-0.786c0.026,-0.001 0.052,-0.002 0.078,-0.001c0.181,0.001 0.37,0.029 0.565,0.085c0.653,0.186 1.256,0.717 1.485,1.466c0.06,0.195 0.088,0.408 0.079,0.625c0.704,-0.4 1.446,-0.756 2.201,-1.024c1.27,-0.646 1.82,-1.78 1.798,-2.735c-0.021,-0.962 -0.555,-1.771 -1.783,-1.907l0.077,-0.873c1.544,0.171 2.461,1.401 2.492,2.758c0.018,0.79 -0.242,1.613 -0.766,2.313c0.677,-0.085 1.349,-0.07 2.001,0.076c-0.133,-0.303 -0.197,-0.632 -0.188,-0.959c0.028,-1.034 0.817,-1.999 2.057,-2.014c0.083,-0.001 0.168,0.003 0.254,0.01l-0.063,0.875c-1.049,-0.094 -1.444,0.52 -1.461,1.157c-0.018,0.63 0.359,1.335 1.44,1.428c1.191,0.012 2.045,-0.708 2.464,-1.779c0.56,-1.433 0.294,-3.582 -1.467,-5.547c-0.033,-0.037 -0.066,-0.075 -0.1,-0.112c-0.019,0.178 -0.06,0.35 -0.12,0.509c-0.305,0.817 -1.02,1.368 -1.762,1.521c-1.025,0.213 -1.865,-0.251 -2.252,-0.957c-0.388,-0.707 -0.286,-1.706 0.411,-2.233l0.441,0.728c-0.375,0.283 -0.391,0.666 -0.181,1.047c0.209,0.381 0.68,0.711 1.437,0.555c0.476,-0.099 1.006,-0.532 1.18,-0.998c0.087,-0.233 0.104,-0.463 0.017,-0.726c-0.07,-0.214 -0.218,-0.458 -0.493,-0.716l-0.008,-0.007c-1.15,-0.966 -2.371,-1.661 -3.609,-2.12c0,0.002 0.001,0.003 0.002,0.005c0.282,0.573 0.302,1.224 0.129,1.8c-0.346,1.151 -1.434,2.058 -2.779,2.008c-0.293,-0.011 -0.571,0.146 -0.808,0.453c-0.237,0.307 -0.41,0.756 -0.45,1.235c-0.08,0.957 0.291,2.013 1.74,2.534l-0.242,0.835c-1.729,-0.623 -2.392,-2.138 -2.282,-3.45c0.055,-0.656 0.282,-1.265 0.638,-1.726c0.355,-0.461 0.862,-0.779 1.43,-0.758c1.012,0.037 1.781,-0.662 2.007,-1.412c0.113,-0.374 0.098,-0.748 -0.074,-1.098c-0.167,-0.34 -0.498,-0.677 -1.09,-0.923c-0.721,-0.139 -1.438,-0.205 -2.142,-0.202Zm4.261,11.825c-1.764,0.16 -3.678,1.098 -5.274,2.186c-2.356,1.605 -4.836,1.254 -6.595,-0.201c0.692,2.762 3.145,3.322 5.703,2.624c0.257,-0.108 0.508,-0.307 0.723,-0.565c0.297,-0.357 0.512,-0.82 0.58,-1.203l0.772,0.17c-0.103,0.582 -0.382,1.158 -0.775,1.63c-0.377,0.453 -0.867,0.814 -1.435,0.909c-0.285,0.708 -0.519,1.393 -0.614,1.873c-0.15,0.754 0.598,1.044 0.932,0.283c0.801,-1.818 1.931,-3.437 3.343,-4.832c1.097,-0.806 2.038,-1.798 2.64,-2.874Z" style="fill-rule:nonzero;"/>
                    </g>
                </g>
            </g>
        </g>
    </g>
</svg>
