<?xml version="1.0" encoding="UTF-8" standalone="no"?><!DOCTYPE svg PUBLIC "-//W3C//DTD SVG 1.1//EN" "http://www.w3.org/Graphics/SVG/1.1/DTD/svg11.dtd"><svg width="100%" height="100%" viewBox="0 0 100 100" version="1.1" xmlns="http://www.w3.org/2000/svg" xmlns:xlink="http://www.w3.org/1999/xlink" xml:space="preserve" xmlns:serif="http://www.serif.com/" style="fill-rule:evenodd;clip-rule:evenodd;stroke-linejoin:round;stroke-miterlimit:2;"><g><g id="shape-f1b614c0-8ea6-11ec-9ee1-17f27e687494"><g id="shape-f1b63bd0-8ea6-11ec-9ee1-17f27e687494"><g id="shape-f1b6ff20-8ea6-11ec-9ee1-17f27e687494"><path d="M50,4.462c-4.341,-0 -8.125,4.216 -8.125,9.791c0,5.575 3.784,9.792 8.125,9.792c4.341,0 8.125,-4.217 8.125,-9.792c0,-5.575 -3.784,-9.791 -8.125,-9.791Zm-30.363,4.569l-3.539,1.77c3.107,4.614 6.711,9.795 10.366,14.364c4.106,5.132 8.323,9.385 11.041,10.745l1.037,0.518l-0,8.224c5.652,0.752 9.691,1.038 14.14,0.853c-0.137,-0.103 -0.274,-0.205 -0.406,-0.309c-1.024,-0.808 -1.912,-1.709 -2.604,-2.678c-1.223,-0.122 -2.204,-0.911 -2.79,-1.802c-0.638,-0.969 -0.952,-2.134 -0.952,-3.388c-0,-1.254 0.314,-2.419 0.952,-3.388c0.638,-0.969 1.742,-1.82 3.118,-1.82c1.376,-0 2.48,0.851 3.118,1.82c0.638,0.969 0.952,2.134 0.952,3.388c0,1.254 -0.314,2.419 -0.952,3.388c-0.012,0.02 -0.027,0.039 -0.04,0.058c0.4,0.491 0.903,0.991 1.522,1.479c1.309,1.034 3.067,1.971 5.156,2.637c0.552,-0.067 1.118,-0.139 1.702,-0.216l0,-8.246l1.037,-0.518c2.718,-1.36 6.935,-5.613 11.041,-10.745c3.655,-4.569 7.259,-9.75 10.367,-14.364l-3.54,-1.77c-9.724,9.685 -19.573,18.764 -30.363,18.764c-10.79,0 -20.639,-9.079 -30.363,-18.764Zm6.061,37.486l2.532,12.659c21.054,1.95 22.486,1.95 43.54,-0l2.531,-12.653c-22.934,3.635 -25.671,3.575 -48.603,-0.006Zm8.176,16.945l2.781,22.25l26.69,-0l2.781,-22.25c-14.117,1.256 -18.135,1.256 -32.252,-0Zm-8.666,26l0,4.166l49.584,0l-0,-4.166l-49.584,-0Zm-25.208,7.708l0,3.75l100,0l0,-3.75l-100,0Z" style="fill-rule:nonzero;"/></g></g></g></g></svg>