<?xml version="1.0" encoding="UTF-8" standalone="no"?>
<!DOCTYPE svg PUBLIC "-//W3C//DTD SVG 1.1//EN" "http://www.w3.org/Graphics/SVG/1.1/DTD/svg11.dtd">
<svg width="100%" height="100%" viewBox="0 0 24 24" version="1.1" xmlns="http://www.w3.org/2000/svg" xmlns:xlink="http://www.w3.org/1999/xlink" xml:space="preserve" xmlns:serif="http://www.serif.com/" style="fill-rule:evenodd;clip-rule:evenodd;stroke-linejoin:round;stroke-miterlimit:2;">
    <g>
        <g id="shape-05aa3980-8ea6-11ec-9ee1-17f27e687494">
            <g id="shape-05aaaeb0-8ea6-11ec-9ee1-17f27e687494">
                <g id="shape-05abc020-8ea6-11ec-9ee1-17f27e687494">
                    <path d="M2.952,2l-0.295,0.726l3.538,1.391l0.292,-0.726l-3.535,-1.391Zm18.098,0l-3.537,1.391l0.292,0.726l3.536,-1.39l-0.291,-0.727Zm-9.05,0.06c-1.282,-0 -2.21,0.611 -2.86,1.489c-0.65,0.878 -0.986,2.029 -0.986,2.985c-0,0.565 0.309,1.207 0.641,1.694c0.331,0.486 0.659,0.808 0.659,0.808l0.066,0.065l0.411,1.212l0.831,0l-1.472,-5.079l2.71,0.887l2.71,-0.887l-1.472,5.079l0.831,0l0.411,-1.212l0.066,-0.065c0,-0 0.328,-0.322 0.659,-0.808c0.332,-0.487 0.641,-1.129 0.641,-1.694c0,-0.956 -0.336,-2.107 -0.986,-2.985c-0.65,-0.878 -1.578,-1.489 -2.86,-1.489Zm5.659,4.083l-0,0.782l4.244,-0l-0,-0.782l-4.244,-0Zm-15.562,0.004l0,0.782l4.244,0l0,-0.782l-4.244,0Zm8.369,0.296l1.127,3.87l0.814,0l1.127,-3.87l-1.534,0.503l-1.534,-0.503Zm7.339,2.506l-0.292,0.73l3.537,1.39l0.291,-0.73l-3.536,-1.39Zm-11.61,0.004l-3.538,1.39l0.295,0.73l3.535,-1.39l-0.292,-0.73Zm4.081,2.142l-0,0.608l3.448,0l0,-0.608l-3.448,-0Zm-0,1.39l-0,0.608l3.448,0l0,-0.608l-3.448,0Zm-2.074,0.113c-1.198,0.022 -2.325,0.217 -2.957,0.482l-3.245,8.923c3.143,-0.613 6.362,-1.13 9.602,-0.039l0,-8.089l-2.122,0l0,-1.229c-0.349,-0.031 -0.707,-0.048 -1.056,-0.048l-0.222,0Zm7.374,0c-0.349,0 -0.707,0.017 -1.056,0.048l-0,1.229l-2.122,0l-0,8.089c3.24,-1.091 6.459,-0.574 9.602,0.039l-3.245,-8.923c-0.632,-0.265 -1.759,-0.46 -2.957,-0.482l-0.222,0Z" style="fill-rule:nonzero;"/>
                </g>
            </g>
        </g>
    </g>
</svg>
