<?xml version="1.0" encoding="UTF-8" standalone="no"?>
<!DOCTYPE svg PUBLIC "-//W3C//DTD SVG 1.1//EN" "http://www.w3.org/Graphics/SVG/1.1/DTD/svg11.dtd">
<svg width="100%" height="100%" viewBox="0 0 24 24" version="1.1" xmlns="http://www.w3.org/2000/svg" xmlns:xlink="http://www.w3.org/1999/xlink" xml:space="preserve" xmlns:serif="http://www.serif.com/" style="fill-rule:evenodd;clip-rule:evenodd;stroke-linejoin:round;stroke-miterlimit:2;">
    <g>
        <g id="shape-05b36140-8ea6-11ec-9ee1-17f27e687494">
            <g id="shape-05b36141-8ea6-11ec-9ee1-17f27e687494">
                <g id="shape-05b3af60-8ea6-11ec-9ee1-17f27e687494">
                    <path d="M5.039,2c4.197,6.013 0.548,5.56 -1.124,6.07c1.669,2.243 0.712,4.351 -1.915,5.671c2.259,0.893 5.26,1.291 1.808,6.006c3.424,-1.908 5.796,-2.069 5.47,2.253c2.486,-2.479 5.724,-3.729 8.951,-1.633c-0.368,-3.133 0.545,-4.505 3.738,-3.154c-3.424,-3.094 -2.009,-4.932 0.02,-6.732c-3.506,-0.137 -3.998,-2.776 -3.869,-5.931c-2.116,2.269 -3.721,2.025 -4.475,-2.414c-1.454,3.258 -3.413,5.337 -8.604,-0.136Zm4.749,4.635c0.693,0.015 1.1,0.517 1.491,1.046l-2.56,4.368c-0.878,0.084 -1.519,-0.194 -1.798,-1.022l2.561,-4.369c0.083,-0.014 0.162,-0.022 0.238,-0.023c0.023,-0.001 0.046,-0.001 0.068,-0Zm2.97,0.474c0.693,0.015 1.1,0.517 1.492,1.046l-2.879,5.045c-0.879,0.085 -1.519,-0.194 -1.798,-1.022l2.879,-5.045c0.083,-0.014 0.162,-0.022 0.238,-0.024c0.023,-0 0.046,-0 0.068,0Zm2.526,1.359c0.693,0.015 1.1,0.517 1.492,1.045l-2.838,4.983c-0.878,0.084 -1.519,-0.194 -1.797,-1.023l2.837,-4.982c0.083,-0.014 0.162,-0.021 0.238,-0.023c0.023,-0.001 0.046,-0.001 0.068,-0Zm1.994,2.341c0.721,0.004 1.15,0.507 1.564,1.038l-2.39,4.078c-0.862,0.055 -1.5,-0.227 -1.798,-1.022l2.39,-4.079c0.081,-0.011 0.159,-0.016 0.234,-0.015Zm-10.7,1.606l4.554,2.014c0.129,0.92 -0.12,1.644 -0.945,2.073l-4.554,-2.014c-0.194,-0.916 0.356,-1.504 0.945,-2.073Z" style="fill-rule:nonzero;"/>
                </g>
            </g>
        </g>
    </g>
</svg>
