<?xml version="1.0" encoding="UTF-8" standalone="no"?><!DOCTYPE svg PUBLIC "-//W3C//DTD SVG 1.1//EN" "http://www.w3.org/Graphics/SVG/1.1/DTD/svg11.dtd"><svg width="100%" height="100%" viewBox="0 0 100 100" version="1.1" xmlns="http://www.w3.org/2000/svg" xmlns:xlink="http://www.w3.org/1999/xlink" xml:space="preserve" xmlns:serif="http://www.serif.com/" style="fill-rule:evenodd;clip-rule:evenodd;stroke-linejoin:round;stroke-miterlimit:2;"><g><clipPath id="_clip1"><rect x="0.018" y="0" width="99.787" height="100"/></clipPath><g clip-path="url(#_clip1)"><g id="shape-05b7ce10-8ea6-11ec-9ee1-17f27e687494"><g id="shape-05b7ce11-8ea6-11ec-9ee1-17f27e687494"><g id="shape-05b81c30-8ea6-11ec-9ee1-17f27e687494"><path d="M18.256,0.001c-0.344,0.008 -0.685,0.063 -1.012,0.166c-1.289,0.404 -2.329,1.533 -2.887,3.417c-0.558,1.883 -0.517,4.411 0.382,6.974c0.899,2.563 2.464,4.613 4.101,5.808c1.638,1.194 3.185,1.512 4.474,1.107c1.289,-0.404 2.329,-1.533 2.886,-3.417c0.558,-1.883 0.517,-4.411 -0.382,-6.974c-0.899,-2.563 -2.464,-4.613 -4.101,-5.808c-1.228,-0.895 -2.405,-1.298 -3.461,-1.273Zm42.143,2.693c-0.793,0.034 -1.49,0.381 -1.89,1.163l-3.124,5.386l-6.125,7.031c-0,0 -12.334,-2.073 -16.506,-1.493c-0.866,0.119 -1.73,0.247 -2.593,0.384c-0.828,2.755 -2.706,5.135 -5.543,6.025c-2.638,0.828 -5.424,0.153 -7.736,-1.345c-1.045,0.764 -2.013,1.65 -2.877,2.684c-4.278,3.19 -6.045,5.386 -9.646,7.6c0.707,-3.235 2.448,-6.459 4.36,-9.115c0.314,-0.436 2.633,-2.297 2.953,-2.7c1.713,-3.2 -1.94,-8.97 -5.379,-3.452c-0.327,0.431 -1.683,4.109 -2.02,4.592c-3.34,6.282 -5.425,10.407 -3.546,16.611c0.632,2.085 7.082,-1.067 12.655,-4.823c6.064,8.127 13.601,10.579 17.956,13.729c-5.33,18.147 2.353,32.05 6.708,45.208l-6.678,7.854c-2.032,2.313 11.16,2.854 12.008,0.163l1.767,-7.365c-6.606,-19.698 -0.72,-34.319 4.037,-45.208c12.649,-12.851 26.401,-17.913 38.698,-28.03l10.38,-2.097c2.485,-4.335 2.345,-6.475 -3.174,-6.681l-10.293,3.829c-12.965,6.922 -33.454,11.611 -42.73,21.327c-0.206,-3.057 -3.987,-10.295 -4.79,-12.719c4.439,0.56 10.464,0.919 13.895,-0.583c3.667,-1.607 7.705,-8.879 7.705,-8.879l4.505,-3.167c3.91,-2.189 -0.144,-6.05 -2.977,-5.929Z" style="fill-rule:nonzero;"/></g></g></g></g></g></svg>