<?xml version="1.0" encoding="UTF-8" standalone="no"?><!DOCTYPE svg PUBLIC "-//W3C//DTD SVG 1.1//EN" "http://www.w3.org/Graphics/SVG/1.1/DTD/svg11.dtd"><svg width="100%" height="100%" viewBox="0 0 100 100" version="1.1" xmlns="http://www.w3.org/2000/svg" xmlns:xlink="http://www.w3.org/1999/xlink" xml:space="preserve" xmlns:serif="http://www.serif.com/" style="fill-rule:evenodd;clip-rule:evenodd;stroke-linejoin:round;stroke-miterlimit:2;"><g><g id="shape-05b36140-8ea6-11ec-9ee1-17f27e687494"><g id="shape-05b36141-8ea6-11ec-9ee1-17f27e687494"><g id="shape-05b3af60-8ea6-11ec-9ee1-17f27e687494"><path d="M15.201,0c20.983,30.065 2.742,27.8 -5.622,30.35c8.347,11.215 3.561,21.753 -9.574,28.354c11.294,4.468 26.299,6.454 9.041,30.032c17.119,-9.542 28.979,-10.347 27.349,11.264c12.433,-12.397 28.62,-18.644 44.757,-8.166c-1.841,-15.665 2.723,-22.525 18.689,-15.767c-17.119,-15.473 -10.045,-24.661 0.099,-33.661c-17.531,-0.685 -19.989,-13.881 -19.344,-29.654c-10.581,11.342 -18.608,10.121 -22.373,-12.072c-7.273,16.289 -17.067,26.685 -43.022,-0.68Zm23.744,23.173c3.464,0.076 5.5,2.585 7.458,5.23l-12.801,21.843c-4.393,0.421 -7.596,-0.97 -8.989,-5.112l12.802,-21.845c0.415,-0.069 0.811,-0.107 1.191,-0.115c0.115,-0.003 0.228,-0.003 0.339,-0.001Zm14.852,2.373c3.463,0.075 5.5,2.586 7.457,5.23l-14.393,25.226c-4.393,0.421 -7.596,-0.972 -8.989,-5.113l14.394,-25.226c0.415,-0.07 0.811,-0.108 1.191,-0.117c0.115,-0.003 0.228,-0.003 0.34,0Zm12.628,6.793c3.464,0.075 5.5,2.585 7.458,5.228l-14.186,24.912c-4.393,0.42 -7.596,-0.97 -8.988,-5.112l14.185,-24.913c0.415,-0.068 0.811,-0.106 1.192,-0.115c0.114,-0.003 0.228,-0.003 0.339,-0Zm9.969,11.705c3.608,0.021 5.754,2.538 7.821,5.189l-11.952,20.394c-4.308,0.275 -7.498,-1.138 -8.989,-5.113l11.952,-20.393c0.406,-0.054 0.795,-0.079 1.168,-0.077Zm-53.497,8.032l22.766,10.071c0.649,4.596 -0.598,8.22 -4.723,10.365l-22.767,-10.071c-0.97,-4.582 1.779,-7.521 4.724,-10.365Z" style="fill-rule:nonzero;"/></g></g></g></g></svg>