<?xml version="1.0" encoding="UTF-8" standalone="no"?>
<!DOCTYPE svg PUBLIC "-//W3C//DTD SVG 1.1//EN" "http://www.w3.org/Graphics/SVG/1.1/DTD/svg11.dtd">
<svg width="100%" height="100%" viewBox="0 0 24 24" version="1.1" xmlns="http://www.w3.org/2000/svg" xmlns:xlink="http://www.w3.org/1999/xlink" xml:space="preserve" xmlns:serif="http://www.serif.com/" style="fill-rule:evenodd;clip-rule:evenodd;stroke-linejoin:round;stroke-miterlimit:2;">
    <g>
        <clipPath id="_clip1">
            <rect x="0.004" y="0" width="23.949" height="24"/>
        </clipPath>
        <g clip-path="url(#_clip1)">
            <g id="shape-05b7ce10-8ea6-11ec-9ee1-17f27e687494">
                <g id="shape-05b7ce11-8ea6-11ec-9ee1-17f27e687494">
                    <g id="shape-05b81c30-8ea6-11ec-9ee1-17f27e687494">
                        <path d="M4.381,0c-0.082,0.002 -0.164,0.015 -0.242,0.04c-0.31,0.097 -0.559,0.368 -0.693,0.82c-0.134,0.452 -0.124,1.059 0.091,1.674c0.216,0.615 0.592,1.107 0.985,1.394c0.393,0.286 0.764,0.363 1.073,0.266c0.31,-0.097 0.559,-0.368 0.693,-0.82c0.134,-0.452 0.124,-1.059 -0.092,-1.674c-0.215,-0.615 -0.591,-1.108 -0.984,-1.394c-0.295,-0.215 -0.577,-0.312 -0.831,-0.306Zm10.115,0.647c-0.191,0.008 -0.358,0.091 -0.454,0.279l-0.75,1.292l-1.47,1.688c0,-0 -2.96,-0.498 -3.961,-0.359c-0.208,0.029 -0.415,0.06 -0.622,0.093c-0.199,0.661 -0.65,1.232 -1.331,1.446c-0.633,0.198 -1.302,0.036 -1.856,-0.323c-0.251,0.183 -0.483,0.396 -0.691,0.644c-1.027,0.766 -1.451,1.293 -2.315,1.824c0.17,-0.776 0.588,-1.55 1.046,-2.188c0.076,-0.104 0.633,-0.551 0.709,-0.648c0.412,-0.768 -0.465,-2.152 -1.291,-0.828c-0.078,0.103 -0.404,0.986 -0.485,1.102c-0.801,1.508 -1.301,2.498 -0.85,3.987c0.151,0.5 1.699,-0.257 3.037,-1.158c1.455,1.951 3.264,2.539 4.309,3.295c-1.279,4.355 0.565,7.692 1.61,10.85l-1.603,1.885c-0.487,0.555 2.679,0.685 2.882,0.039l0.424,-1.768c-1.585,-4.727 -0.173,-8.236 0.969,-10.85c3.036,-3.084 6.337,-4.299 9.288,-6.727l2.491,-0.503c0.596,-1.04 0.563,-1.554 -0.762,-1.603l-2.47,0.919c-3.112,1.661 -8.029,2.786 -10.255,5.118c-0.05,-0.734 -0.957,-2.471 -1.15,-3.052c1.065,0.134 2.511,0.22 3.335,-0.141c0.88,-0.385 1.849,-2.13 1.849,-2.13l1.081,-0.761c0.939,-0.525 -0.034,-1.451 -0.714,-1.422Z" style="fill-rule:nonzero;"/>
                    </g>
                </g>
            </g>
        </g>
    </g>
</svg>
