<svg id="screenshot" viewBox="268.19522051974195 308.1070847054823 39.96120430107533 39.98745762711866" width="39.96120430107533" height="39.98745762711866" version="1.1" xmlns="http://www.w3.org/2000/svg" xmlns:xlink="http://www.w3.org/1999/xlink" style="-webkit-print-color-adjust: exact;"><g id="shape-05b36140-8ea6-11ec-9ee1-17f27e687494" style="height: 512px; width: 512px;"><g id="shape-05b36141-8ea6-11ec-9ee1-17f27e687494" class=""><g id="shape-05b3af60-8ea6-11ec-9ee1-17f27e687494"><path d="M274.2714355735054,308.10716945124506C282.661973207914,320.1292033495501,275.36795170253765,319.22377962073654,272.02343557350537,320.2432711461603C275.36106998210755,324.7278474173467,273.44743557350535,328.94191521395686,268.19522051974195,331.5812372478552C272.711349552,333.3681016546348,278.711349552,334.1619152139569,271.8104463261935,343.59030504446537C278.6558656810323,339.77471182412637,283.3981452509247,339.45301690887214,282.7463603046882,348.09454233260095C287.71797320791404,343.13733894277044,294.19091944447314,340.6392033495501,300.6434785842581,344.82928809531285C299.9073065412473,338.5652202987026,301.73251084232265,335.82216945124503,308.1170269713549,338.5242033495501C301.2714355735054,332.3369152139569,304.10016675630106,328.6629321631094,308.1564248208173,325.0640338580247C301.1463603046882,324.79013555293994,300.1633065412474,319.51344063768573,300.4211990143656,313.2064067393806C296.1904033154409,317.74183046819417,292.98059686382794,317.2535253834484,291.47479041221504,308.3791186037874C288.5667474014624,314.89242368853314,284.65027428318285,319.04945758683823,274.2714355735054,308.10716945124506ZZM283.7662312724301,317.3734406376857C285.15117750898924,317.40361012921113,285.9653710573764,318.407169451245,286.74825277780644,319.4647965698891L281.62962912189255,328.1992033495501C279.8728979390968,328.36742368853317,278.59220976705376,327.8113219936179,278.03504847673116,326.15488131565183L283.1541882616774,317.4197965698891C283.3202097670538,317.392169451245,283.478661379957,317.37716945124504,283.6304893369463,317.37361012921116C283.67642482081726,317.37250843429587,283.72167213264515,317.37242368853316,283.7662312724301,317.3734406376857ZZM289.7048979390968,318.32233894277044C291.0898441756559,318.352169451245,291.90420976705377,319.3562372478552,292.68709148748394,320.4135253834484L286.93156460576347,330.50089826480433C285.17474740146235,330.6691186037874,283.8941452509248,330.11225419700776,283.3371560036129,328.4562372478552L289.0928549283441,318.368949112262C289.2588764337205,318.3412372478552,289.41732804662365,318.3259830105671,289.569156003613,318.32233894277044C289.6150054659786,318.3212372478552,289.6601667563011,318.3212372478552,289.7048979390968,318.32233894277044ZZM294.7547043907098,321.0384406376857C296.1398226702796,321.0686948749738,296.95401621866677,322.07216945124503,297.7370699821075,323.1293728410755L292.06438181006456,333.0909830105671C290.30756460576345,333.25877962073656,289.0269624552259,332.70284741734673,288.4701452509248,331.04666097666876L294.1424033154409,321.0847965698891C294.3084248208172,321.05725419700775,294.4669624552258,321.0422541970077,294.61896245522587,321.0386948749738C294.6647258960861,321.0375931800586,294.7101452509248,321.0375931800586,294.7547043907098,321.0384406376857ZZM298.7411129928603,325.7192033495501C300.1839517025377,325.7275084342959,301.0418441756559,326.7342033495501,301.8683387993119,327.7942033495501L297.0892420251183,335.9490338580247C295.36657535845166,336.058949112262,294.0908764337205,335.4942033495501,293.4947474014624,333.90454233260095L298.27410224017206,325.7499660614145C298.43642482081725,325.728355891923,298.5917796595269,325.7184406376857,298.7411129928603,325.7192033495501ZZM277.3490269713549,328.93081351904164L286.4526828853334,332.95793216310943C286.71203772404306,334.79606775632976,286.21337105737643,336.2450508071772,284.5638226702796,337.1028474173467L275.45982267027955,333.0754745359908C275.07203772404307,331.2434406376857,276.1714785842581,330.06827114616027,277.3490269713549,328.93081351904164ZZ" style="fill: rgb(0, 0, 0); fill-opacity: 1;"/></g></g></g></svg>