<?xml version="1.0" encoding="UTF-8" standalone="no"?>
<!DOCTYPE svg PUBLIC "-//W3C//DTD SVG 1.1//EN" "http://www.w3.org/Graphics/SVG/1.1/DTD/svg11.dtd">
<svg width="100%" height="100%" viewBox="0 0 24 24" version="1.1" xmlns="http://www.w3.org/2000/svg" xmlns:xlink="http://www.w3.org/1999/xlink" xml:space="preserve" xmlns:serif="http://www.serif.com/" style="fill-rule:evenodd;clip-rule:evenodd;stroke-linejoin:round;stroke-miterlimit:2;">
    <g transform="matrix(1,0,0,1,-866,-40)">
        <g transform="matrix(0.500157,0,0,0.500157,877.993,52)">
            <g transform="matrix(1,0,0,1,-19.9806,-19.9937)">
                <g id="shape-05b36140-8ea6-11ec-9ee1-17f27e687494">
                    <g id="shape-05b36141-8ea6-11ec-9ee1-17f27e687494">
                        <g id="shape-05b3af60-8ea6-11ec-9ee1-17f27e687494">
                            <path d="M6.076,0C14.467,12.022 7.173,11.117 3.828,12.136C7.166,16.621 5.252,20.835 0,23.474C4.516,25.261 10.516,26.055 3.615,35.483C10.461,31.668 15.203,31.346 14.551,39.987C19.523,35.03 25.996,32.532 32.448,36.722C31.712,30.458 33.537,27.715 39.922,30.417C33.076,24.23 35.905,20.556 39.961,16.957C32.951,16.683 31.968,11.406 32.226,5.099C27.995,9.635 24.785,9.146 23.28,0.272C20.372,6.785 16.455,10.942 6.076,0ZM15.571,9.266C16.956,9.297 17.77,10.3 18.553,11.358L13.434,20.092C11.678,20.26 10.397,19.704 9.84,18.048L14.959,9.313C15.125,9.285 15.283,9.27 15.435,9.267C15.481,9.265 15.526,9.265 15.571,9.266ZM21.51,10.215C22.895,10.245 23.709,11.249 24.492,12.306L18.736,22.394C16.98,22.562 15.699,22.005 15.142,20.349L20.898,10.262C21.064,10.234 21.222,10.219 21.374,10.215C21.42,10.214 21.465,10.214 21.51,10.215ZM26.559,12.931C27.945,12.962 28.759,13.965 29.542,15.022L23.869,24.984C22.112,25.152 20.832,24.596 20.275,22.94L25.947,12.978C26.113,12.95 26.272,12.935 26.424,12.932C26.47,12.931 26.515,12.931 26.559,12.931ZM30.546,17.612C31.989,17.62 32.847,18.627 33.673,19.687L28.894,27.842C27.171,27.952 25.896,27.387 25.3,25.797L30.079,17.643C30.241,17.621 30.397,17.611 30.546,17.612ZM9.154,20.824L18.257,24.851C18.517,26.689 18.018,28.138 16.369,28.996L7.265,24.968C6.877,23.136 7.976,21.961 9.154,20.824Z" style="fill-rule:nonzero;"/>
                        </g>
                    </g>
                </g>
            </g>
        </g>
    </g>
</svg>
