<svg id="screenshot" viewBox="416.15663663739224 308.08037873643286 40.035398230088504 40.040869565217406" width="40.035398230088504" height="40.040869565217406" version="1.1" xmlns="http://www.w3.org/2000/svg" xmlns:xlink="http://www.w3.org/1999/xlink" style="-webkit-print-color-adjust: exact;"><g id="shape-05aa3980-8ea6-11ec-9ee1-17f27e687494" style="height: 512px; width: 512px;"><g id="shape-05aaaeb0-8ea6-11ec-9ee1-17f27e687494" class=""><g id="shape-05abc020-8ea6-11ec-9ee1-17f27e687494"><path d="M418.0628313276577,308.08037873643286L417.4716808851799,309.53429177991114L424.5548667258877,312.3177700407807L425.138937522348,310.86385699730243L418.0628313276577,308.08037873643286ZZM454.2893800002241,308.08124830165025L447.209733982525,310.86385699730243L447.7938047789853,312.3177700407807L454.8734507966842,309.53516134512853L454.2893800002241,308.08124830165025ZZM436.1743357524365,308.1995091712155C433.60796407102043,308.1995091712155,431.74955699137445,309.42385699730244,430.4486720356224,311.18124830165027C429.1477870798701,312.9395091712155,428.4752207081888,315.24298743208504,428.4752207081888,317.1560309103459C428.4752207081888,318.2864656929546,429.09468973473736,319.5734222146938,429.7584065488968,320.547335258172C430.422123363056,321.5212483016503,431.0769906196931,322.16472656251983,431.0769906196931,322.16472656251983L431.209733982525,322.2951613451285L432.0327428320825,324.72124830165023L433.6964596462417,324.72124830165023L430.74955699137445,314.55342221469374L436.1743357524365,316.32994395382417L441.59911451349853,314.55342221469374L438.6522118586313,324.72124830165023L440.3159286727905,324.72124830165023L441.138937522348,322.2951613451285L441.2716808851799,322.16472656251983C441.2716808851799,322.16472656251983,441.92654814181697,321.5212483016503,442.5902649559762,320.547335258172C443.2539817701356,319.5734222146938,443.8734507966842,318.2864656929546,443.8734507966842,317.1560309103459C443.8734507966842,315.24298743208504,443.20088442500287,312.9395091712155,441.8999994692508,311.18124830165027C440.59911451349853,309.42385699730244,438.74070743385255,308.1995091712155,436.1743357524365,308.1995091712155ZZM447.5017693807549,316.37342221469373L447.5017693807549,317.9386396059981L455.997344601994,317.9386396059981L455.997344601994,316.37342221469373L447.5017693807549,316.37342221469373ZZM416.351326902879,316.38211786686765L416.351326902879,317.947335258172L424.84690212411806,317.947335258172L424.84690212411806,316.38211786686765L416.351326902879,316.38211786686765ZZM433.1035392922595,316.97342221469376L435.36017646040114,324.72124830165023L436.98849504447185,324.72124830165023L439.2451322126135,316.97342221469376L436.1743357524365,317.98211786686767L433.1035392922595,316.97342221469376ZZM447.7938047789853,321.9908135190416L447.209733982525,323.451683084259L454.2893800002241,326.23429177991113L454.8734507966842,324.77342221469377L447.7938047789853,321.9908135190416ZZM424.5548667258877,321.9995091712155L417.4716808851799,324.7821178668677L418.0628313276577,326.24298743208504L425.138937522348,323.46037873643286L424.5548667258877,321.9995091712155ZZM432.7230083188083,326.2864656929546L432.7230083188083,327.5038569973025L439.6256631860647,327.5038569973025L439.6256631860647,326.2864656929546L432.7230083188083,326.2864656929546ZZM432.7230083188083,329.0690743886068L432.7230083188083,330.2864656929546L439.6256631860647,330.2864656929546L439.6256631860647,329.0690743886068L432.7230083188083,329.0690743886068ZZM428.57256584093193,329.2951613451285C426.1743357524365,329.3386396059981,423.91769858429507,329.7299439538242,422.6522118586313,330.26037873643287L416.15663663739224,348.12124830165027C422.44867203562217,346.89516134512854,428.89114991172846,345.8603787364329,435.3778755754454,348.04298743208506L435.3778755754454,331.851683084259L431.13008796482586,331.851683084259L431.13008796482586,329.39081351904156C430.43097292057814,329.32994395382417,429.71415876128594,329.2951613451285,429.0150437170382,329.2951613451285L428.57256584093193,329.2951613451285ZZM443.33362778783476,329.2951613451285C442.63451274358704,329.2951613451285,441.91769858429484,329.32994395382417,441.2185835400471,329.39081351904156L441.2185835400471,331.851683084259L436.9707959294276,331.851683084259L436.9707959294276,348.04298743208506C443.4575215931445,345.86037873643284,449.8999994692508,346.89516134512854,456.19203486748074,348.12124830165027L449.6964596462417,330.26037873643287C448.43097292057814,329.7299439538242,446.1743357524365,329.3386396059981,443.77610566394105,329.2951613451285L443.33362778783476,329.2951613451285ZZ" style="fill: rgb(0, 0, 0); fill-opacity: 1;"/></g></g></g></svg>