<?xml version="1.0" encoding="UTF-8" standalone="no"?>
<!DOCTYPE svg PUBLIC "-//W3C//DTD SVG 1.1//EN" "http://www.w3.org/Graphics/SVG/1.1/DTD/svg11.dtd">
<svg width="100%" height="100%" viewBox="0 0 24 24" version="1.1" xmlns="http://www.w3.org/2000/svg" xmlns:xlink="http://www.w3.org/1999/xlink" xml:space="preserve" xmlns:serif="http://www.serif.com/" style="fill-rule:evenodd;clip-rule:evenodd;stroke-linejoin:round;stroke-miterlimit:2;">
    <g transform="matrix(1,0,0,1,-834,-40)">
        <g transform="matrix(0.499558,0,0,0.499558,846,52.0014)">
            <g transform="matrix(1,0,0,1,-20.0177,-20.0204)">
                <g id="shape-05aa3980-8ea6-11ec-9ee1-17f27e687494">
                    <g id="shape-05aaaeb0-8ea6-11ec-9ee1-17f27e687494">
                        <g id="shape-05abc020-8ea6-11ec-9ee1-17f27e687494">
                            <path d="M1.906,0L1.315,1.454L8.398,4.237L8.982,2.783L1.906,0ZM38.133,0.001L31.053,2.783L31.637,4.237L38.717,1.455L38.133,0.001ZM20.018,0.119C17.451,0.119 15.593,1.343 14.292,3.101C12.991,4.859 12.319,7.163 12.319,9.076C12.319,10.206 12.938,11.493 13.602,12.467C14.265,13.441 14.92,14.084 14.92,14.084L15.053,14.215L15.876,16.641L17.54,16.641L14.593,6.473L20.018,8.25L25.442,6.473L22.496,16.641L24.159,16.641L24.982,14.215L25.115,14.084C25.115,14.084 25.77,13.441 26.434,12.467C27.097,11.493 27.717,10.206 27.717,9.076C27.717,7.163 27.044,4.859 25.743,3.101C24.442,1.343 22.584,0.119 20.018,0.119ZM31.345,8.293L31.345,9.858L39.841,9.858L39.841,8.293L31.345,8.293ZM0.195,8.302L0.195,9.867L8.69,9.867L8.69,8.302L0.195,8.302ZM16.947,8.893L19.204,16.641L20.832,16.641L23.088,8.893L20.018,9.902L16.947,8.893ZM31.637,13.91L31.053,15.371L38.133,18.154L38.717,16.693L31.637,13.91ZM8.398,13.919L1.315,16.702L1.906,18.163L8.982,15.38L8.398,13.919ZM16.566,18.206L16.566,19.423L23.469,19.423L23.469,18.206L16.566,18.206ZM16.566,20.989L16.566,22.206L23.469,22.206L23.469,20.989L16.566,20.989ZM12.416,21.215C10.018,21.258 7.761,21.65 6.496,22.18L0,40.041C6.292,38.815 12.735,37.78 19.221,39.963L19.221,23.771L14.973,23.771L14.973,21.31C14.274,21.25 13.558,21.215 12.858,21.215L12.416,21.215ZM27.177,21.215C26.478,21.215 25.761,21.25 25.062,21.31L25.062,23.771L20.814,23.771L20.814,39.963C27.301,37.78 33.743,38.815 40.035,40.041L33.54,22.18C32.274,21.65 30.018,21.258 27.619,21.215L27.177,21.215Z" style="fill-rule:nonzero;"/>
                        </g>
                    </g>
                </g>
            </g>
        </g>
    </g>
</svg>
