<svg xmlns="http://www.w3.org/2000/svg" xmlns:xlink="http://www.w3.org/1999/xlink" version="1.1"
  viewBox="0 0 512 512">
  <g>
    <g>
      <path
        d="M311.101,56.24c0-3.015-2.455-5.468-5.473-5.468h-99.262c-3.018,0-5.473,2.453-5.473,5.468v42.015h110.208V56.24z" />
      <path
        d="M209.423,213.955c-39.395-2.883-78.747-9.651-117.119-20.148c-0.021,0.838-0.042,1.688-0.063,2.556 c-0.053,2.122-0.103,4.168-0.149,6.074v18.865c38.433,10.666,77.866,17.546,117.331,20.473V213.955z" />
      <rect x="154.185" y="367.402" width="203.623" height="47.554" />
      <path
        d="M22.306,231.484c0.165,9.617,0.353,20.517-0.845,33.032c-1.682,17.629-0.211,29.605,1.492,43.472 c0.796,6.487,1.62,13.194,2.206,21.062c1.615,30.805,2.101,40.074,35.552,41.871c7.218,0.382,14.591,0.551,21.721,0.715 c0.554,0.012,1.107,0.025,1.661,0.038V242.738c-0.083-9.644-0.16-19.313-0.223-28.914c-0.007-1.61,0.086-5.837,0.223-11.483 v-49.514c-7.838,2.267-24.022,9.522-27.406,11.525C21.523,185.966,21.818,203.1,22.306,231.484z" />
      <path
        d="M302.57,268.895c0,2.209-1.791,4-4,4h-85.147c-2.209,0-4-1.791-4-4v-19.098c-39.454-2.889-78.877-9.674-117.331-20.197 v13.117c0.1,11.567,0.209,23.098,0.317,34.417c0.307,32.327,0.625,65.754,0.7,98.653c0.002,0.981-0.372,1.915-1.017,2.646v58.191 c0,14.092,11.471,25.557,25.571,25.557H394.3c14.1,0,25.571-11.465,25.571-25.557V229.528 c-39.124,10.169-78.538,16.865-117.301,19.931V268.895z M365.808,363.402v55.554c0,2.209-1.791,4-4,4H150.185 c-2.209,0-4-1.791-4-4v-55.554c0-2.209,1.791-4,4-4h211.623C364.017,359.402,365.808,361.193,365.808,363.402z" />
      <path
        d="M302.57,241.434c38.758-3.104,78.181-9.884,117.301-20.174v-27.584c-39.371,10.247-78.785,16.948-117.301,19.945V241.434z " />
      <path
        d="M394.3,106.255h-79.199H196.893h-79.229c-14.1,0-25.571,11.465-25.571,25.558v14.404c1.14,1.689,1.205,6.451,0.414,39.347 c38.287,10.607,77.579,17.453,116.917,20.37v-15.595c0-2.209,1.791-4,4-4h85.147c2.209,0,4,1.791,4,4v15.258 c38.505-3.035,77.928-9.82,117.301-20.189v-53.595C419.871,117.72,408.399,106.255,394.3,106.255z" />
      <rect x="217.423" y="194.339" width="77.147" height="70.556" />
      <path
        d="M490.693,231.508c0.501-28.396,0.804-45.536-34.422-67.189c-3.496-2.048-20.941-9.825-28.299-11.744 c-0.105,8.494,0.445,30.729,0.765,43.611c0.214,8.651,0.383,15.484,0.374,17.63c-0.135,22.958-0.354,46.281-0.565,68.837 c-0.274,29.184-0.558,59.315-0.661,89.045c0.893-0.021,1.786-0.042,2.68-0.063c7.135-0.163,14.514-0.332,21.708-0.714 c33.485-1.797,33.963-11.066,35.543-41.78c0.592-7.95,1.411-14.651,2.204-21.133c1.696-13.874,3.162-25.855,1.499-43.497 C490.331,252.01,490.523,241.118,490.693,231.508z" />
    </g>
  </g>
</svg>
