<svg xmlns="http://www.w3.org/2000/svg" xmlns:xlink="http://www.w3.org/1999/xlink" xml:space="preserve" version="1.1" style="shape-rendering:geometricPrecision;text-rendering:geometricPrecision;image-rendering:optimizeQuality;" viewBox="0 0 636 838.75" x="0px" y="0px" fill-rule="evenodd" clip-rule="evenodd"><defs><style type="text/css">
   
    .fil0 {fill:black}
   
  </style></defs><g><path class="fil0" d="M312 390l-77 81 71 84 -21 24 -82 -73 -94 101c3,15 -1,32 -13,45 -20,23 -55,25 -77,5 -23,-20 -25,-54 -5,-77 11,-13 27,-19 44,-19l87 -105 -83 -73 21 -24 93 60 76 -93 60 64z"/><polygon class="fil0" points="598,0 575,108 389,307 330,235 494,37 "/><path class="fil0" d="M56 15l24 108 321 344 -71 84 21 24 83 -73 93 100c-3,16 2,33 13,46 20,23 55,25 78,5 22,-20 24,-55 4,-78 -11,-13 -27,-19 -43,-18l-88 -106 83 -73 -21 -24 -93 60 -299 -362 -105 -37z"/></g><text x="0" y="686" fill="#000000" font-size="5px" font-weight="bold" font-family="'Helvetica Neue', Helvetica, Arial-Unicode, Arial, Sans-serif">Created by Fasobrun Jamil</text><text x="0" y="691" fill="#000000" font-size="5px" font-weight="bold" font-family="'Helvetica Neue', Helvetica, Arial-Unicode, Arial, Sans-serif">from the Noun Project</text></svg>