<?xml version="1.0" encoding="UTF-8" standalone="no"?><!-- Generator: Gravit.io --><svg xmlns="http://www.w3.org/2000/svg" xmlns:xlink="http://www.w3.org/1999/xlink" style="isolation:isolate" viewBox="0 0 414 432" width="414pt" height="432pt"><defs><clipPath id="_clipPath_q2tVID8dvpM0xGqXG8hUKEnML7hKwNFl"><rect width="414" height="432"/></clipPath></defs><g clip-path="url(#_clipPath_q2tVID8dvpM0xGqXG8hUKEnML7hKwNFl)"><g/><g><g><path d=" M 407.768 138.653 L 334.853 38.24 L 216.861 0 L 216.861 95.849 L 316.571 168.296 L 407.768 138.653 Z  M 197.124 95.849 L 197.124 0 L 79.133 38.24 L 6.217 138.653 L 97.415 168.259 L 197.124 95.849 Z  M 147.51 296.143 L 266.475 296.143 L 303.21 182.999 L 206.992 113.069 L 110.774 183 L 147.51 296.143 Z  M 145.314 315.88 L 89.002 393.509 L 206.992 431.749 L 324.983 393.509 L 268.671 315.88 L 145.314 315.88 Z  M 322.602 187.021 L 284.522 304.21 L 340.885 381.79 L 413.801 281.427 L 413.801 157.428 L 322.602 187.021 Z  M 91.197 187.021 L 0 157.416 L 0 281.488 L 72.916 381.851 L 129.277 304.272 L 91.197 187.021 Z " fill="rgb(0,0,0)"/></g></g></g></svg>