<?xml version="1.0" encoding="UTF-8" standalone="no"?><!-- Generator: Gravit.io --><svg xmlns="http://www.w3.org/2000/svg" xmlns:xlink="http://www.w3.org/1999/xlink" style="isolation:isolate" viewBox="0 0 569.823 623.61" width="569.823pt" height="623.61pt"><defs><clipPath id="_clipPath_8qGwHmSIj9qNYEaOwgsD8j5e4bsLiEpJ"><rect width="569.823" height="623.61"/></clipPath></defs><g clip-path="url(#_clipPath_8qGwHmSIj9qNYEaOwgsD8j5e4bsLiEpJ)"><g><g><path d=" M 284.466 0 C 275.207 0 265.947 2.075 258.776 6.224 L 29.78 138.688 C 15.434 146.985 15.434 160.11 29.78 168.409 L 258.776 300.871 C 273.122 309.17 295.809 309.17 310.154 300.871 L 539.152 168.408 C 553.499 160.112 553.499 146.987 539.152 138.689 L 310.154 6.224 C 302.98 2.072 293.723 0 284.466 0 L 284.466 0 Z  M 554.556 193.463 C 551.65 193.574 548.232 194.749 544.129 197.08 L 323.854 324.277 C 309.508 332.563 298.159 352.218 298.159 368.786 L 298.159 605.198 C 298.159 621.763 309.508 628.313 323.854 620.024 L 544.132 492.833 C 558.479 484.548 569.823 464.896 569.823 448.327 L 569.823 211.914 C 566.079 199.849 561.982 193.183 554.556 193.463 Z  M 15.224 194.182 C 5.889 194.182 0.183 202.165 0 211.91 L 0 448.318 C 0 464.887 11.348 484.542 25.695 492.827 L 245.962 620.026 C 260.309 628.31 271.659 621.759 271.659 605.192 L 271.659 368.779 C 271.659 352.212 260.311 332.561 245.964 324.274 L 25.697 197.077 C 21.848 195.071 18.334 194.184 15.224 194.184 L 15.224 194.182 Z " fill="rgb(0,0,0)"/></g></g></g></svg>