<?xml version="1.0" encoding="UTF-8" standalone="no"?><!DOCTYPE svg PUBLIC "-//W3C//DTD SVG 1.1//EN" "http://www.w3.org/Graphics/SVG/1.1/DTD/svg11.dtd"><svg width="100%" height="100%" viewBox="0 0 100 100" version="1.1" xmlns="http://www.w3.org/2000/svg" xmlns:xlink="http://www.w3.org/1999/xlink" xml:space="preserve" xmlns:serif="http://www.serif.com/" style="fill-rule:evenodd;clip-rule:evenodd;stroke-linejoin:round;stroke-miterlimit:2;"><g><clipPath id="_clip1"><rect x="10.937" y="8.334" width="78.125" height="83.333"/></clipPath><g clip-path="url(#_clip1)"><path d="M28.312,43.337l-17.18,25.373c-0.501,0.814 0.017,1.872 0.966,1.976l33.896,3.592l-17.682,-30.941Zm-16.169,16.336l12.254,-19.913l-12.474,-7.484c-0.434,-0.261 -0.986,0.052 -0.986,0.558l0,26.499c0,0.656 0.861,0.9 1.206,0.34Zm1.764,17.606l31.641,14.268c0.863,0.398 1.847,-0.233 1.847,-1.182l0,-10.688l-33.13,-3.63c-0.724,-0.081 -1.014,0.91 -0.358,1.232Zm13.22,-41.956l13.009,-23.265c0.707,-1.149 -0.584,-2.482 -1.754,-1.813l-24.546,16.049c-0.402,0.264 -0.389,0.857 0.021,1.104l13.27,7.925Zm5.097,1.657l35.551,-0l-15.557,-27.406c-0.509,-0.827 -1.364,-1.24 -2.218,-1.24c-0.855,-0 -1.709,0.413 -2.219,1.24l-15.557,27.406Zm55.852,-4.704l-12.474,7.485l12.254,19.914c0.343,0.56 1.206,0.316 1.206,-0.342l0,-26.499c0,-0.506 -0.552,-0.819 -0.986,-0.558Zm-15.204,3.047l13.27,-7.927c0.412,-0.247 0.423,-0.84 0.021,-1.103l-24.546,-16.048c-1.17,-0.669 -2.461,0.664 -1.754,1.813l13.009,23.265Zm12.862,40.724l-33.13,3.628l-0,10.688c-0,0.951 0.984,1.581 1.847,1.182l31.641,-14.268c0.656,-0.32 0.366,-1.311 -0.358,-1.23Zm-14.047,-32.71l-17.68,30.941l33.896,-3.592c0.949,-0.106 1.467,-1.162 0.965,-1.976l-17.181,-25.373Zm-5.341,-1.149l-32.692,-0l16.346,28.605l16.346,-28.605Z" style="fill-rule:nonzero;"/></g></g></svg>