<?xml version="1.0" encoding="UTF-8" standalone="no"?>
<!DOCTYPE svg PUBLIC "-//W3C//DTD SVG 1.1//EN" "http://www.w3.org/Graphics/SVG/1.1/DTD/svg11.dtd">
<svg width="100%" height="100%" viewBox="0 0 19 20" version="1.1" xmlns="http://www.w3.org/2000/svg" xmlns:xlink="http://www.w3.org/1999/xlink" xml:space="preserve" xmlns:serif="http://www.serif.com/" style="fill-rule:evenodd;clip-rule:evenodd;stroke-linejoin:round;stroke-miterlimit:2;">
    <g>
        <g>
            <g>
                <g>
                    <path d="M9.074,0c-0.295,0 -0.59,0.066 -0.819,0.199l-7.305,4.225c-0.458,0.265 -0.458,0.683 -0,0.948l7.305,4.226c0.457,0.264 1.181,0.264 1.639,-0l7.305,-4.226c0.457,-0.265 0.457,-0.683 -0,-0.948l-7.305,-4.225c-0.229,-0.133 -0.524,-0.199 -0.82,-0.199Zm8.616,6.171c-0.093,0.004 -0.202,0.041 -0.333,0.116l-7.026,4.057c-0.458,0.265 -0.82,0.892 -0.82,1.42l0,7.542c0,0.528 0.362,0.737 0.82,0.472l7.027,-4.057c0.457,-0.264 0.819,-0.891 0.819,-1.42l0,-7.541c-0.119,-0.385 -0.25,-0.598 -0.487,-0.589Zm-17.204,0.023c-0.298,0 -0.48,0.255 -0.486,0.566l-0,7.541c-0,0.529 0.362,1.156 0.82,1.42l7.026,4.058c0.458,0.264 0.82,0.055 0.82,-0.474l-0,-7.541c-0,-0.529 -0.362,-1.155 -0.82,-1.42l-7.026,-4.057c-0.123,-0.064 -0.235,-0.093 -0.334,-0.093l-0,0Z" style="fill-rule:nonzero;"/>
                </g>
            </g>
        </g>
    </g>
</svg>
