<?xml version="1.0" encoding="UTF-8" standalone="no"?><!DOCTYPE svg PUBLIC "-//W3C//DTD SVG 1.1//EN" "http://www.w3.org/Graphics/SVG/1.1/DTD/svg11.dtd"><svg width="100%" height="100%" viewBox="0 0 100 100" version="1.1" xmlns="http://www.w3.org/2000/svg" xmlns:xlink="http://www.w3.org/1999/xlink" xml:space="preserve" xmlns:serif="http://www.serif.com/" style="fill-rule:evenodd;clip-rule:evenodd;stroke-linejoin:round;stroke-miterlimit:2;"><g><g><g><g><path d="M50.31,8.333c-1.231,0 -2.462,0.276 -3.415,0.828l-30.437,17.606c-1.907,1.103 -1.907,2.847 0,3.95l30.437,17.606c1.907,1.104 4.922,1.104 6.829,0l30.437,-17.606c1.907,-1.102 1.907,-2.847 0,-3.95l-30.437,-17.606c-0.954,-0.552 -2.184,-0.828 -3.414,-0.828Zm35.899,25.714c-0.387,0.015 -0.841,0.171 -1.386,0.481l-29.278,16.906c-1.907,1.102 -3.415,3.714 -3.415,5.916l-0,31.423c-0,2.202 1.508,3.072 3.415,1.971l29.278,-16.906c1.907,-1.101 3.415,-3.713 3.415,-5.915l-0,-31.423c-0.498,-1.604 -1.042,-2.49 -2.029,-2.453Zm-71.686,0.096c-1.24,-0 -1.999,1.061 -2.023,2.356l-0,31.422c-0,2.203 1.508,4.815 3.415,5.916l29.277,16.907c1.907,1.101 3.415,0.23 3.415,-1.972l0,-31.423c0,-2.202 -1.508,-4.813 -3.415,-5.915l-29.276,-16.906c-0.512,-0.267 -0.979,-0.385 -1.393,-0.385l0,-0Z" style="fill-rule:nonzero;"/></g></g></g></g></svg>