<?xml version="1.0" encoding="UTF-8" standalone="no"?><!DOCTYPE svg PUBLIC "-//W3C//DTD SVG 1.1//EN" "http://www.w3.org/Graphics/SVG/1.1/DTD/svg11.dtd"><svg width="100%" height="100%" viewBox="0 0 100 100" version="1.1" xmlns="http://www.w3.org/2000/svg" xmlns:xlink="http://www.w3.org/1999/xlink" xml:space="preserve" xmlns:serif="http://www.serif.com/" style="fill-rule:evenodd;clip-rule:evenodd;stroke-linejoin:round;stroke-miterlimit:2;"><g><g><g><g><path d="M88.727,35.079l-14.065,-19.37l-22.761,-7.376l0,18.489l19.234,13.975l17.592,-5.718Zm-40.633,-8.257l-0,-18.489l-22.761,7.376l-14.065,19.37l17.592,5.711l19.234,-13.968Zm-9.571,38.637l22.949,0l7.086,-21.825l-18.56,-13.49l-18.561,13.49l7.086,21.825Zm-0.423,3.808l-10.863,14.974l22.761,7.377l22.76,-7.377l-10.863,-14.974l-23.795,-0Zm34.199,-24.858l-7.346,22.606l10.873,14.966l14.065,-19.361l0,-23.919l-17.592,5.708Zm-44.638,0l-17.592,-5.71l-0,23.933l14.065,19.36l10.872,-14.965l-7.345,-22.618Z" style="fill-rule:nonzero;"/></g></g></g></g></svg>