<?xml version="1.0" encoding="UTF-8" standalone="no"?><!DOCTYPE svg PUBLIC "-//W3C//DTD SVG 1.1//EN" "http://www.w3.org/Graphics/SVG/1.1/DTD/svg11.dtd"><svg width="100%" height="100%" viewBox="0 0 24 24" version="1.1" xmlns="http://www.w3.org/2000/svg" xmlns:xlink="http://www.w3.org/1999/xlink" xml:space="preserve" xmlns:serif="http://www.serif.com/" style="fill-rule:evenodd;clip-rule:evenodd;stroke-linejoin:round;stroke-miterlimit:2;"><g><clipPath id="_clip1"><rect x="2" y="2" width="20" height="20"/></clipPath><g clip-path="url(#_clip1)"><g id="shape-05bde890-8ea6-11ec-9ee1-17f27e687494"><g id="shape-05bde891-8ea6-11ec-9ee1-17f27e687494"><g id="shape-05be36b0-8ea6-11ec-9ee1-17f27e687494"><path d="M7.921,2l-4.101,1.23c-0.523,0.286 -1.018,1.085 -1.346,2.104c-0.263,0.827 -0.417,1.766 -0.474,2.647l4.823,-2.519l1.098,-3.462Zm8.159,0.005l1.103,3.457l4.817,2.524c-0.056,-0.876 -0.213,-1.825 -0.473,-2.647c-0.247,-0.774 -0.59,-1.423 -0.977,-1.818c-0.117,-0.127 -0.238,-0.223 -0.364,-0.291l-4.106,-1.225Zm-7.504,0.522l-1.115,3.516l-4.032,2.106l0.611,2.429l3.855,2.016l4.106,-0.722l4.105,0.722l3.854,-2.016l0.612,-2.429l-4.027,-2.106l-1.12,-3.512l-0.456,0l-2.573,3.357l-0.005,2.774l-0.785,0l0.004,-2.769l-2.574,-3.366l-0.46,-0Zm-4.272,9.095l0.957,3.809l6.345,-1.988l-0,-0.668l-3.837,0.668l-3.465,-1.821Zm15.396,0l-3.472,1.821l-3.837,-0.668l0,0.668l6.35,1.988l0.959,-3.809Zm-8.094,2.665l-1.372,0.436l-1.523,3.187l2.895,-1.512l-0,-2.111Zm0.785,-0l0,2.111l2.904,1.516l-1.528,-3.191l-1.376,-0.436Zm-3.181,0.754l-3.75,1.18l1.098,4.372l2.652,-5.552Zm5.581,0.004l2.652,5.543l1.098,-4.367l-3.75,-1.176Zm-2.4,2.27l0.005,1.961l4.37,1.716l-0.885,-1.852l-3.49,-1.825Zm-0.785,-0l-3.481,1.82l-0.89,1.857l4.375,-1.716l-0.004,-1.961Zm0.004,2.833l-3.541,1.389l3.541,0.463l0,-1.852Zm0.786,-0l-0,1.847l3.545,-0.463l-3.545,-1.384Z" style="fill-rule:nonzero;"/></g></g></g></g></g></svg>