<svg id="screenshot" viewBox="910.3659853015806 299.9625807193562 39.985249457700434 39.9591836734694" width="39.985249457700434" height="39.9591836734694" version="1.1" xmlns="http://www.w3.org/2000/svg" xmlns:xlink="http://www.w3.org/1999/xlink" style="-webkit-print-color-adjust: exact;"><g id="shape-05bde890-8ea6-11ec-9ee1-17f27e687494" style="height: 512px; width: 512px;"><g id="shape-05bde891-8ea6-11ec-9ee1-17f27e687494" class=""><g id="shape-05be36b0-8ea6-11ec-9ee1-17f27e687494"><path d="M922.2037293362878,299.9625807193562L914.0050308547259,302.4206306059775C912.9594777093897,302.9920591774061,911.9685883384569,304.5884310594922,911.3143584035329,306.62471223863054C910.7876772755502,308.27550588942427,910.4796512451815,310.15305690983234,910.3659853015806,311.912694098041L920.0085015705611,306.87868049259885ZM938.5160937614504,299.9716510141408L940.7199983167649,306.87868049259885L950.351234759281,311.9217643928256C950.2384364946394,310.1711974994016,949.9260720694766,308.27550588942427,949.4054646942055,306.6337825334151C948.9108876876977,305.08729727264415,948.2254213102575,303.7902451184491,947.4531870369384,303.00112947219066C947.2189137180663,302.74716121822235,946.9759636096065,302.5566850277462,946.724336711559,302.4206306059775ZM923.5139245640535,301.0147349143675L921.2839896399754,308.0396782250251L913.2232521128603,312.24829500507053L914.44494408683,317.100902714821L922.1516685987606,321.12811359917475L930.359911548869,319.68593672842644L938.5681544989776,321.12811359917475L946.2731436529904,317.100902714821L947.4965709848776,312.24829500507053L939.4445102473506,308.0396782250251L937.2058985336847,301.0238052091521L936.2948356269602,301.0238052091521L931.1494994013636,307.73128820234933L931.1408226117758,313.2732383157281L929.5703236963745,313.2732383157281L929.5790004859623,307.7403584971339L924.4336642603658,301.0147349143675ZM914.9716252148127,319.1870705152746L916.8848573189341,326.7970478395375L929.5703236963745,322.8242587238914L929.5703236963745,321.490925390558L921.9000417007129,322.8242587238914ZM945.7525362777193,319.1870705152746L938.8111046074374,322.8242587238914L931.1408226117758,321.490925390558L931.1408226117758,322.8242587238914L943.8349657788041,326.7970478395375ZM929.5703236963745,324.5113335538233L926.8284581866131,325.38208185314306L923.7829050412769,331.7494287919185L929.5703236963745,328.7290206286532ZM931.1408226117758,324.5113335538233L931.1408226117758,328.7290206286532L936.9455948460492,331.75849908670307L933.8913649111252,325.38208185314306ZM924.7807358438799,326.01700248806367L917.2839896399754,328.37527913205463L919.479217405702,337.1099730096056ZM935.9390872538582,326.02607278284825L941.240605692036,337.100902714821L943.4358334577629,328.37527913205463ZM931.1408226117758,330.5612201751385L931.1494994013636,334.4795875220773L939.887026516331,337.9081589506487L938.1169614404092,334.2074786785399ZM929.5703236963745,330.5612201751385L922.6115384469168,334.19840838375535L920.832796581407,337.9081589506487L929.5790004859623,334.4795875220773ZM929.5790004859623,336.2210841207168L922.4987401822747,338.99659432479837L929.5790004859623,339.9217643928256ZM931.1494994013636,336.2210841207168L931.1494994013636,339.912694098041L938.2384364946391,338.9875240300138Z" style="fill: rgb(0, 0, 0); fill-opacity: 1;"/></g></g></g></svg>