<?xml version="1.0" encoding="UTF-8" standalone="no"?><!DOCTYPE svg PUBLIC "-//W3C//DTD SVG 1.1//EN" "http://www.w3.org/Graphics/SVG/1.1/DTD/svg11.dtd"><svg width="100%" height="100%" viewBox="0 0 24 24" version="1.1" xmlns="http://www.w3.org/2000/svg" xmlns:xlink="http://www.w3.org/1999/xlink" xml:space="preserve" xmlns:serif="http://www.serif.com/" style="fill-rule:evenodd;clip-rule:evenodd;stroke-linejoin:round;stroke-miterlimit:2;"><g transform="matrix(1,0,0,1,-834,-8)"><g transform="matrix(1.5,0,0,1.5,517.5,-905.005)"><g transform="matrix(0.333456,0,0,0.333674,219,616.67)"><g transform="matrix(1,0,0,1,-19.9926,-19.9796)"><clipPath id="_clip1"><rect x="0" y="0" width="39.985" height="39.959"/></clipPath><g clip-path="url(#_clip1)"><g id="shape-05bde890-8ea6-11ec-9ee1-17f27e687494"><g id="shape-05bde891-8ea6-11ec-9ee1-17f27e687494"><g id="shape-05be36b0-8ea6-11ec-9ee1-17f27e687494"><path d="M11.838,0l-8.199,2.458c-1.046,0.571 -2.036,2.168 -2.691,4.204c-0.526,1.651 -0.834,3.528 -0.948,5.288l9.643,-5.034l2.195,-6.916Zm16.312,0.009l2.204,6.907l9.631,5.043c-0.113,-1.75 -0.425,-3.646 -0.946,-5.288c-0.494,-1.546 -1.18,-2.843 -1.952,-3.632c-0.234,-0.254 -0.477,-0.445 -0.729,-0.581l-8.208,-2.449Zm-15.002,1.043l-2.23,7.025l-8.061,4.209l1.222,4.852l7.707,4.028l8.208,-1.443l8.208,1.443l7.705,-4.028l1.224,-4.852l-8.052,-4.209l-2.239,-7.016l-0.911,0l-5.145,6.708l-0.009,5.542l-1.571,-0l0.009,-5.533l-5.145,-6.726l-0.92,0Zm-8.542,18.172l1.913,7.61l12.685,-3.972l0,-1.334l-7.67,1.334l-6.928,-3.638Zm30.781,0l-6.942,3.638l-7.67,-1.334l-0,1.334l12.694,3.972l1.918,-7.61Zm-16.183,5.325l-2.742,0.871l-3.045,6.367l5.787,-3.021l0,-4.217Zm1.571,-0l-0,4.217l5.805,3.03l-3.055,-6.376l-2.75,-0.871Zm-6.36,1.505l-7.497,2.359l2.195,8.734l5.302,-11.093Zm11.158,0.009l5.302,11.075l2.195,-8.725l-7.497,-2.35Zm-4.798,4.536l0.009,3.918l8.737,3.429l-1.77,-3.701l-6.976,-3.646Zm-1.571,-0l-6.958,3.637l-1.779,3.71l8.746,-3.429l-0.009,-3.918Zm0.009,5.66l-7.08,2.775l7.08,0.925l0,-3.7Zm1.571,-0l-0,3.691l7.088,-0.925l-7.088,-2.766Z" style="fill-rule:nonzero;"/></g></g></g></g></g></g></g></g></svg>