<?xml version="1.0" encoding="UTF-8" standalone="no"?><!DOCTYPE svg PUBLIC "-//W3C//DTD SVG 1.1//EN" "http://www.w3.org/Graphics/SVG/1.1/DTD/svg11.dtd"><svg width="100%" height="100%" viewBox="0 0 100 100" version="1.1" xmlns="http://www.w3.org/2000/svg" xmlns:xlink="http://www.w3.org/1999/xlink" xml:space="preserve" xmlns:serif="http://www.serif.com/" style="fill-rule:evenodd;clip-rule:evenodd;stroke-linejoin:round;stroke-miterlimit:2;"><g><clipPath id="_clip1"><rect x="8.333" y="8.333" width="83.333" height="83.333"/></clipPath><g clip-path="url(#_clip1)"><g id="shape-05bde890-8ea6-11ec-9ee1-17f27e687494"><g id="shape-05bde891-8ea6-11ec-9ee1-17f27e687494"><g id="shape-05be36b0-8ea6-11ec-9ee1-17f27e687494"><path d="M33.004,8.333l-17.087,5.127c-2.179,1.191 -4.244,4.52 -5.607,8.767c-1.098,3.443 -1.74,7.358 -1.977,11.028l20.096,-10.498l4.575,-14.424Zm33.997,0.019l4.593,14.405l20.073,10.517c-0.235,-3.651 -0.886,-7.604 -1.971,-11.028c-1.031,-3.225 -2.46,-5.93 -4.069,-7.576c-0.488,-0.53 -0.995,-0.927 -1.519,-1.21l-17.107,-5.108Zm-31.266,2.176l-4.647,14.65l-16.8,8.777l2.546,10.12l16.062,8.398l17.107,-3.007l17.107,3.007l16.058,-8.398l2.549,-10.12l-16.781,-8.777l-4.666,-14.632l-1.898,0l-10.724,13.989l-0.018,11.557l-3.273,0l0.018,-11.538l-10.723,-14.026l-1.917,-0Zm-17.803,37.897l3.987,15.871l26.438,-8.286l0,-2.78l-15.986,2.78l-14.439,-7.585Zm64.151,0l-14.467,7.585l-15.986,-2.78l0,2.78l26.456,8.286l3.997,-15.871Zm-33.726,11.104l-5.714,1.816l-6.347,13.279l12.061,-6.299l0,-8.796Zm3.273,-0l0,8.796l12.098,6.317l-6.365,-13.297l-5.733,-1.816Zm-13.255,3.14l-15.624,4.918l4.575,18.216l11.049,-23.134Zm23.255,0.019l11.049,23.096l4.575,-18.197l-15.624,-4.899Zm-10,9.458l0.018,8.171l18.21,7.15l-3.689,-7.717l-14.539,-7.604Zm-3.273,-0l-14.503,7.585l-3.707,7.736l18.228,-7.15l-0.018,-8.171Zm0.018,11.803l-14.756,5.788l14.756,1.93l0,-7.718Zm3.273,0l0,7.699l14.774,-1.93l-14.774,-5.769Z" style="fill-rule:nonzero;"/></g></g></g></g></g></svg>