<?xml version="1.0" encoding="UTF-8" standalone="no"?><!DOCTYPE svg PUBLIC "-//W3C//DTD SVG 1.1//EN" "http://www.w3.org/Graphics/SVG/1.1/DTD/svg11.dtd"><svg width="100%" height="100%" viewBox="0 0 24 24" version="1.1" xmlns="http://www.w3.org/2000/svg" xmlns:xlink="http://www.w3.org/1999/xlink" xml:space="preserve" xmlns:serif="http://www.serif.com/" style="fill-rule:evenodd;clip-rule:evenodd;stroke-linejoin:round;stroke-miterlimit:2;"><g><clipPath id="_clip1"><rect x="2.026" y="2" width="20" height="20"/></clipPath><g clip-path="url(#_clip1)"><g id="shape-bd121670-8ea5-11ec-9ee1-17f27e687494"><g id="shape-bd121671-8ea5-11ec-9ee1-17f27e687494"><g id="shape-bd121672-8ea5-11ec-9ee1-17f27e687494"><path d="M9.46,2c-0.352,0.042 -0.705,0.092 -1.061,0.151c0.898,0.563 1.724,1.353 2.242,2.744c-1.078,-1.072 -1.915,-1.882 -3.281,-2.549c-0.382,0.08 -0.766,0.169 -1.154,0.268c0.982,0.512 2.122,1.244 3.251,2.445c-2.487,-1.213 -3.54,-1.48 -5.204,-1.877c-0.524,0.169 -1.057,0.355 -1.599,0.557c2.373,0.169 4.464,0.936 8.11,2.274l0.087,0.032l0.065,0.071c0.251,0.276 0.665,0.441 1.091,0.446c-0.118,-1.878 -0.813,-3.23 -2.547,-4.562Zm5.132,0c-1.734,1.332 -2.429,2.684 -2.547,4.562c0.426,-0.005 0.84,-0.17 1.091,-0.446l0.065,-0.071l0.087,-0.032c3.646,-1.338 5.737,-2.105 8.11,-2.273c-0.542,-0.203 -1.075,-0.388 -1.599,-0.558c-1.664,0.397 -2.717,0.664 -5.204,1.877c1.129,-1.201 2.269,-1.933 3.251,-2.445c-0.388,-0.098 -0.772,-0.188 -1.154,-0.268c-1.366,0.667 -2.203,1.477 -3.281,2.549c0.518,-1.391 1.344,-2.181 2.242,-2.744c-0.356,-0.059 -0.709,-0.109 -1.061,-0.151Zm-12.566,2.575l0,14.376c1.934,0.009 4.589,0.801 8.225,2.12l0,-14.342c-3.765,-1.38 -5.772,-2.086 -8.225,-2.154Zm20,0c-2.453,0.068 -4.46,0.774 -8.225,2.154l-0,14.342c3.65,-1.319 6.208,-2.024 8.225,-2.105l0,-14.391Zm-10.996,2.63l0,9.543c0.67,0.148 1.33,0.157 1.992,0.005l-0,-9.548c-0.313,0.145 -0.656,0.215 -0.996,0.215c-0.34,-0 -0.683,-0.07 -0.996,-0.215Zm0,10.415l0,0.664c0.662,0.166 1.321,0.156 1.992,-0.005l-0,-0.654c-0.666,0.13 -1.332,0.121 -1.992,-0.005Zm1.992,1.533c-0.659,0.136 -1.326,0.146 -1.992,0.006l0,2.327c0.14,0.154 0.25,0.28 0.362,0.36c0.143,0.102 0.294,0.166 0.618,0.152l0.008,-0l0.008,-0c0.503,-0 0.691,-0.193 0.996,-0.517l-0,-2.328Z" style="fill-rule:nonzero;"/></g></g></g></g></g></svg>