<?xml version="1.0" encoding="UTF-8" standalone="no"?><!DOCTYPE svg PUBLIC "-//W3C//DTD SVG 1.1//EN" "http://www.w3.org/Graphics/SVG/1.1/DTD/svg11.dtd"><svg width="100%" height="100%" viewBox="0 0 24 24" version="1.1" xmlns="http://www.w3.org/2000/svg" xmlns:xlink="http://www.w3.org/1999/xlink" xml:space="preserve" xmlns:serif="http://www.serif.com/" style="fill-rule:evenodd;clip-rule:evenodd;stroke-linejoin:round;stroke-miterlimit:2;"><g transform="matrix(1,0,0,1,-1186,-8)"><g transform="matrix(1.5,0,0,1.5,869.5,-265)"><g transform="matrix(0.331804,0,0,0.335694,219.017,190)"><g transform="matrix(1,0,0,1,-20.0922,-19.8594)"><clipPath id="_clip1"><rect x="0" y="0" width="40.184" height="39.719"/></clipPath><g clip-path="url(#_clip1)"><g id="shape-bd121670-8ea5-11ec-9ee1-17f27e687494"><g id="shape-bd121671-8ea5-11ec-9ee1-17f27e687494"><g id="shape-bd121672-8ea5-11ec-9ee1-17f27e687494"><path d="M14.937,0c-0.707,0.083 -1.418,0.183 -2.132,0.3c1.805,1.117 3.464,2.686 4.504,5.449c-2.166,-2.129 -3.847,-3.737 -6.593,-5.062c-0.766,0.158 -1.538,0.337 -2.318,0.533c1.973,1.017 4.264,2.469 6.533,4.854c-4.997,-2.408 -7.114,-2.939 -10.457,-3.727c-1.053,0.337 -2.123,0.706 -3.213,1.107c4.768,0.335 8.97,1.859 16.295,4.515l0.176,0.064l0.13,0.142c0.504,0.548 1.336,0.875 2.193,0.885c-0.237,-3.731 -1.635,-6.415 -5.118,-9.06Zm10.31,0c-3.483,2.645 -4.88,5.329 -5.117,9.06c0.856,-0.01 1.688,-0.337 2.192,-0.885l0.131,-0.142l0.175,-0.064c7.325,-2.656 11.528,-4.18 16.295,-4.514c-1.09,-0.402 -2.16,-0.771 -3.212,-1.108c-3.344,0.788 -5.46,1.319 -10.458,3.727c2.269,-2.385 4.56,-3.837 6.534,-4.854c-0.78,-0.196 -1.553,-0.375 -2.319,-0.533c-2.745,1.326 -4.427,2.933 -6.592,5.063c1.039,-2.764 2.699,-4.333 4.504,-5.45c-0.715,-0.117 -1.425,-0.217 -2.133,-0.3Zm-25.247,5.114l0,28.549c3.886,0.018 9.221,1.591 16.526,4.21l0,-28.481c-7.564,-2.741 -11.597,-4.143 -16.526,-4.278Zm40.184,0c-4.929,0.135 -8.961,1.537 -16.526,4.278l0,28.482c7.334,-2.62 12.474,-4.02 16.526,-4.181l0,-28.579Zm-22.092,5.222l-0,18.953c1.345,0.293 2.671,0.311 4.001,0.009l-0,-18.962c-0.629,0.29 -1.317,0.428 -2.001,0.428c-0.683,-0 -1.372,-0.138 -2,-0.428Zm-0,20.684l-0,1.319c1.33,0.33 2.654,0.31 4.001,-0.01l-0,-1.298c-1.337,0.258 -2.676,0.241 -4.001,-0.011Zm4.001,3.045c-1.325,0.271 -2.665,0.29 -4.001,0.012l-0,4.621c0.28,0.306 0.502,0.556 0.727,0.715c0.286,0.202 0.589,0.33 1.242,0.302l0.015,-0.001l0.016,0c1.01,0 1.388,-0.382 2.001,-1.025l-0,-4.624Z" style="fill-rule:nonzero;"/></g></g></g></g></g></g></g></g></svg>