<?xml version="1.0" encoding="UTF-8" standalone="no"?><!DOCTYPE svg PUBLIC "-//W3C//DTD SVG 1.1//EN" "http://www.w3.org/Graphics/SVG/1.1/DTD/svg11.dtd"><svg width="100%" height="100%" viewBox="0 0 100 100" version="1.1" xmlns="http://www.w3.org/2000/svg" xmlns:xlink="http://www.w3.org/1999/xlink" xml:space="preserve" xmlns:serif="http://www.serif.com/" style="fill-rule:evenodd;clip-rule:evenodd;stroke-linejoin:round;stroke-miterlimit:2;"><g><clipPath id="_clip1"><rect x="8.442" y="8.333" width="83.333" height="83.333"/></clipPath><g clip-path="url(#_clip1)"><g id="shape-bd121670-8ea5-11ec-9ee1-17f27e687494"><g id="shape-bd121671-8ea5-11ec-9ee1-17f27e687494"><g id="shape-bd121672-8ea5-11ec-9ee1-17f27e687494"><path d="M39.418,8.333c-1.467,0.175 -2.941,0.385 -4.422,0.63c3.743,2.344 7.184,5.636 9.34,11.433c-4.49,-4.469 -7.978,-7.841 -13.671,-10.622c-1.589,0.333 -3.191,0.707 -4.808,1.12c4.092,2.132 8.843,5.179 13.548,10.184c-10.363,-5.053 -14.753,-6.167 -21.686,-7.821c-2.183,0.707 -4.402,1.482 -6.662,2.324c9.887,0.701 18.602,3.899 33.793,9.472l0.363,0.133l0.271,0.299c1.045,1.15 2.77,1.837 4.546,1.857c-0.491,-7.827 -3.388,-13.459 -10.612,-19.009Zm21.381,0c-7.224,5.55 -10.121,11.182 -10.612,19.009c1.776,-0.02 3.501,-0.707 4.546,-1.857l0.271,-0.299l0.363,-0.133c15.191,-5.572 23.906,-8.77 33.793,-9.471c-2.261,-0.843 -4.479,-1.617 -6.662,-2.325c-6.934,1.654 -11.323,2.768 -21.687,7.821c4.706,-5.005 9.456,-8.051 13.549,-10.184c-1.617,-0.413 -3.219,-0.787 -4.808,-1.12c-5.693,2.782 -9.181,6.153 -13.671,10.622c2.156,-5.797 5.597,-9.089 9.34,-11.433c-1.482,-0.245 -2.955,-0.455 -4.422,-0.63Zm-52.357,10.731l-0,59.898c8.059,0.038 19.121,3.337 34.271,8.833l-0,-59.756c-15.687,-5.75 -24.049,-8.693 -34.271,-8.975Zm83.333,-0c-10.222,0.282 -18.585,3.224 -34.271,8.975l-0,59.758c15.208,-5.498 25.868,-8.436 34.271,-8.774l0,-59.959Zm-45.815,10.956l-0,39.764c2.79,0.615 5.539,0.653 8.297,0.019l-0,-39.783c-1.304,0.607 -2.731,0.897 -4.149,0.897c-1.417,-0 -2.845,-0.29 -4.148,-0.897Zm-0,43.397l-0,2.765c2.759,0.693 5.503,0.652 8.297,-0.019l-0,-2.724c-2.772,0.541 -5.549,0.505 -8.297,-0.022Zm8.297,6.388c-2.746,0.567 -5.525,0.608 -8.297,0.025l-0,9.695c0.581,0.643 1.041,1.166 1.509,1.5c0.592,0.424 1.221,0.693 2.574,0.633l0.033,-0.001l0.032,-0c2.094,-0 2.878,-0.802 4.149,-2.151l-0,-9.701Z" style="fill-rule:nonzero;"/></g></g></g></g></g></svg>