<svg id="screenshot" viewBox="847.9151877711499 300.08279031330744 40.18437499999993 39.71876448556691" width="40.18437499999993" height="39.71876448556691" version="1.1" xmlns="http://www.w3.org/2000/svg" xmlns:xlink="http://www.w3.org/1999/xlink" style="-webkit-print-color-adjust: exact;"><g id="shape-bd121670-8ea5-11ec-9ee1-17f27e687494" style="height: 512px; width: 512px;"><g id="shape-bd121671-8ea5-11ec-9ee1-17f27e687494" class=""><g id="shape-bd121672-8ea5-11ec-9ee1-17f27e687494"><path d="M862.8521200628167,300.08279031330744C862.1448054794831,300.1658573445575,861.4343596461498,300.2659540633075,860.7198257919832,300.38289125080746C862.5249044378166,301.50003875080733,864.1842060003166,303.06913523518244,865.2240419378167,305.83220203205747C863.0586086044833,303.70235578205745,861.3767794378166,302.09513171955746,858.6314560003166,300.76946515705754C857.8653435003166,300.92803046955737,857.0927945419834,301.1064637508075,856.31293933365,301.30306203205737C858.2864966253167,302.3196397664326,860.5771799586498,303.7717990633075,862.84629245865,306.15709062580754C857.8488174586499,303.7489035945574,855.73209245865,303.2179557820575,852.3887872503166,302.4294812508075C851.33607839615,302.7666690633075,850.2662346461499,303.1358348445574,849.1763856878166,303.5372624226825C853.9439747503164,303.8714227351825,858.1462862086499,305.3957689851825,865.4715846461498,308.0517379695575L865.6468476669833,308.1154100789324L865.7775773544832,308.2577025789325C866.2815346461499,308.80577468830745,867.1132294378166,309.13321773518237,867.9697132919832,309.1425840633075C867.7326950628164,305.41213640705746,866.3356356878166,302.7278792195575,862.8521200628167,300.08279031330744ZZM873.1626304794831,300.08279031330744C869.6791148544831,302.7278792195575,868.2822294378165,305.41213640705746,868.0451242294832,309.1425840633075C868.9016080836499,309.1331231258075,869.7333898544832,308.80577468830745,870.2372601669833,308.2577025789325L870.3679028753165,308.1154100789324L870.5430789169833,308.0518325789325C877.8685513128166,305.3960528133075,882.0707757919834,303.8716119539324,886.8383648544832,303.5374516414324C885.7485158961499,303.13602406330756,884.6786721461499,302.76685828205746,883.6258763128166,302.42957586018247C880.2825711044832,303.2180503914326,878.1658461044832,303.7489982039325,873.1683711044833,306.1571852351824C875.4374836044833,303.7718936726826,877.7281669378165,302.31982898518254,879.7018112086499,301.30306203205737C878.92212995865,301.1065583601825,878.14949402115,300.92812507893245,877.38338152115,300.76946515705754C874.6380580836499,302.0953209383075,872.9561419378167,303.70235578205745,870.7907955836499,305.83229664143255C871.8305445419832,303.0692298445574,873.4899330836498,301.5001333601824,875.2950117294833,300.38298586018243C874.58039089615,300.2660486726825,873.8700320419834,300.16595195393256,873.1626304794831,300.08279031330744ZZM847.9151877711499,305.1970892976825L847.9151877711499,333.7462250789324C851.8014169378166,333.76420086018254,857.1358492294831,335.3368925008076,864.4412294378166,337.9561530476824L864.4412294378166,309.4749467976825C856.8769992294833,306.73420781330753,852.84429714615,305.33171843830746,847.9151877711499,305.1970892976825ZZM888.0995627711499,305.1970892976825C883.17045339615,305.33171843830746,879.1377513128166,306.73411320393245,871.5735211044833,309.47504140705746L871.5735211044833,337.9571937508075C878.9073435003166,335.33670328205744,884.04746433365,333.9362953133075,888.0995627711499,333.7754593758075L888.0995627711499,305.1970892976825ZZM866.0068544378166,310.4190537508075L866.0068544378166,329.37167679768254C867.3524221461499,329.6649658601824,868.67798464615,329.6831308601825,870.0078961044833,329.3808539070575L870.0078961044833,310.4190537508075C869.3792976669832,310.7083692195574,868.6910315211499,310.8464989070575,868.00737527115,310.8464989070575C867.3237190211499,310.8464989070575,866.6354528753164,310.7083692195574,866.0068544378166,310.4190537508075ZZM866.0068544378166,331.1032175789326L866.0068544378166,332.42141000080744C867.3372877711498,332.75140750080743,868.66076277115,332.7321071883075,870.0078961044833,332.4119490633075L870.0078961044833,331.1137192195574C868.6710263128166,331.37181359455747,867.3320690211499,331.3543108601825,866.0068544378166,331.1032175789326ZZM870.0078961044833,334.14822031330755C868.6835513128167,334.4184246883075,867.3434632919831,334.43753578205747,866.0068544378166,334.1600464851824L866.0068544378166,338.78057914143255C866.2871013128166,339.0871135164325,866.5091591253165,339.33650382893256,866.7344351669832,339.4958260164325C867.01998777115,339.6979116414325,867.3232841253165,339.82601273518253,867.9759757919833,339.7976299226825L867.9916320419833,339.7968730476824L868.0072882919832,339.7968730476824C869.0171164169832,339.7968730476824,869.3949539169832,339.4146511726825,870.0078091253165,338.7716858601825L870.0078961044833,334.14822031330755ZZ" style="fill: rgb(0, 0, 0); fill-opacity: 1;"/></g></g></g></svg>