<?xml version="1.0" encoding="UTF-8" standalone="no"?><!DOCTYPE svg PUBLIC "-//W3C//DTD SVG 1.1//EN" "http://www.w3.org/Graphics/SVG/1.1/DTD/svg11.dtd"><svg width="100%" height="100%" viewBox="0 0 100 100" version="1.1" xmlns="http://www.w3.org/2000/svg" xmlns:xlink="http://www.w3.org/1999/xlink" xml:space="preserve" xmlns:serif="http://www.serif.com/" style="fill-rule:evenodd;clip-rule:evenodd;stroke-linejoin:round;stroke-miterlimit:2;"><g><clipPath id="_clip1"><rect x="8.333" y="8.333" width="83.333" height="83.333"/></clipPath><g clip-path="url(#_clip1)"><g><g><path d="M32.545,55.92c2.342,-0 4.606,-0.151 6.748,-0.433l-0,-23.479c-2.142,-0.281 -4.406,-0.432 -6.748,-0.432c-13.372,-0 -24.211,4.916 -24.211,10.981l-0,2.381c-0,6.065 10.839,10.982 24.211,10.982Z" style="fill-rule:nonzero;"/><path d="M32.545,68.18c2.342,-0 4.606,-0.152 6.748,-0.433l-0,-6.882c-2.143,0.281 -4.405,0.435 -6.748,0.435c-11.672,-0 -21.414,-3.746 -23.702,-8.732c-0.333,0.726 -0.509,1.478 -0.509,2.249l-0,2.381c-0,6.065 10.839,10.982 24.211,10.982Z" style="fill-rule:nonzero;"/><path d="M39.293,76.041l-0,-2.916c-2.143,0.282 -4.406,0.435 -6.748,0.435c-11.672,-0 -21.414,-3.746 -23.702,-8.732c-0.334,0.726 -0.51,1.478 -0.51,2.249l0,2.381c0,6.065 10.84,10.982 24.212,10.982c2.674,-0 5.246,-0.197 7.651,-0.561c-0.596,-1.219 -0.903,-2.505 -0.903,-3.838Z" style="fill-rule:nonzero;"/><path d="M67.455,12.977c-13.372,0 -24.212,4.916 -24.212,10.981l0,2.382c0,6.065 10.84,10.981 24.212,10.981c13.372,0 24.212,-4.916 24.212,-10.981l-0,-2.382c-0,-6.065 -10.84,-10.981 -24.212,-10.981Z" style="fill-rule:nonzero;"/><path d="M67.455,42.701c-11.672,0 -21.414,-3.746 -23.702,-8.732c-0.334,0.726 -0.51,1.478 -0.51,2.249l0,2.382c0,6.065 10.84,10.981 24.212,10.981c13.372,0 24.212,-4.916 24.212,-10.981l-0,-2.382c-0,-0.771 -0.176,-1.523 -0.51,-2.249c-2.288,4.986 -12.03,8.732 -23.702,8.732Z" style="fill-rule:nonzero;"/><path d="M67.455,54.961c-11.672,0 -21.414,-3.746 -23.702,-8.732c-0.334,0.726 -0.51,1.478 -0.51,2.249l0,2.382c0,6.065 10.84,10.981 24.212,10.981c13.372,0 24.212,-4.916 24.212,-10.981l-0,-2.382c-0,-0.771 -0.176,-1.523 -0.51,-2.249c-2.288,4.986 -12.03,8.732 -23.702,8.732Z" style="fill-rule:nonzero;"/><path d="M67.455,67.883c-11.672,0 -21.414,-3.746 -23.702,-8.732c-0.334,0.726 -0.51,1.478 -0.51,2.249l0,2.382c0,6.065 10.84,10.981 24.212,10.981c13.372,0 24.212,-4.916 24.212,-10.981l-0,-2.382c-0,-0.771 -0.176,-1.523 -0.51,-2.249c-2.288,4.986 -12.03,8.732 -23.702,8.732Z" style="fill-rule:nonzero;"/><path d="M67.455,80.143c-11.672,0 -21.414,-3.746 -23.702,-8.732c-0.334,0.726 -0.51,1.479 -0.51,2.249l0,2.382c0,6.065 10.84,10.981 24.212,10.981c13.372,-0 24.212,-4.916 24.212,-10.981l-0,-2.382c-0,-0.771 -0.176,-1.523 -0.51,-2.249c-2.288,4.986 -12.03,8.732 -23.702,8.732Z" style="fill-rule:nonzero;"/></g></g></g></g></svg>