<?xml version="1.0" encoding="UTF-8" standalone="no"?><!DOCTYPE svg PUBLIC "-//W3C//DTD SVG 1.1//EN" "http://www.w3.org/Graphics/SVG/1.1/DTD/svg11.dtd"><svg width="100%" height="100%" viewBox="0 0 24 24" version="1.1" xmlns="http://www.w3.org/2000/svg" xmlns:xlink="http://www.w3.org/1999/xlink" xml:space="preserve" xmlns:serif="http://www.serif.com/" style="fill-rule:evenodd;clip-rule:evenodd;stroke-linejoin:round;stroke-miterlimit:2;"><g transform="matrix(1,0,0,1,-866,-8)"><g transform="matrix(1.5,0,0,1.5,547.809,-328)"><g transform="matrix(0.0332004,0,0,0.0332005,220.127,232)"><g transform="matrix(1,0,0,1,-200.8,-200.8)"><clipPath id="_clip1"><rect x="0" y="0" width="401.601" height="401.6"/></clipPath><g clip-path="url(#_clip1)"><g><g><path d="M116.682,229.329c11.286,0 22.195,-0.729 32.518,-2.086l0,-113.149c-10.322,-1.356 -21.232,-2.085 -32.518,-2.085c-64.441,0 -116.681,23.693 -116.681,52.921l0,11.477c0,29.227 52.24,52.922 116.681,52.922Z" style="fill-rule:nonzero;"/><path d="M116.682,288.411c11.286,0 22.195,-0.729 32.518,-2.084l0,-33.166c-10.325,1.356 -21.229,2.095 -32.518,2.095c-56.25,0 -103.199,-18.054 -114.227,-42.082c-1.606,3.5 -2.454,7.124 -2.454,10.839l0,11.477c0,29.228 52.24,52.921 116.681,52.921Z" style="fill-rule:nonzero;"/><path d="M149.199,326.299l0,-14.054c-10.325,1.356 -21.229,2.095 -32.518,2.095c-56.25,-0 -103.199,-18.054 -114.227,-42.082c-1.606,3.499 -2.454,7.123 -2.454,10.838l-0,11.477c-0,29.229 52.24,52.922 116.681,52.922c12.887,-0 25.282,-0.95 36.873,-2.7c-2.873,-5.877 -4.355,-12.075 -4.355,-18.496Z" style="fill-rule:nonzero;"/><path d="M284.92,22.379c-64.441,0 -116.681,23.693 -116.681,52.921l0,11.477c0,29.228 52.24,52.921 116.681,52.921c64.44,0 116.681,-23.693 116.681,-52.921l0,-11.477c0,-29.228 -52.241,-52.921 -116.681,-52.921Z" style="fill-rule:nonzero;"/><path d="M284.92,165.626c-56.25,0 -103.199,-18.053 -114.227,-42.082c-1.606,3.499 -2.454,7.123 -2.454,10.839l0,11.477c0,29.228 52.24,52.921 116.681,52.921c64.44,0 116.681,-23.693 116.681,-52.921l0,-11.477c0,-3.716 -0.848,-7.34 -2.454,-10.839c-11.028,24.029 -57.977,42.082 -114.227,42.082Z" style="fill-rule:nonzero;"/><path d="M284.92,224.71c-56.25,0 -103.199,-18.054 -114.227,-42.082c-1.606,3.499 -2.454,7.123 -2.454,10.839l0,11.477c0,29.229 52.24,52.922 116.681,52.922c64.44,-0 116.681,-23.693 116.681,-52.922l0,-11.477c0,-3.716 -0.848,-7.34 -2.454,-10.839c-11.028,24.029 -57.977,42.082 -114.227,42.082Z" style="fill-rule:nonzero;"/><path d="M284.92,286.983c-56.25,0 -103.199,-18.054 -114.227,-42.082c-1.606,3.5 -2.454,7.123 -2.454,10.838l0,11.478c0,29.228 52.24,52.921 116.681,52.921c64.44,0 116.681,-23.693 116.681,-52.921l0,-11.478c0,-3.715 -0.848,-7.34 -2.454,-10.838c-11.028,24.027 -57.977,42.082 -114.227,42.082Z" style="fill-rule:nonzero;"/><path d="M284.92,346.066c-56.25,-0 -103.199,-18.053 -114.227,-42.081c-1.606,3.5 -2.454,7.125 -2.454,10.838l0,11.477c0,29.228 52.24,52.921 116.681,52.921c64.44,0 116.681,-23.693 116.681,-52.921l0,-11.478c0,-3.715 -0.848,-7.34 -2.454,-10.838c-11.028,24.028 -57.977,42.082 -114.227,42.082Z" style="fill-rule:nonzero;"/></g></g></g></g></g></g></g></svg>