<?xml version="1.0" encoding="UTF-8" standalone="no"?><!DOCTYPE svg PUBLIC "-//W3C//DTD SVG 1.1//EN" "http://www.w3.org/Graphics/SVG/1.1/DTD/svg11.dtd"><svg width="100%" height="100%" viewBox="0 0 24 24" version="1.1" xmlns="http://www.w3.org/2000/svg" xmlns:xlink="http://www.w3.org/1999/xlink" xml:space="preserve" xmlns:serif="http://www.serif.com/" style="fill-rule:evenodd;clip-rule:evenodd;stroke-linejoin:round;stroke-miterlimit:2;"><g><clipPath id="_clip1"><rect x="2" y="2" width="20" height="20"/></clipPath><g clip-path="url(#_clip1)"><g><g><path d="M7.811,13.421c0.562,-0 1.105,-0.037 1.619,-0.104l0,-5.635c-0.514,-0.068 -1.057,-0.104 -1.619,-0.104c-3.209,0 -5.811,1.18 -5.811,2.636l0,0.571c0,1.456 2.602,2.636 5.811,2.636Z" style="fill-rule:nonzero;"/><path d="M7.811,16.363c0.562,0 1.105,-0.036 1.619,-0.104l0,-1.651c-0.514,0.067 -1.057,0.104 -1.619,0.104c-2.801,-0 -5.14,-0.899 -5.689,-2.096c-0.08,0.175 -0.122,0.355 -0.122,0.54l0,0.572c0,1.455 2.602,2.635 5.811,2.635Z" style="fill-rule:nonzero;"/><path d="M9.43,18.25l0,-0.7c-0.514,0.068 -1.057,0.104 -1.619,0.104c-2.801,0 -5.14,-0.899 -5.689,-2.095c-0.08,0.174 -0.122,0.354 -0.122,0.539l0,0.572c0,1.456 2.602,2.636 5.811,2.636c0.642,-0 1.259,-0.048 1.836,-0.135c-0.143,-0.293 -0.217,-0.601 -0.217,-0.921Z" style="fill-rule:nonzero;"/><path d="M16.189,3.114c-3.209,0 -5.811,1.18 -5.811,2.636l0,0.572c0,1.455 2.602,2.635 5.811,2.635c3.209,0 5.811,-1.18 5.811,-2.635l0,-0.572c0,-1.456 -2.602,-2.636 -5.811,-2.636Z" style="fill-rule:nonzero;"/><path d="M16.189,10.248c-2.801,0 -5.139,-0.899 -5.688,-2.095c-0.08,0.174 -0.123,0.354 -0.123,0.539l0,0.572c0,1.456 2.602,2.635 5.811,2.635c3.209,0 5.811,-1.179 5.811,-2.635l0,-0.572c0,-0.185 -0.042,-0.365 -0.122,-0.539c-0.549,1.196 -2.888,2.095 -5.689,2.095Z" style="fill-rule:nonzero;"/><path d="M16.189,13.191c-2.801,-0 -5.139,-0.899 -5.688,-2.096c-0.08,0.174 -0.123,0.355 -0.123,0.54l0,0.571c0,1.456 2.602,2.636 5.811,2.636c3.209,-0 5.811,-1.18 5.811,-2.636l0,-0.571c0,-0.185 -0.042,-0.366 -0.122,-0.54c-0.549,1.197 -2.888,2.096 -5.689,2.096Z" style="fill-rule:nonzero;"/><path d="M16.189,16.292c-2.801,-0 -5.139,-0.899 -5.688,-2.096c-0.08,0.175 -0.123,0.355 -0.123,0.54l0,0.572c0,1.455 2.602,2.635 5.811,2.635c3.209,0 5.811,-1.18 5.811,-2.635l0,-0.572c0,-0.185 -0.042,-0.366 -0.122,-0.54c-0.549,1.197 -2.888,2.096 -5.689,2.096Z" style="fill-rule:nonzero;"/><path d="M16.189,19.234c-2.801,0 -5.139,-0.899 -5.688,-2.095c-0.08,0.174 -0.123,0.355 -0.123,0.539l0,0.572c0,1.456 2.602,2.636 5.811,2.636c3.209,-0 5.811,-1.18 5.811,-2.636l0,-0.572c0,-0.185 -0.042,-0.365 -0.122,-0.539c-0.549,1.196 -2.888,2.095 -5.689,2.095Z" style="fill-rule:nonzero;"/></g></g></g></g></svg>