<?xml version="1.0" encoding="UTF-8" standalone="no"?><!DOCTYPE svg PUBLIC "-//W3C//DTD SVG 1.1//EN" "http://www.w3.org/Graphics/SVG/1.1/DTD/svg11.dtd"><svg width="100%" height="100%" viewBox="0 0 24 24" version="1.1" xmlns="http://www.w3.org/2000/svg" xmlns:xlink="http://www.w3.org/1999/xlink" xml:space="preserve" xmlns:serif="http://www.serif.com/" style="fill-rule:evenodd;clip-rule:evenodd;stroke-linejoin:round;stroke-miterlimit:2;"><g><clipPath id="_clip1"><rect x="2" y="2" width="20" height="20"/></clipPath><g clip-path="url(#_clip1)"><g id="shape-55228770-8eaf-11ec-9ee1-17f27e687494"><g id="shape-5522fca0-8eaf-11ec-9ee1-17f27e687494"><g id="shape-5525bbc0-8eaf-11ec-9ee1-17f27e687494"><path d="M11.984,2c-0.325,-0 -0.65,0.067 -0.901,0.2l-8.038,4.248c-0.503,0.266 -0.503,0.687 0,0.953l8.038,4.248c0.503,0.267 1.3,0.267 1.803,0l8.037,-4.248c0.504,-0.266 0.504,-0.687 0,-0.953l-8.037,-4.248c-0.252,-0.134 -0.577,-0.2 -0.902,-0.2Zm0.098,0.597c0.42,0.01 0.818,0.105 1.115,0.266c0.647,0.357 0.642,0.93 -0.011,1.284c-0.652,0.353 -1.708,0.356 -2.366,0.006c-0.49,-0.266 -0.629,-0.668 -0.35,-1.012c0.279,-0.344 0.92,-0.56 1.612,-0.544Zm3.075,1.693c0.675,0.005 1.279,0.229 1.533,0.569c0.254,0.339 0.109,0.728 -0.369,0.987c-0.656,0.356 -1.721,0.356 -2.378,0c-0.656,-0.356 -0.656,-0.933 0,-1.289c0.322,-0.174 0.759,-0.271 1.214,-0.267Zm-9.345,1.682c-0,-0 -0,-0 -0,-0Zm-0,-0c0.42,0.01 0.818,0.105 1.115,0.266c0.657,0.356 0.657,0.933 -0,1.289c-0.657,0.356 -1.721,0.356 -2.378,0c-0.49,-0.266 -0.629,-0.668 -0.35,-1.012c0.28,-0.344 0.92,-0.56 1.613,-0.543Zm12.518,0.012c-0,0 -0,0 -0,0Zm-0,0c0.42,0.01 0.818,0.105 1.115,0.266c0.652,0.357 0.649,0.932 -0.005,1.287c-0.655,0.355 -1.716,0.356 -2.373,0.003c-0.49,-0.266 -0.629,-0.668 -0.35,-1.012c0.28,-0.344 0.92,-0.56 1.613,-0.544Zm-9.421,1.693c0.676,0.006 1.28,0.23 1.534,0.569c0.253,0.339 0.108,0.728 -0.369,0.987c-0.424,0.234 -1.046,0.327 -1.63,0.243c-0.585,-0.084 -1.041,-0.331 -1.195,-0.648c-0.155,-0.317 0.016,-0.654 0.447,-0.884c0.321,-0.174 0.759,-0.27 1.213,-0.267Zm-6.401,0.529c-0.302,-0.008 -0.508,0.208 -0.508,0.59l0,7.582c0,0.532 0.398,1.162 0.902,1.428l7.731,4.079c0.504,0.266 0.902,0.056 0.902,-0.476l-0,-7.582c-0,-0.531 -0.398,-1.161 -0.902,-1.427l-7.731,-4.079c-0.142,-0.075 -0.275,-0.112 -0.394,-0.115Zm18.984,-0c-0.119,0.003 -0.252,0.04 -0.394,0.115l-7.731,4.079c-0.504,0.266 -0.902,0.896 -0.902,1.427l0,7.583c0,0.531 0.398,0.741 0.902,0.475l7.731,-4.079c0.504,-0.266 0.902,-0.896 0.902,-1.428l-0,-7.582c-0,-0.381 -0.206,-0.597 -0.508,-0.59Zm-18.266,1.054c0.366,-0.023 0.819,0.215 1.186,0.624c0.368,0.409 0.594,0.926 0.593,1.356c0,0.43 -0.225,0.709 -0.592,0.73c-0.366,0.022 -0.818,-0.216 -1.184,-0.625c-0.367,-0.408 -0.592,-0.924 -0.592,-1.354c-0.001,-0.429 0.223,-0.708 0.589,-0.731Zm17.549,0c0.365,0.023 0.589,0.302 0.588,0.731c-0.001,0.664 -0.531,1.481 -1.184,1.825c-0.653,0.345 -1.183,0.087 -1.184,-0.576c-0.001,-0.43 0.225,-0.947 0.593,-1.356c0.367,-0.409 0.82,-0.647 1.187,-0.624Zm-8.693,0.111c0.42,0.01 0.818,0.105 1.115,0.267c0.647,0.357 0.642,0.929 -0.011,1.283c-0.652,0.353 -1.708,0.356 -2.366,0.006c-0.491,-0.266 -0.63,-0.668 -0.35,-1.012c0.279,-0.344 0.919,-0.56 1.612,-0.544Zm-2.963,2.998c0.366,-0.023 0.819,0.215 1.186,0.624c0.368,0.409 0.594,0.926 0.593,1.356c0.001,0.43 -0.225,0.709 -0.592,0.73c-0.366,0.022 -0.818,-0.216 -1.184,-0.625c-0.367,-0.408 -0.592,-0.924 -0.592,-1.354c-0.001,-0.429 0.224,-0.708 0.589,-0.731Zm5.762,0c0.365,0.023 0.59,0.302 0.589,0.731c-0.001,0.664 -0.531,1.481 -1.184,1.825c-0.653,0.345 -1.183,0.087 -1.184,-0.576c-0.001,-0.43 0.225,-0.947 0.593,-1.356c0.367,-0.409 0.82,-0.647 1.186,-0.624Zm-8.709,1.378c0.367,-0.023 0.819,0.215 1.187,0.624c0.367,0.409 0.593,0.926 0.592,1.356c-0,0.663 -0.53,0.921 -1.183,0.576c-0.654,-0.344 -1.184,-1.161 -1.184,-1.825c-0.001,-0.429 0.223,-0.707 0.588,-0.731Zm-2.946,1.413c0.366,-0.023 0.819,0.215 1.186,0.624c0.368,0.408 0.594,0.926 0.593,1.356c0,0.43 -0.225,0.708 -0.592,0.73c-0.366,0.022 -0.818,-0.216 -1.184,-0.625c-0.367,-0.408 -0.592,-0.924 -0.592,-1.354c-0.001,-0.429 0.224,-0.708 0.589,-0.731Zm17.549,0c0.365,0.023 0.589,0.302 0.588,0.731c-0.001,0.664 -0.531,1.48 -1.184,1.825c-0.653,0.345 -1.183,0.087 -1.184,-0.576c-0.001,-0.43 0.225,-0.948 0.593,-1.356c0.367,-0.409 0.82,-0.647 1.187,-0.624Zm-11.656,3.109c0.366,-0.023 0.819,0.215 1.187,0.623c0.367,0.409 0.593,0.927 0.592,1.357c0.001,0.43 -0.225,0.708 -0.591,0.73c-0.367,0.022 -0.819,-0.217 -1.185,-0.625c-0.367,-0.408 -0.592,-0.925 -0.592,-1.354c-0.001,-0.429 0.224,-0.708 0.589,-0.731Zm5.762,-0c0.365,0.023 0.59,0.302 0.589,0.731c-0.001,0.664 -0.531,1.48 -1.184,1.825c-0.653,0.345 -1.183,0.087 -1.184,-0.576c-0.001,-0.43 0.225,-0.948 0.593,-1.357c0.367,-0.408 0.82,-0.646 1.186,-0.623Z" style="fill-rule:nonzero;"/></g></g></g></g></g></svg>