<?xml version="1.0" encoding="UTF-8" standalone="no"?><!DOCTYPE svg PUBLIC "-//W3C//DTD SVG 1.1//EN" "http://www.w3.org/Graphics/SVG/1.1/DTD/svg11.dtd"><svg width="100%" height="100%" viewBox="0 0 24 24" version="1.1" xmlns="http://www.w3.org/2000/svg" xmlns:xlink="http://www.w3.org/1999/xlink" xml:space="preserve" xmlns:serif="http://www.serif.com/" style="fill-rule:evenodd;clip-rule:evenodd;stroke-linejoin:round;stroke-miterlimit:2;"><g transform="matrix(1,0,0,1,-898,-8)"><g transform="matrix(1.5,0,0,1.5,580.853,-394.578)"><g transform="matrix(0.364815,0,0,0.333348,219.431,276.385)"><g transform="matrix(1,0,0,1,-18.2741,-19.9991)"><clipPath id="_clip1"><rect x="0" y="0" width="36.548" height="39.998"/></clipPath><g clip-path="url(#_clip1)"><g id="shape-55228770-8eaf-11ec-9ee1-17f27e687494"><g id="shape-5522fca0-8eaf-11ec-9ee1-17f27e687494"><g id="shape-5525bbc0-8eaf-11ec-9ee1-17f27e687494"><path d="M18.246,0c-0.594,0 -1.188,0.133 -1.648,0.399l-14.688,8.496c-0.92,0.533 -0.92,1.374 -0,1.907l14.688,8.496c0.92,0.532 2.375,0.532 3.295,-0l14.688,-8.496c0.92,-0.532 0.92,-1.374 -0,-1.907l-14.688,-8.496c-0.46,-0.266 -1.054,-0.399 -1.647,-0.399Zm0.178,1.195c0.768,0.02 1.495,0.209 2.038,0.532c1.181,0.714 1.172,1.859 -0.02,2.566c-1.192,0.707 -3.122,0.713 -4.325,0.012c-0.895,-0.532 -1.149,-1.335 -0.639,-2.023c0.51,-0.689 1.68,-1.12 2.946,-1.087Zm5.619,3.385c1.234,0.011 2.338,0.459 2.802,1.137c0.464,0.679 0.198,1.457 -0.674,1.975c-1.2,0.712 -3.146,0.712 -4.345,-0c-1.2,-0.712 -1.2,-1.866 -0.001,-2.578c0.588,-0.349 1.387,-0.541 2.218,-0.534Zm-17.078,3.363c0.001,0 0.001,0 0,0Zm0,0c0.768,0.02 1.495,0.21 2.039,0.533c1.199,0.712 1.199,1.866 -0,2.578c-1.2,0.712 -3.146,0.712 -4.346,-0c-0.895,-0.532 -1.149,-1.335 -0.639,-2.024c0.51,-0.688 1.68,-1.12 2.946,-1.087Zm22.876,0.025c-0,0 -0,0 -0,0Zm-0,0c0.768,0.02 1.495,0.21 2.038,0.533c1.191,0.712 1.186,1.862 -0.01,2.572c-1.196,0.71 -3.134,0.712 -4.335,0.006c-0.896,-0.532 -1.15,-1.336 -0.64,-2.024c0.511,-0.688 1.681,-1.119 2.947,-1.087Zm-17.215,3.386c1.235,0.011 2.338,0.459 2.802,1.137c0.464,0.679 0.199,1.457 -0.674,1.975c-0.774,0.467 -1.911,0.653 -2.979,0.485c-1.067,-0.168 -1.901,-0.662 -2.184,-1.296c-0.282,-0.634 0.03,-1.308 0.818,-1.767c0.587,-0.349 1.387,-0.541 2.217,-0.534Zm-11.697,1.057c-0.553,-0.015 -0.929,0.417 -0.929,1.181l-0,15.163c-0,1.063 0.728,2.323 1.648,2.855l14.128,8.158c0.92,0.532 1.648,0.111 1.648,-0.951l0,-15.164c0,-1.062 -0.728,-2.323 -1.648,-2.854l-14.128,-8.159c-0.259,-0.149 -0.502,-0.223 -0.719,-0.229Zm34.69,0c-0.216,0.006 -0.46,0.08 -0.719,0.23l-14.128,8.158c-0.92,0.531 -1.648,1.792 -1.648,2.855l-0,15.163c-0,1.063 0.728,1.483 1.648,0.951l14.128,-8.158c0.921,-0.531 1.648,-1.792 1.648,-2.854l0,-15.164c0,-0.764 -0.376,-1.195 -0.929,-1.181Zm-33.379,2.109c0.669,-0.047 1.497,0.429 2.168,1.247c0.672,0.818 1.085,1.852 1.083,2.713c0.001,0.86 -0.411,1.416 -1.081,1.46c-0.67,0.043 -1.495,-0.433 -2.165,-1.25c-0.669,-0.817 -1.082,-1.849 -1.081,-2.708c-0.001,-0.859 0.408,-1.416 1.076,-1.462Zm32.069,-0c0.667,0.046 1.077,0.603 1.075,1.462c-0.001,1.327 -0.97,2.96 -2.163,3.65c-1.194,0.689 -2.162,0.173 -2.164,-1.152c-0.002,-0.861 0.412,-1.895 1.083,-2.713c0.672,-0.818 1.499,-1.294 2.169,-1.247Zm-15.885,0.222c0.768,0.02 1.495,0.21 2.038,0.533c1.181,0.713 1.172,1.858 -0.02,2.566c-1.192,0.707 -3.122,0.712 -4.325,0.012c-0.896,-0.532 -1.15,-1.336 -0.639,-2.024c0.51,-0.688 1.68,-1.12 2.946,-1.087Zm-5.415,5.996c0.67,-0.047 1.497,0.429 2.168,1.246c0.672,0.818 1.085,1.853 1.083,2.713c0.001,0.86 -0.411,1.417 -1.081,1.46c-0.669,0.044 -1.495,-0.433 -2.165,-1.249c-0.669,-0.817 -1.081,-1.85 -1.081,-2.709c-0.001,-0.858 0.409,-1.415 1.076,-1.461Zm10.53,-0c0.668,0.046 1.077,0.603 1.076,1.461c-0.002,1.328 -0.97,2.961 -2.164,3.65c-1.193,0.69 -2.162,0.174 -2.163,-1.152c-0.002,-0.86 0.411,-1.895 1.083,-2.713c0.671,-0.817 1.499,-1.293 2.168,-1.246Zm-15.915,2.756c0.67,-0.047 1.497,0.429 2.169,1.247c0.671,0.818 1.084,1.852 1.083,2.713c-0.002,1.325 -0.97,1.841 -2.164,1.152c-1.194,-0.69 -2.162,-2.323 -2.163,-3.65c-0.002,-0.859 0.408,-1.416 1.075,-1.462Zm-5.384,2.825c0.67,-0.047 1.497,0.429 2.168,1.247c0.672,0.818 1.085,1.853 1.083,2.713c0.001,0.86 -0.411,1.417 -1.081,1.46c-0.669,0.043 -1.495,-0.433 -2.165,-1.25c-0.669,-0.817 -1.082,-1.849 -1.081,-2.708c-0.001,-0.859 0.409,-1.416 1.076,-1.462Zm32.069,-0c0.667,0.046 1.077,0.603 1.075,1.462c-0.001,1.327 -0.97,2.961 -2.163,3.65c-1.194,0.689 -2.162,0.174 -2.164,-1.152c-0.002,-0.86 0.412,-1.895 1.083,-2.713c0.672,-0.818 1.499,-1.294 2.169,-1.247Zm-21.3,6.217c0.67,-0.046 1.497,0.43 2.169,1.247c0.671,0.818 1.084,1.853 1.083,2.713c0,0.86 -0.412,1.417 -1.081,1.46c-0.67,0.044 -1.496,-0.433 -2.165,-1.249c-0.67,-0.817 -1.082,-1.85 -1.081,-2.709c-0.002,-0.858 0.408,-1.415 1.075,-1.462Zm10.531,0c0.667,0.047 1.076,0.604 1.075,1.462c-0.002,1.328 -0.97,2.961 -2.164,3.65c-1.193,0.69 -2.162,0.174 -2.163,-1.152c-0.002,-0.86 0.411,-1.895 1.083,-2.713c0.671,-0.817 1.499,-1.293 2.169,-1.247Z" style="fill-rule:nonzero;"/></g></g></g></g></g></g></g></g></svg>