<?xml version="1.0" encoding="UTF-8" standalone="no"?><!DOCTYPE svg PUBLIC "-//W3C//DTD SVG 1.1//EN" "http://www.w3.org/Graphics/SVG/1.1/DTD/svg11.dtd"><svg width="100%" height="100%" viewBox="0 0 100 100" version="1.1" xmlns="http://www.w3.org/2000/svg" xmlns:xlink="http://www.w3.org/1999/xlink" xml:space="preserve" xmlns:serif="http://www.serif.com/" style="fill-rule:evenodd;clip-rule:evenodd;stroke-linejoin:round;stroke-miterlimit:2;"><g><clipPath id="_clip1"><rect x="8.333" y="8.333" width="83.333" height="83.333"/></clipPath><g clip-path="url(#_clip1)"><g id="shape-55228770-8eaf-11ec-9ee1-17f27e687494"><g id="shape-5522fca0-8eaf-11ec-9ee1-17f27e687494"><g id="shape-5525bbc0-8eaf-11ec-9ee1-17f27e687494"><path d="M49.935,8.333c-1.354,0 -2.708,0.278 -3.757,0.832l-33.49,17.701c-2.098,1.109 -2.098,2.863 0,3.972l33.49,17.701c2.098,1.109 5.416,1.109 7.514,0l33.489,-17.701c2.098,-1.109 2.098,-2.863 0,-3.972l-33.489,-17.701c-1.049,-0.555 -2.403,-0.832 -3.757,-0.832Zm0.408,2.489c1.75,0.042 3.408,0.437 4.646,1.109c2.693,1.487 2.672,3.873 -0.045,5.347c-2.718,1.473 -7.119,1.484 -9.861,0.024c-2.043,-1.107 -2.622,-2.781 -1.458,-4.215c1.164,-1.434 3.831,-2.333 6.718,-2.265Zm12.81,7.053c2.814,0.023 5.331,0.956 6.389,2.37c1.058,1.414 0.453,3.034 -1.537,4.113c-2.736,1.484 -7.172,1.484 -9.907,0.001c-2.736,-1.484 -2.736,-3.889 -0.001,-5.372c1.339,-0.726 3.163,-1.127 5.056,-1.112Zm-38.938,7.008c0,-0 0.001,-0 0,-0Zm0,-0c1.751,0.041 3.409,0.437 4.648,1.109c2.735,1.483 2.735,3.888 -0.001,5.371c-2.736,1.483 -7.171,1.483 -9.907,0c-2.043,-1.108 -2.622,-2.782 -1.458,-4.216c1.164,-1.433 3.832,-2.333 6.718,-2.264Zm52.158,0.052c0,-0 0,-0 0,-0Zm0,-0c1.751,0.041 3.409,0.437 4.647,1.109c2.715,1.485 2.706,3.881 -0.022,5.359c-2.727,1.479 -7.146,1.484 -9.885,0.012c-2.043,-1.108 -2.622,-2.782 -1.458,-4.216c1.164,-1.433 3.832,-2.333 6.718,-2.264Zm-39.25,7.053c2.814,0.023 5.33,0.956 6.388,2.37c1.058,1.414 0.452,3.034 -1.537,4.114c-1.764,0.974 -4.357,1.36 -6.792,1.011c-2.434,-0.35 -4.335,-1.381 -4.98,-2.7c-0.644,-1.32 0.068,-2.726 1.865,-3.683c1.339,-0.726 3.163,-1.127 5.056,-1.112Zm-26.671,2.203c-1.261,-0.031 -2.119,0.869 -2.119,2.46l0,31.591c0,2.214 1.66,4.841 3.758,5.948l32.213,16.998c2.098,1.107 3.758,0.231 3.758,-1.983l-0,-31.591c-0,-2.214 -1.66,-4.84 -3.758,-5.948l-32.213,-16.997c-0.59,-0.312 -1.145,-0.466 -1.639,-0.478Zm79.096,0c-0.493,0.012 -1.049,0.167 -1.639,0.478l-32.214,16.998c-2.098,1.107 -3.757,3.733 -3.757,5.947l-0,31.592c-0,2.214 1.659,3.089 3.757,1.982l32.215,-16.997c2.098,-1.107 3.757,-3.733 3.757,-5.948l-0,-31.591c-0,-1.592 -0.858,-2.491 -2.119,-2.461Zm-76.108,4.393c1.527,-0.097 3.413,0.895 4.944,2.598c1.532,1.704 2.474,3.86 2.47,5.652c0.002,1.792 -0.938,2.952 -2.465,3.042c-1.527,0.091 -3.409,-0.902 -4.936,-2.604c-1.527,-1.701 -2.467,-3.853 -2.465,-5.642c-0.004,-1.789 0.931,-2.949 2.452,-3.046Zm73.121,0c1.521,0.097 2.455,1.257 2.451,3.046c-0.003,2.765 -2.21,6.168 -4.932,7.604c-2.723,1.436 -4.93,0.362 -4.933,-2.4c-0.004,-1.792 0.938,-3.948 2.469,-5.652c1.531,-1.703 3.417,-2.695 4.945,-2.598Zm-36.218,0.464c1.75,0.041 3.407,0.437 4.646,1.109c2.693,1.487 2.672,3.873 -0.046,5.346c-2.718,1.474 -7.118,1.485 -9.861,0.025c-2.043,-1.108 -2.622,-2.782 -1.458,-4.216c1.164,-1.433 3.832,-2.333 6.719,-2.264Zm-12.349,12.49c1.528,-0.096 3.414,0.895 4.945,2.598c1.531,1.704 2.473,3.86 2.47,5.653c0.002,1.791 -0.938,2.951 -2.465,3.041c-1.527,0.091 -3.409,-0.902 -4.937,-2.604c-1.527,-1.701 -2.466,-3.852 -2.464,-5.642c-0.004,-1.789 0.93,-2.949 2.451,-3.046Zm24.011,0c1.522,0.097 2.456,1.257 2.452,3.046c-0.003,2.765 -2.21,6.169 -4.932,7.605c-2.722,1.436 -4.93,0.361 -4.933,-2.4c-0.004,-1.793 0.938,-3.949 2.469,-5.653c1.531,-1.703 3.417,-2.694 4.944,-2.598Zm-36.288,5.743c1.527,-0.097 3.414,0.894 4.945,2.598c1.531,1.704 2.473,3.86 2.469,5.652c-0.003,2.762 -2.211,3.836 -4.933,2.4c-2.722,-1.436 -4.929,-4.839 -4.933,-7.604c-0.003,-1.789 0.931,-2.95 2.452,-3.046Zm-12.277,5.886c1.527,-0.097 3.414,0.894 4.945,2.598c1.531,1.704 2.473,3.86 2.469,5.652c0.002,1.792 -0.938,2.952 -2.465,3.042c-1.527,0.09 -3.409,-0.902 -4.936,-2.604c-1.527,-1.702 -2.467,-3.853 -2.465,-5.642c-0.003,-1.789 0.931,-2.95 2.452,-3.046Zm73.121,-0c1.521,0.096 2.455,1.257 2.451,3.046c-0.003,2.765 -2.21,6.168 -4.932,7.604c-2.723,1.436 -4.93,0.362 -4.933,-2.4c-0.004,-1.792 0.938,-3.948 2.469,-5.652c1.531,-1.704 3.417,-2.695 4.945,-2.598Zm-48.566,12.954c1.527,-0.097 3.413,0.894 4.945,2.598c1.531,1.703 2.473,3.86 2.469,5.652c0.002,1.792 -0.938,2.951 -2.465,3.042c-1.527,0.09 -3.409,-0.903 -4.936,-2.604c-1.527,-1.702 -2.467,-3.853 -2.465,-5.643c-0.003,-1.788 0.931,-2.949 2.452,-3.045Zm24.011,-0c1.521,0.096 2.455,1.257 2.451,3.045c-0.003,2.766 -2.21,6.169 -4.932,7.605c-2.722,1.436 -4.93,0.362 -4.933,-2.4c-0.004,-1.792 0.938,-3.949 2.469,-5.652c1.531,-1.704 3.417,-2.695 4.945,-2.598Z" style="fill-rule:nonzero;"/></g></g></g></g></g></svg>