<svg id="screenshot" viewBox="598.000576923077 305.41021227045854 36.548173076923035 39.99819933111496" width="36.548173076923035" height="39.99819933111496" version="1.1" xmlns="http://www.w3.org/2000/svg" xmlns:xlink="http://www.w3.org/1999/xlink" style="-webkit-print-color-adjust: exact;"><g id="shape-55228770-8eaf-11ec-9ee1-17f27e687494" style="height: 512px; width: 512px;"><g id="shape-5522fca0-8eaf-11ec-9ee1-17f27e687494" class=""><g id="shape-5525bbc0-8eaf-11ec-9ee1-17f27e687494"><path d="M616.2461538461539,305.41021227045854C615.6523076923077,305.41021227045854,615.0583653846154,305.5432891935355,614.5983653846154,305.8094430396893L599.910576923077,314.30559688584316C598.9903846153846,314.8379045781508,598.9903846153846,315.67963534738163,599.910576923077,316.2119430396893L614.5983653846154,324.70809688584313C615.5185576923077,325.24040457815084,616.9736538461539,325.24040457815084,617.89375,324.70809688584313L632.5815384615385,316.2119430396893C633.5017307692308,315.67973150122776,633.5017307692308,314.8379045781508,632.5815384615385,314.3056930396893L617.89375,305.80953919353544C617.4336538461539,305.5431930396893,616.8399038461539,305.41021227045854,616.2461538461539,305.41021227045854ZZM616.425,306.6047315012278C617.1925669105136,306.6247327548014,617.9196502927823,306.81465129798534,618.4628846153846,307.1370391935355C619.6437780127056,307.85086594709514,619.6348174396301,308.99597653835843,618.4428037081914,309.70326562963095C617.2507899767527,310.4105547209035,615.3209522652073,310.4158426869081,614.1179807692308,309.71511611661236C613.2221431766027,309.1834194283635,612.9682627481614,308.37993441489033,613.478662833422,307.69179205252266C613.9890629186827,307.0036496901549,615.1590487562578,306.5720037570939,616.425,306.6047315012278ZZM622.0432692307693,309.99011611661234C623.2775672864506,310.0008232227596,624.3812117130532,310.4488256917922,624.8453325984678,311.12755792020045C625.3094534838824,311.80629014860864,625.0439157265632,312.5839382054692,624.1711538461539,313.1019430396893C622.9713273982829,313.8139246086801,621.0259714534101,313.8139560076452,619.8260797300998,313.1020131712407C618.6261880067896,312.39007033483625,618.6261350905907,311.235751531757,619.8259615384616,310.52376996276627C620.4131656776281,310.1754033059513,621.2130019262854,309.9829015201729,622.0432692307693,309.99011611661234ZZM604.9660576923077,313.35357765507393C604.9661217948642,313.3535776538835,604.9661858974208,313.3535776538835,604.9660576923077,313.35357765507393ZC605.7338282778187,313.3735390586997,606.4609470127987,313.56342356910847,607.0042307692308,313.88578919353546C608.2040572171018,314.59777076252624,608.2040043009029,315.75208956560544,607.0041125775925,316.46403240200993C605.8042208542822,317.1759752384144,603.8588649094094,317.1759438394493,602.6590384615386,316.4639622704585C601.7630781476007,315.9322756866987,601.5091200253604,315.1287430740165,602.0195369933883,314.4405566751433C602.5299539614161,313.7523702762701,603.700034847945,313.32071035897553,604.9660576923077,313.35357765507393ZZM627.8413461538462,313.3785776550739C627.8414102564027,313.3785776538835,627.8414743589592,313.3785776538835,627.8413461538462,313.3785776550739ZC628.6091167393572,313.39853905869967,629.3362354743371,313.58842356910844,629.8795192307692,313.91078919353544C631.0703033241548,314.6236796470719,631.0659493575603,315.77361400390515,629.869778915135,316.48332238855454C628.6736084727097,317.193030773204,626.735641177391,317.1955088455457,625.534326923077,316.4888661166124C624.6384737210169,315.95716231516957,624.384597844347,315.1536621083322,624.8950236120679,314.46551380222326C625.4054493797889,313.7773654961143,626.575473381488,313.345728646297,627.8413461538462,313.3785776550739ZZM610.626923076923,316.76415457815085C611.8610978304628,316.77496646329087,612.9645508324462,317.2229782067629,613.4285846313462,317.9016541140255C613.8926184302461,318.58033002128815,613.6271332974593,319.3578940984398,612.7545192307692,319.8758853473816C611.9808352388563,320.34356205171514,610.8436460994279,320.5288494409441,609.775954262261,320.3611964601321C608.7082624250942,320.19354347932006,607.8743733711915,319.6987499919622,607.5918033260102,319.06521631312614C607.309233280829,318.43168263429004,607.6214665209873,317.7569023030373,608.4096153846154,317.29780842430466C608.9968195237818,316.94944176748976,609.7966557724393,316.75693998171135,610.626923076923,316.76415457815085ZZM598.9298076923077,317.8213661166124C598.3766346153847,317.80646227045855,598.000576923077,318.2382891935355,598.000576923077,319.0021353473816L598.000576923077,334.16521227045854C598.000576923077,335.22790457815086,598.7284615384615,336.4885776550739,599.6486538461538,337.02001996276624L613.7765384615385,345.1784815012278C614.6967307692307,345.7098276550739,615.4246153846154,345.2896353473816,615.4246153846154,344.22703919353546L615.4246153846154,329.0636738089201C615.4246153846154,328.0009815012277,614.6967307692307,326.74059688584316,613.7765384615385,326.2090584243047L599.6486538461538,318.0506930396893C599.3900000000001,317.9011738089201,599.14625,317.8269430396893,598.9298076923077,317.8213661166124ZZM633.6195192307692,317.82155842430467C633.4031730769232,317.82732765507393,633.1596153846154,317.9013661166124,632.9008653846154,318.0508853473816L618.7725,326.209250731997C617.8523076923077,326.7406930396893,617.1244230769231,328.00136611661236,617.1244230769231,329.0640584243047L617.1244230769231,344.2275199627662C617.1244230769231,345.2900199627662,617.8523076923077,345.71001996276624,618.7725,345.1784815012278L632.9009615384616,337.0204045781508C633.821153846154,336.48896227045856,634.54875,335.2284815012278,634.54875,334.16578919353543L634.54875,319.0023276550739C634.54875,318.23867380892005,634.1727884615385,317.8069430396893,633.6195192307692,317.82155842430467ZZM600.2400961538463,319.9300199627662C600.9099894079675,319.8835508357918,601.7372752757874,320.3592309057599,602.408796417294,321.1769982240716C603.0803175588005,321.9947655423833,603.4934571000056,323.02965498036593,603.4918269230769,323.88992380892006C603.4927339838509,324.74993452731917,603.0805708651385,325.30661485530635,602.4108104489806,325.3499782825941C601.7410500328225,325.3933417098819,600.915613027745,324.91678941228383,600.2458641927385,324.1000826439903C599.5761153577319,323.2833758756967,599.1639736389618,322.25079688820307,599.164903846154,321.391846885843C599.1633049467351,320.5333370640507,599.5730199357413,319.97629029443345,600.2400961538463,319.9300199627662ZZM632.3093269230769,319.9300199627662C632.9764555948909,319.9762429114915,633.3862122240895,320.53329647795016,633.3846153846155,321.39184688584317C633.3832154758629,322.71914111626353,632.4150305987764,324.3526012197269,631.2211861759627,325.0418473998314C630.0273417531489,325.73109357993593,629.05912793938,325.2155809873265,629.0576923076924,323.8899238089203C629.0560621307636,323.02965498036593,629.4692016719687,321.9947655423833,630.1407228134753,321.1769982240716C630.8122439549819,320.3592309057599,631.6395298228018,319.8835508357918,632.3093269230769,319.9300199627662ZZM616.4249038461539,320.15251996276623C617.1924484708707,320.1724954412087,617.9195288465814,320.3623788931082,618.4627884615385,320.68473150122776C619.6436818588595,321.3985582547875,619.6347212857839,322.5436688460507,618.4427075543452,323.2509579373233C617.2506938229067,323.95824702859585,615.3208561113611,323.96353499460037,614.1178846153846,323.2628084243047C613.221924301447,322.73112184054486,612.9679661792065,321.9275892278626,613.4783831472345,321.23940282898945C613.9888001152624,320.55121643011626,615.1588810017911,320.1195565128217,616.4249038461539,320.15251996276623ZZM611.0092307692307,326.14771227045856C611.6791240233521,326.1012431434841,612.5064098911721,326.5769232134522,613.1779310326785,327.3946905317639C613.8494521741852,328.2124578500756,614.2625917153903,329.2473472880583,614.2609615384615,330.1076161166124C614.2618685992354,330.96762683501134,613.849705480523,331.52430716299847,613.179945064365,331.56767059028624C612.5101846482071,331.611034017574,611.6847476431298,331.134481719976,611.0149988081232,330.3177749516825C610.3452499731166,329.501068183389,609.9331082543465,328.4684891958954,609.9340384615384,327.60953919353534C609.9324395621197,326.751029371743,610.3421545511259,326.1939826021258,611.0092307692307,326.14771227045856ZZM621.54,326.14771227045856C622.2071811263451,326.1938878328395,622.6169793970636,326.7509481967284,622.6153846153846,327.60953919353545C622.6139847066322,328.9368334239559,621.6457998295457,330.57029352741944,620.4519554067318,331.25953970752397C619.2581109839181,331.94878588762845,618.2898971701491,331.433273295019,618.2884615384615,330.1076161166125C618.2868313615329,329.2473472880583,618.699970902738,328.2124578500756,619.3714920442445,327.3946905317639C620.0430131857511,326.5769232134522,620.8702990535711,326.1012431434841,621.54,326.14771227045856ZZM605.6246153846155,328.9040584243047C606.2945086387367,328.85758929733026,607.1217945065566,329.3332693672983,607.7933156480632,330.15103668561005C608.4648367895697,330.9688040039218,608.8779763307748,332.00369344190443,608.8763461538462,332.86396227045856C608.8749105221586,334.189619448865,607.9066967083897,334.7051320414746,606.712852285576,334.0158858613701C605.5190078627622,333.3266396812657,604.5508229856755,331.6931795778022,604.5494230769232,330.3658853473817C604.5478241775044,329.50737552558917,604.9575391665105,328.95032875597195,605.6246153846155,328.9040584243047ZZM600.2401923076923,331.7290584243047C600.9100989384534,331.68258827137805,601.7374033400171,332.15828813390834,602.4089301966421,332.97608226908034C603.0804570532671,333.79387640425233,603.4935843294049,334.82879036319144,603.4919230769231,335.6890584243047C603.492830137697,336.5490691427037,603.0806670189845,337.1057494706908,602.4109066028266,337.14911289797857C601.7411461866686,337.1924763252663,600.9157091815913,336.7159240276683,600.2459603465848,335.8992172593748C599.5762115115781,335.08251049108134,599.164069792808,334.04993150358774,599.165,333.19098150122767C599.163370199283,332.33241952398,599.5730893038065,331.7753305179725,600.2401923076923,331.7290584243047ZZM632.3094230769232,331.7290584243047C632.976526080809,331.7753305179725,633.3862451853324,332.33241952398,633.3846153846155,333.1909815012278C633.383215475863,334.5182757316482,632.4150305987764,336.15173583511177,631.2211861759627,336.84098201521624C630.0273417531489,337.5302281953208,629.0591279393799,337.01471560271125,629.0576923076924,335.6890584243048C629.0560310552105,334.82879036319144,629.4691583313484,333.79387640425233,630.1406851879733,332.97608226908034C630.8122120445984,332.15828813390834,631.639516446162,331.68258827137805,632.3094230769232,331.7290584243047ZZM611.0094230769231,337.94665457815086C611.6793163310443,337.9001854511764,612.5066021988644,338.3758655211445,613.1781233403709,339.1936328394562C613.8496444818775,340.0114001577679,614.2627840230825,341.0462895957506,614.2611538461539,341.9065584243047C614.2620609069278,342.7665691427037,613.8498977882153,343.32324947069077,613.1801373720574,343.36661289797854C612.5103769558995,343.4099763252663,611.6849399508221,342.9334240276683,611.0151911158155,342.1167172593748C610.3454422808088,341.3000104910813,609.9333005620389,340.2674315035877,609.9342307692308,339.40848150122764C609.9326318698121,338.5499716794353,610.3423468588182,337.9929249098181,611.0094230769231,337.94665457815086ZZM621.5401923076923,337.94665457815086C622.2072685257972,337.9929249098181,622.6169835148035,338.5499716794353,622.6153846153846,339.40848150122775C622.6139847066322,340.7357757316482,621.6457998295457,342.36923583511174,620.4519554067318,343.05848201521627C619.2581109839181,343.7477281953208,618.2898971701491,343.2322156027113,618.2884615384615,341.9065584243048C618.2868313615329,341.0462895957506,618.699970902738,340.0114001577679,619.3714920442445,339.1936328394562C620.0430131857511,338.3758655211445,620.8702990535711,337.9001854511764,621.5401923076923,337.94665457815086ZZ" style="fill: rgb(0, 0, 0); fill-opacity: 1;"/></g></g></g></svg>