<?xml version="1.0" encoding="UTF-8" standalone="no"?><!DOCTYPE svg PUBLIC "-//W3C//DTD SVG 1.1//EN" "http://www.w3.org/Graphics/SVG/1.1/DTD/svg11.dtd"><svg width="100%" height="100%" viewBox="0 0 24 24" version="1.1" xmlns="http://www.w3.org/2000/svg" xmlns:xlink="http://www.w3.org/1999/xlink" xml:space="preserve" xmlns:serif="http://www.serif.com/" style="fill-rule:evenodd;clip-rule:evenodd;stroke-linejoin:round;stroke-miterlimit:2;"><g transform="matrix(1,0,0,1,-930,-8)"><g transform="matrix(1.5,0,0,1.5,611.995,-455.418)"><g transform="matrix(0.0319972,0,0,0.0319972,220.004,316.945)"><g transform="matrix(1,0,0,1,-250.022,-250.022)"><g><g><path d="M491.445,206.857c-4.752,0 -8.605,4.857 -8.605,10.834l0,64.672c0,5.977 3.854,10.824 8.615,10.824c4.752,0 8.588,-4.848 8.588,-10.824l0,-64.682c0,-5.967 -3.846,-10.824 -8.598,-10.824Z" style="fill-rule:nonzero;"/><path d="M8.616,206.857c-4.752,0 -8.616,4.857 -8.616,10.834c0,16.601 0,48.071 0.01,64.653c0,5.977 3.854,10.824 8.606,10.844c4.753,0 8.597,-4.848 8.597,-10.824c0,-16.572 0,-48.081 0.01,-64.682c-0.001,-5.968 -3.854,-10.825 -8.607,-10.825Z" style="fill-rule:nonzero;"/><path d="M114.568,108.812c-15.854,0 -28.716,14.544 -28.716,32.474c0,54.354 0.01,163.137 0.02,217.471c0,17.93 12.842,32.473 28.697,32.473c15.855,0 28.716,-14.553 28.716,-32.473l0,-82.545l208.874,0l0,82.555c0,17.92 12.861,32.463 28.717,32.463c15.854,0 28.697,-14.553 28.697,-32.473l0,-217.471c0,-17.939 -12.844,-32.474 -28.697,-32.474c-15.855,0 -28.717,14.525 -28.717,32.474l0,82.543l-208.874,0l0,-82.553c0,-17.938 -12.852,-32.464 -28.717,-32.464Z" style="fill-rule:nonzero;"/><path d="M447.602,152.188l-2.811,-0c-11.945,-0 -21.641,9.668 -21.641,21.63l-0,152.406c-0,11.953 9.695,21.65 21.648,21.65l2.812,-0c11.953,-0 21.648,-9.668 21.648,-21.631c-0,-37.637 -0,-114.759 -0.008,-152.407c0.01,-11.961 -9.695,-21.648 -21.648,-21.648Z" style="fill-rule:nonzero;"/><path d="M52.116,152.188l-2.821,-0c-11.953,-0 -21.64,9.668 -21.64,21.63l0,152.406c0,11.963 9.687,21.65 21.64,21.65l2.811,-0c11.953,-0 21.64,-9.668 21.64,-21.631l0,-152.407c0.01,-11.961 -9.677,-21.648 -21.63,-21.648Z" style="fill-rule:nonzero;"/></g></g></g></g></g></g></svg>