<?xml version="1.0" encoding="UTF-8" standalone="no"?><!DOCTYPE svg PUBLIC "-//W3C//DTD SVG 1.1//EN" "http://www.w3.org/Graphics/SVG/1.1/DTD/svg11.dtd"><svg width="100%" height="100%" viewBox="0 0 100 100" version="1.1" xmlns="http://www.w3.org/2000/svg" xmlns:xlink="http://www.w3.org/1999/xlink" xml:space="preserve" xmlns:serif="http://www.serif.com/" style="fill-rule:evenodd;clip-rule:evenodd;stroke-linejoin:round;stroke-miterlimit:2;"><g><g><g><path d="M98.281,41.368c-0.951,-0 -1.721,0.971 -1.721,2.166l-0,12.934c-0,1.195 0.77,2.164 1.723,2.164c0.95,0 1.717,-0.969 1.717,-2.164l-0,-12.936c-0,-1.193 -0.769,-2.164 -1.719,-2.164Z" style="fill-rule:nonzero;"/><path d="M1.723,41.368c-0.95,-0 -1.723,0.971 -1.723,2.166c-0,3.32 -0,9.614 0.002,12.93c-0,1.195 0.771,2.165 1.721,2.169c0.951,-0 1.719,-0.97 1.719,-2.165c0,-3.314 0,-9.615 0.002,-12.935c0,-1.194 -0.77,-2.165 -1.721,-2.165Z" style="fill-rule:nonzero;"/><path d="M22.912,21.761c-3.171,-0 -5.743,2.908 -5.743,6.494c-0,10.87 0.002,32.624 0.004,43.49c-0,3.586 2.568,6.494 5.739,6.494c3.171,0 5.743,-2.91 5.743,-6.494l-0,-16.507l41.771,-0l-0,16.509c-0,3.584 2.572,6.492 5.743,6.492c3.17,0 5.739,-2.91 5.739,-6.494l-0,-43.49c-0,-3.588 -2.569,-6.494 -5.739,-6.494c-3.171,-0 -5.743,2.904 -5.743,6.494l-0,16.507l-41.771,-0l-0,-16.509c-0,-3.588 -2.571,-6.492 -5.743,-6.492Z" style="fill-rule:nonzero;"/><path d="M89.513,30.435l-0.562,-0c-2.389,-0 -4.328,1.933 -4.328,4.326l-0,30.478c-0,2.391 1.939,4.33 4.329,4.33l0.562,-0c2.391,-0 4.33,-1.934 4.33,-4.326c-0,-7.527 -0,-22.95 -0.002,-30.479c0.002,-2.392 -1.939,-4.329 -4.329,-4.329Z" style="fill-rule:nonzero;"/><path d="M10.422,30.435l-0.564,-0c-2.39,-0 -4.327,1.933 -4.327,4.326l-0,30.478c-0,2.393 1.937,4.33 4.327,4.33l0.562,-0c2.391,-0 4.328,-1.934 4.328,-4.326l-0,-30.479c0.002,-2.392 -1.935,-4.329 -4.326,-4.329Z" style="fill-rule:nonzero;"/></g></g></g></svg>