<?xml version="1.0" encoding="UTF-8" standalone="no"?><!DOCTYPE svg PUBLIC "-//W3C//DTD SVG 1.1//EN" "http://www.w3.org/Graphics/SVG/1.1/DTD/svg11.dtd"><svg width="100%" height="100%" viewBox="0 0 24 24" version="1.1" xmlns="http://www.w3.org/2000/svg" xmlns:xlink="http://www.w3.org/1999/xlink" xml:space="preserve" xmlns:serif="http://www.serif.com/" style="fill-rule:evenodd;clip-rule:evenodd;stroke-linejoin:round;stroke-miterlimit:2;"><g transform="matrix(1,0,0,1,-962,-8)"><g transform="matrix(1.5,0,0,1.5,643.995,-516.456)"><g transform="matrix(0.502137,0,0,0.39974,220.004,357.637)"><g transform="matrix(1,0,0,1,-2.6,-13)"><g id="shape-e21aa8b0-962f-11ec-b73d-91e0257a8430"><g id="shape-b68e4850-962f-11ec-b73d-91e0257a8430"><path d="M2.6,0c1.43,0 2.6,1.17 2.6,2.6l0,10.4c0,1.43 -1.17,2.6 -2.6,2.6c-1.43,0 -2.6,-1.17 -2.6,-2.6l0,-10.4c0,-1.43 1.17,-2.6 2.6,-2.6Zm2.6,26l-5.2,0l0,-5.2l5.2,-0l0,5.2Z" style="fill-rule:nonzero;"/></g></g></g></g></g></g></svg>