<svg id="screenshot" viewBox="785.648765240719 299.93995995016405 40 40.00442521185357" width="40" height="40.00442521185357" version="1.1" xmlns="http://www.w3.org/2000/svg" xmlns:xlink="http://www.w3.org/1999/xlink" style="-webkit-print-color-adjust: exact;"><g id="shape-88cfd540-8ea6-11ec-9ee1-17f27e687494"><g id="shape-b7bb5ba2-8ea5-11ec-9ee1-17f27e687494"><path class="" d="M795.2528150550575,307.60766800516467C793.7114609693879,308.99651746236896,792.2337812614944,311.0142949213341,790.8644927103151,313.70059069564763L793.4917843660598,324.2577862300602C793.5619685233133,324.5396641651039,793.4703742467851,324.83492086597255,793.2489534435405,325.0405584705279L785.648765240719,332.0992589617713L794.2345315113702,339.9443851620176L801.1250398309766,333.71734696292106C801.4112969303562,333.4587429950666,801.8470870474653,333.4002535836396,802.2020051023646,333.57280246230516C804.6485483539215,334.76170755055114,807.0631097020956,334.49706357515856,809.347066218581,333.6095364277651C811.2413789574243,332.8735285845553,812.9853333360181,331.69259470038764,814.3414528681571,330.61209798760365C813.5751172601705,330.0313293438147,812.7698534530434,329.28542392220834,812.1837597485126,328.40673152600107C811.762568210972,327.7749471761124,811.4497678301462,327.0593323300027,811.43218501901,326.2762279560318C811.417785926763,325.64324792553134,811.6231357950911,324.9816379870508,812.0592329256112,324.38532549530953C811.25121954308,323.9646452000886,810.6508714607968,323.34481765631745,810.2462497329278,322.6733765661402C809.6445992201897,321.6749168286599,809.3312199813842,320.5754885061905,808.9624150910145,319.6202061241329C808.9618594450308,319.61960899369876,808.9613047055949,319.6190111528126,808.9607508743226,319.61841260321546C808.3829058960031,318.96782949704266,807.5319123084731,318.25487171895895,806.8689752071256,317.43038351048267C806.537506656452,317.01807297954383,806.2444598041859,316.5680985093363,806.0976469490633,316.03900983865356C806.0033654556062,315.6991044114242,805.9846249285107,315.32213288523155,806.0601658948726,314.9477520003642L803.0723180749699,313.7671502496996C804.6310379000329,316.22825950880747,804.9219863921221,318.6231413473663,804.6604149425071,320.5744256789801C804.4832120434459,321.8951877680174,804.0732358792638,323.0176661556128,803.6833750298794,323.86168381408015C803.2936588949896,324.70570147254784,802.8576341217173,325.3661157304168,802.8323090851019,325.41553719570095L801.1856752043585,324.696202454355C801.3618651019557,324.35204571828365,801.6460120127822,323.94106372135786,801.9873935063596,323.2016016897145C802.329064428927,322.462139658071,802.6818783676055,321.4889884935387,802.8323090851019,320.36803792005844C803.1329534483523,318.12580463959466,802.6891140923527,315.3098439456112,799.5820215286147,312.31446473316987C799.2801059121003,312.02361561144244,799.2428438264755,311.57787908705404,799.4928805330467,311.2481423070733C799.7429172396179,310.91840552709255,800.2111885657822,310.79574711032967,800.613112305105,310.9547101708506L807.2569547680758,313.5798933805654C808.6799323968796,313.1083966593469,809.376732690045,312.498732400775,809.806317668292,311.76664373290373C810.1978427343685,311.09938752486767,810.3582587520159,310.255569146502,810.4937115192855,309.34047491833826C808.3300127481002,307.77924817294524,805.8096651041207,306.49774426399244,803.1002479724943,305.3508872772584C800.7035588644461,304.8635145745844,798.6012913963657,305.2404196740765,796.5613235183595,306.58841671038067C796.1207402384961,306.87956493933257,795.6840642499966,307.2192046597596,795.2528150550575,307.60766800516467ZL795.2528150550575,307.60766800516467ZM807.026135148637,301.35432483261025L804.7296608283388,304.1837037201253C807.0830079451509,305.21783459585527,809.3308581951468,306.37711337561063,811.3439815343407,307.78748508382614C813.4831511986325,306.38388889907696,813.9094801007432,305.3177403536338,814.8912232344572,303.77398383051195C813.8084693832709,302.03865270271353,812.6817223256214,300.71543282575203,811.5734987233253,300.2149740630498C810.9754660729606,299.9449495249048,810.3941479467627,299.8633775365057,809.6571893812504,300.01675678830816C808.937885984121,300.1664161448741,808.0589624990664,300.5766010213922,807.026135148637,301.35432483261025ZL807.026135148637,301.35432483261025ZM816.100023410741,305.2200931036773C815.3046725465176,306.50863824289934,814.5097558257794,307.78469516239875,812.3881689726235,309.17998800956616C812.2412837602534,310.26606456520494,812.0831108172777,311.4523125854247,811.4279882986569,312.56841400975736C810.7939940962982,313.64904357594276,809.6642080342549,314.5915056047745,807.8840026746766,315.1852938818911C807.8303135970519,315.33289401073694,807.8361745340972,315.4533256190166,807.8827726014697,315.6216508784653C807.9418161154077,315.8344820273501,808.1005679163634,316.1146698506948,808.35092399262,316.42607822334514C808.7300759693784,316.8977077979648,809.2967055743396,317.43410340571904,809.8559547400585,318.00264953658836C813.7493535120855,315.96122417219146,817.3112113761914,313.63323402118795,820.434873749601,310.9186404723972C820.6218448770709,309.6469677151406,820.5001399868215,308.50482702415275,819.9137568533002,307.5719304402146C819.3063901180118,306.6060862127538,818.1849251394281,305.76997333166355,816.100023410741,305.2200931036773ZL816.100023410741,305.2200931036773ZM810.8510116073071,319.44450750091187C811.1930443161123,320.3523612187049,811.4724156486052,321.21491192665394,811.858007420389,321.8546674806207C812.3479383430285,322.6676638698841,812.8520512861729,323.1242145834567,814.0895049324562,323.2204004459986C817.7083079503233,322.4729007835765,820.6957939839883,320.5556933493965,823.7059278361128,318.43940509336664C824.0224184365597,317.0055183331209,824.2154675728176,315.68070421534367,823.9439108230515,314.7490697387177C823.663888275331,313.7878753803027,823.0507329602447,313.09079358367444,821.1187944527155,312.64839175734073C818.0366651393555,315.2406273235331,814.5859480073685,317.4809342296779,810.8510116073071,319.44450750091187ZL810.8510116073071,319.44450750091187ZM813.9216361183189,324.91295277857785C813.8841450429699,324.9810744865149,813.8367790144931,325.04422209936865,813.7808289147365,325.10067463461667C813.3731681824733,325.51876428851233,813.2652111692438,325.8601975298566,813.2738216816933,326.24102180468685C813.2823598368948,326.62164679941543,813.4487815060827,327.0648457461567,813.7548526628933,327.52385424765293C814.2822646397241,328.31466411889915,815.2001163239192,329.0911258228051,815.9760030885724,329.62845140436855C819.1248457841021,328.6220868895107,822.0818694165811,327.38289678887213,824.6208128731613,325.20084609919786C825.7267934007864,323.6465277306727,825.775562185583,322.7811206745955,825.5236142498821,322.0192064181324C825.3281049672099,321.42787592894,824.8542373535093,320.83833896066517,824.319879080921,320.1417221509414C821.3789187573813,322.1886609314922,818.247514158492,324.13609251446815,814.3374732195458,324.90717365562114C814.255647724804,324.92329847420285,814.1718099223039,324.9291089371484,814.0882748592489,324.9244445977904C814.0322703497051,324.92138896956067,813.9769170553882,324.91733694082086,813.9216361183189,324.91295277857785ZL813.9216361183189,324.91295277857785Z" style="fill: rgb(0, 0, 0); fill-opacity: 1;"/></g></g></svg>