<?xml version="1.0" encoding="UTF-8" standalone="no"?><!DOCTYPE svg PUBLIC "-//W3C//DTD SVG 1.1//EN" "http://www.w3.org/Graphics/SVG/1.1/DTD/svg11.dtd"><svg width="100%" height="100%" viewBox="0 0 24 24" version="1.1" xmlns="http://www.w3.org/2000/svg" xmlns:xlink="http://www.w3.org/1999/xlink" xml:space="preserve" xmlns:serif="http://www.serif.com/" style="fill-rule:evenodd;clip-rule:evenodd;stroke-linejoin:round;stroke-miterlimit:2;"><g><clipPath id="_clip1"><rect x="2" y="2" width="20" height="20"/></clipPath><g clip-path="url(#_clip1)"><g id="shape-88cfd540-8ea6-11ec-9ee1-17f27e687494"><g id="shape-b7bb5ba2-8ea5-11ec-9ee1-17f27e687494"><path d="M6.802,5.833c-0.771,0.695 -1.509,1.704 -2.194,3.047l1.314,5.278c0.035,0.14 -0.011,0.288 -0.122,0.391l-3.8,3.529l4.293,3.922l3.445,-3.113c0.143,-0.129 0.361,-0.159 0.539,-0.072c1.223,0.594 2.43,0.462 3.572,0.018c0.947,-0.368 1.819,-0.958 2.497,-1.499c-0.383,-0.29 -0.785,-0.663 -1.079,-1.102c-0.21,-0.316 -0.366,-0.674 -0.375,-1.065c-0.007,-0.317 0.095,-0.648 0.313,-0.946c-0.404,-0.21 -0.704,-0.52 -0.906,-0.856c-0.301,-0.499 -0.458,-1.048 -0.642,-1.526c-0,-0 -0.001,-0.001 -0.001,-0.001c-0.289,-0.325 -0.714,-0.682 -1.046,-1.094c-0.166,-0.206 -0.312,-0.431 -0.386,-0.695c-0.047,-0.17 -0.056,-0.359 -0.018,-0.546l-1.494,-0.59c0.779,1.23 0.925,2.428 0.794,3.403c-0.089,0.66 -0.294,1.222 -0.489,1.644c-0.195,0.422 -0.413,0.752 -0.425,0.776l-0.824,-0.359c0.089,-0.172 0.231,-0.378 0.401,-0.747c0.171,-0.37 0.348,-0.857 0.423,-1.417c0.15,-1.121 -0.072,-2.529 -1.625,-4.026c-0.151,-0.146 -0.17,-0.369 -0.045,-0.534c0.125,-0.164 0.359,-0.226 0.56,-0.146l3.322,1.312c0.712,-0.236 1.06,-0.54 1.275,-0.906c0.196,-0.334 0.276,-0.756 0.343,-1.213c-1.081,-0.781 -2.342,-1.421 -3.696,-1.995c-1.199,-0.243 -2.25,-0.055 -3.27,0.619c-0.22,0.145 -0.438,0.315 -0.654,0.509Zm5.887,-3.126l-1.149,1.415c1.177,0.517 2.301,1.096 3.308,1.801c1.069,-0.701 1.282,-1.234 1.773,-2.006c-0.541,-0.868 -1.105,-1.529 -1.659,-1.78c-0.299,-0.135 -0.589,-0.175 -0.958,-0.099c-0.359,0.075 -0.799,0.28 -1.315,0.669Zm4.537,1.933c-0.398,0.644 -0.796,1.282 -1.856,1.98c-0.074,0.542 -0.153,1.136 -0.48,1.694c-0.317,0.54 -0.882,1.011 -1.772,1.308c-0.027,0.074 -0.024,0.134 -0.001,0.218c0.03,0.106 0.109,0.246 0.234,0.402c0.19,0.236 0.473,0.504 0.753,0.788c1.946,-1.02 3.727,-2.184 5.289,-3.541c0.094,-0.636 0.033,-1.207 -0.261,-1.673c-0.303,-0.483 -0.864,-0.901 -1.906,-1.176Zm-2.625,7.111c0.171,0.454 0.311,0.885 0.504,1.205c0.245,0.407 0.497,0.635 1.115,0.683c1.81,-0.374 3.304,-1.332 4.809,-2.39c0.158,-0.717 0.254,-1.379 0.119,-1.845c-0.14,-0.481 -0.447,-0.829 -1.413,-1.05c-1.541,1.295 -3.266,2.416 -5.134,3.397Zm1.535,2.734c-0.018,0.034 -0.042,0.066 -0.07,0.094c-0.204,0.209 -0.258,0.38 -0.253,0.57c0.004,0.19 0.087,0.412 0.24,0.641c0.264,0.396 0.723,0.784 1.111,1.053c1.574,-0.504 3.053,-1.123 4.322,-2.214c0.553,-0.777 0.577,-1.21 0.451,-1.591c-0.097,-0.295 -0.334,-0.59 -0.601,-0.938c-1.471,1.023 -3.037,1.997 -4.992,2.382c-0.041,0.008 -0.082,0.011 -0.124,0.009c-0.028,-0.002 -0.056,-0.004 -0.084,-0.006Z" style="fill-rule:nonzero;"/></g></g></g></g></svg>