<?xml version="1.0" encoding="UTF-8" standalone="no"?><!DOCTYPE svg PUBLIC "-//W3C//DTD SVG 1.1//EN" "http://www.w3.org/Graphics/SVG/1.1/DTD/svg11.dtd"><svg width="100%" height="100%" viewBox="0 0 100 100" version="1.1" xmlns="http://www.w3.org/2000/svg" xmlns:xlink="http://www.w3.org/1999/xlink" xml:space="preserve" xmlns:serif="http://www.serif.com/" style="fill-rule:evenodd;clip-rule:evenodd;stroke-linejoin:round;stroke-miterlimit:2;"><rect id="Artboard2" x="-800" y="-433.333" width="3179.17" height="2387.5" style="fill:none;"/><g id="Artboard21" serif:id="Artboard2"><g><path d="M21.509,57.374l-2.917,-2.917c-4.313,-4.313 -4.313,-11.316 -0,-15.629l15.628,-15.628c4.313,-4.313 11.316,-4.313 15.629,-0l8.416,8.416c2.15,2.338 3.737,3.869 3.778,4.9c0.041,1.044 -0.589,2.12 -1.457,2.985c-6.475,6.475 -9.477,0.412 -16.662,-4.634l-0.033,-0.033l-0.005,0.005c-0.052,-0.048 -0.107,-0.092 -0.164,-0.13c-0.469,-0.31 -1.107,-0.259 -1.52,0.154c-0.462,0.462 -0.471,1.208 -0.026,1.681l-0.005,0.005l0.037,0.037c5.022,7.209 4.282,17.249 -2.194,23.726c-0.089,0.089 -0.18,0.178 -0.27,0.265l0.006,0.007c-0.572,0.573 -0.572,1.504 0.001,2.077c0.574,0.574 1.505,0.574 2.079,0c0.022,-0.021 0.042,-0.043 0.062,-0.066c0.636,-0.49 1.247,-1.026 1.829,-1.608c5.066,-5.065 6.622,-12.311 4.657,-18.676c2.461,1.966 4.859,3.292 7.312,3.386c-0.356,2.149 0.294,4.433 1.95,6.09c1.851,1.85 4.485,2.445 6.84,1.782c-0.735,2.394 -0.156,5.106 1.736,6.998c1.486,1.486 3.477,2.162 5.422,2.029l-14.639,14.639c-3.823,3.822 -9.758,4.257 -14.061,1.304l-12.812,12.812l-21.297,-21.297l12.68,-12.68Z"/><path d="M89.45,44.783c2.056,-2.056 2.056,-5.394 0,-7.45c-2.056,-2.056 -5.394,-2.056 -7.45,0l-13.382,13.382c-2.055,2.056 -2.055,5.394 0,7.45c2.056,2.056 5.394,2.056 7.45,0l13.382,-13.382Z"/><path d="M80.706,36.039c2.055,-2.056 2.055,-5.394 -0,-7.45c-2.056,-2.056 -5.394,-2.056 -7.45,-0l-13.382,13.382c-2.056,2.056 -2.056,5.394 -0,7.45c2.056,2.055 5.394,2.055 7.45,-0l13.382,-13.382Z"/><path d="M56.603,26.587l7.449,7.45l7.326,-7.326c2.056,-2.056 2.056,-5.394 0,-7.45c-2.056,-2.056 -5.394,-2.056 -7.45,0l-7.325,7.326Z"/><path d="M47.947,17.886l7.45,7.45l7.303,-7.303c2.056,-2.056 2.056,-5.394 -0,-7.45c-2.056,-2.056 -5.394,-2.056 -7.45,-0l-7.303,7.303Z"/></g></g></svg>