<?xml version="1.0" encoding="UTF-8" standalone="no"?><!DOCTYPE svg PUBLIC "-//W3C//DTD SVG 1.1//EN" "http://www.w3.org/Graphics/SVG/1.1/DTD/svg11.dtd"><svg width="100%" height="100%" viewBox="0 0 100 100" version="1.1" xmlns="http://www.w3.org/2000/svg" xmlns:xlink="http://www.w3.org/1999/xlink" xml:space="preserve" xmlns:serif="http://www.serif.com/" style="fill-rule:evenodd;clip-rule:evenodd;stroke-linejoin:round;stroke-miterlimit:2;"><rect id="Artboard2" x="-800" y="-433.333" width="3179.17" height="2387.5" style="fill:none;"/><g id="Artboard21" serif:id="Artboard2"><g><path d="M38.904,86.619l-26.389,-26.103c-4.675,-4.675 -4.675,-12.266 -0,-16.941l16.94,-16.94c4.675,-4.674 12.265,-4.674 16.94,0l9.123,9.123c2.33,2.535 4.05,4.193 4.094,5.312c0.045,1.131 -0.638,2.297 -1.579,3.235c-7.019,7.019 -10.272,0.446 -18.06,-5.023l-0.036,-0.036l-0.005,0.006c-0.057,-0.053 -0.116,-0.1 -0.179,-0.141c-0.508,-0.336 -1.199,-0.281 -1.647,0.167c-0.501,0.501 -0.51,1.309 -0.028,1.822l-0.006,0.006l0.041,0.04c5.444,7.814 4.642,18.696 -2.378,25.716c-0.097,0.097 -0.195,0.193 -0.293,0.288l0.007,0.007c-0.621,0.622 -0.621,1.631 0.001,2.252c0.622,0.622 1.631,0.622 2.253,0c0.023,-0.023 0.046,-0.047 0.068,-0.072c0.689,-0.531 1.351,-1.112 1.982,-1.743c5.491,-5.49 7.177,-13.344 5.048,-20.243c2.667,2.131 5.267,3.568 7.926,3.669c-0.387,2.33 0.318,4.806 2.113,6.602c2.006,2.006 4.862,2.65 7.414,1.932c-0.797,2.594 -0.17,5.534 1.882,7.585c1.61,1.611 3.768,2.344 5.877,2.199l-15.868,15.868c-4.143,4.143 -10.577,4.614 -15.241,1.413Z"/><path d="M89.32,50.03c2.228,-2.228 2.228,-5.846 0,-8.075c-2.228,-2.228 -5.847,-2.228 -8.075,0l-14.505,14.505c-2.229,2.229 -2.229,5.847 -0,8.075c2.228,2.229 5.847,2.229 8.075,0l14.505,-14.505Z"/><path d="M79.842,40.552c2.228,-2.229 2.228,-5.847 -0,-8.075c-2.229,-2.229 -5.847,-2.229 -8.075,-0l-14.506,14.505c-2.228,2.228 -2.228,5.847 0,8.075c2.229,2.228 5.847,2.228 8.075,-0l14.506,-14.505Z"/><path d="M53.716,30.307l8.075,8.075l7.94,-7.941c2.229,-2.228 2.229,-5.846 0,-8.075c-2.228,-2.228 -5.846,-2.228 -8.075,0l-7.94,7.941Z"/><path d="M44.334,20.875l8.075,8.076l7.916,-7.916c2.228,-2.229 2.228,-5.847 -0,-8.075c-2.229,-2.229 -5.847,-2.229 -8.076,-0l-7.915,7.915Z"/></g></g></svg>