<?xml version="1.0" encoding="UTF-8" standalone="no"?><!DOCTYPE svg PUBLIC "-//W3C//DTD SVG 1.1//EN" "http://www.w3.org/Graphics/SVG/1.1/DTD/svg11.dtd"><svg width="100%" height="100%" viewBox="0 0 24 24" version="1.1" xmlns="http://www.w3.org/2000/svg" xmlns:xlink="http://www.w3.org/1999/xlink" xml:space="preserve" xmlns:serif="http://www.serif.com/" style="fill-rule:evenodd;clip-rule:evenodd;stroke-linejoin:round;stroke-miterlimit:2;"><g transform="matrix(1,0,0,1,-994,-8)"><g transform="matrix(1.5,0,0,1.5,675.995,-585.122)"><g transform="matrix(0.333333,0,0,0.333296,220.004,403.415)"><g transform="matrix(1,0,0,1,-20,-20.0022)"><clipPath id="_clip1"><rect x="0" y="0" width="40" height="40.004"/></clipPath><g clip-path="url(#_clip1)"><g id="shape-88cfd540-8ea6-11ec-9ee1-17f27e687494"><g id="shape-b7bb5ba2-8ea5-11ec-9ee1-17f27e687494"><path d="M9.604,7.668c-1.541,1.389 -3.019,3.406 -4.388,6.093l2.627,10.557c0.07,0.282 -0.021,0.577 -0.243,0.783l-7.6,7.058l8.586,7.845l6.89,-6.227c0.287,-0.258 0.722,-0.317 1.077,-0.144c2.447,1.189 4.861,0.924 7.145,0.037c1.895,-0.736 3.639,-1.917 4.995,-2.998c-0.767,-0.581 -1.572,-1.327 -2.158,-2.205c-0.421,-0.632 -0.734,-1.348 -0.752,-2.131c-0.014,-0.633 0.191,-1.294 0.627,-1.891c-0.808,-0.42 -1.408,-1.04 -1.813,-1.712c-0.601,-0.998 -0.915,-2.097 -1.283,-3.053c-0.001,-0 -0.001,-0.001 -0.002,-0.002c-0.578,-0.65 -1.429,-1.363 -2.092,-2.188c-0.331,-0.412 -0.624,-0.862 -0.771,-1.391c-0.094,-0.34 -0.113,-0.717 -0.038,-1.091l-2.987,-1.181c1.558,2.461 1.849,4.856 1.588,6.807c-0.178,1.321 -0.588,2.444 -0.977,3.288c-0.39,0.844 -0.826,1.504 -0.851,1.554l-1.647,-0.72c0.176,-0.344 0.46,-0.755 0.802,-1.494c0.341,-0.74 0.694,-1.713 0.845,-2.834c0.3,-2.242 -0.144,-5.058 -3.251,-8.053c-0.302,-0.291 -0.339,-0.737 -0.089,-1.067c0.25,-0.33 0.718,-0.452 1.12,-0.293l6.644,2.625c1.423,-0.472 2.12,-1.081 2.55,-1.813c0.391,-0.668 0.551,-1.511 0.687,-2.426c-2.164,-1.562 -4.684,-2.843 -7.394,-3.99c-2.396,-0.487 -4.498,-0.111 -6.538,1.237c-0.441,0.292 -0.878,0.631 -1.309,1.02Zm11.773,-6.254l-2.296,2.83c2.353,1.034 4.601,2.193 6.614,3.604c2.139,-1.404 2.566,-2.47 3.547,-4.014c-1.082,-1.735 -2.209,-3.059 -3.317,-3.559c-0.598,-0.27 -1.18,-0.352 -1.917,-0.198c-0.719,0.149 -1.598,0.56 -2.631,1.337Zm9.074,3.866c-0.795,1.289 -1.59,2.565 -3.712,3.96c-0.146,1.086 -0.305,2.272 -0.96,3.388c-0.634,1.081 -1.764,2.024 -3.544,2.617c-0.053,0.148 -0.048,0.268 -0.001,0.437c0.059,0.213 0.218,0.493 0.468,0.804c0.379,0.472 0.946,1.008 1.505,1.577c3.894,-2.042 7.455,-4.37 10.579,-7.084c0.187,-1.272 0.065,-2.414 -0.521,-3.347c-0.607,-0.966 -1.729,-1.802 -3.814,-2.352Zm-5.249,14.225c0.342,0.907 0.622,1.77 1.007,2.41c0.49,0.813 0.994,1.269 2.232,1.365c3.619,-0.747 6.606,-2.664 9.616,-4.781c0.317,-1.433 0.51,-2.758 0.238,-3.69c-0.28,-0.961 -0.893,-1.658 -2.825,-2.101c-3.082,2.593 -6.533,4.833 -10.268,6.797Zm3.071,5.468c-0.038,0.068 -0.085,0.131 -0.141,0.188c-0.408,0.418 -0.516,0.759 -0.507,1.14c0.009,0.381 0.175,0.824 0.481,1.283c0.527,0.791 1.445,1.567 2.221,2.104c3.149,-1.006 6.106,-2.245 8.645,-4.427c1.106,-1.554 1.155,-2.42 0.903,-3.182c-0.196,-0.591 -0.67,-1.181 -1.204,-1.877c-2.941,2.047 -6.072,3.994 -9.982,4.765c-0.082,0.016 -0.166,0.022 -0.249,0.017c-0.056,-0.003 -0.112,-0.007 -0.167,-0.011Z" style="fill-rule:nonzero;"/></g></g></g></g></g></g></g></svg>