<?xml version="1.0" encoding="UTF-8" standalone="no"?><!DOCTYPE svg PUBLIC "-//W3C//DTD SVG 1.1//EN" "http://www.w3.org/Graphics/SVG/1.1/DTD/svg11.dtd"><svg width="100%" height="100%" viewBox="0 0 24 24" version="1.1" xmlns="http://www.w3.org/2000/svg" xmlns:xlink="http://www.w3.org/1999/xlink" xml:space="preserve" xmlns:serif="http://www.serif.com/" style="fill-rule:evenodd;clip-rule:evenodd;stroke-linejoin:round;stroke-miterlimit:2;"><g><g id="shape-f2b14b60-8eab-11ec-9ee1-17f27e687494"><g id="shape-f2b19980-8eab-11ec-9ee1-17f27e687494"><g id="shape-f2b2aaf0-8eab-11ec-9ee1-17f27e687494"><path d="M10.815,2.837l-0,8.823l2.379,0l0,-8.823l-2.379,0Zm-7.302,0.127l-0.772,5.278c2.35,1.161 4.711,1.845 7.172,2.047l-0,-6.874c-2.135,-0.071 -4.269,-0.227 -6.4,-0.451Zm16.862,0.011c-2.094,0.263 -4.187,0.41 -6.279,0.461l0,6.747c2.255,-0.287 4.624,-0.939 7.163,-1.96l-0.884,-5.248Zm-0.093,6.42c-2.146,0.766 -4.201,1.266 -6.186,1.503l0,0.762l1.787,0l0,5.521l-1.787,-0l0,0.336c0,1.327 -0.99,2.162 -2.087,2.17c-1.097,0.008 -2.096,-0.823 -2.096,-2.17l-0,-0.336l-1.335,-0l-0.451,-0l0,-5.521l1.786,0l0,-0.662c-2.112,-0.161 -4.157,-0.65 -6.162,-1.468c0.244,3.574 0.177,7.147 -0.244,10.721c5.665,1.235 11.33,1.195 16.995,-0c-0.331,-3.619 -0.445,-7.237 -0.22,-10.856Zm-11.253,2.986l0,4.079l5.952,0l0,-4.079l-5.952,-0Zm0.988,0.7l3.977,-0l-0,2.602l-3.977,0l0,-2.602Zm0.902,0.72l-0,1.162l2.173,-0l-0,-1.162l-2.173,0Zm-0.104,3.38l-0,0.336c-0,1.089 0.643,1.453 1.187,1.45c0.543,-0.004 1.192,-0.387 1.192,-1.45l0,-0.336l-2.379,0Z" style="fill-rule:nonzero;"/></g></g></g></g></svg>