<?xml version="1.0" encoding="UTF-8" standalone="no"?><!DOCTYPE svg PUBLIC "-//W3C//DTD SVG 1.1//EN" "http://www.w3.org/Graphics/SVG/1.1/DTD/svg11.dtd"><svg width="100%" height="100%" viewBox="0 0 100 100" version="1.1" xmlns="http://www.w3.org/2000/svg" xmlns:xlink="http://www.w3.org/1999/xlink" xml:space="preserve" xmlns:serif="http://www.serif.com/" style="fill-rule:evenodd;clip-rule:evenodd;stroke-linejoin:round;stroke-miterlimit:2;"><g><g id="shape-f2b14b60-8eab-11ec-9ee1-17f27e687494"><g id="shape-f2b19980-8eab-11ec-9ee1-17f27e687494"><g id="shape-f2b2aaf0-8eab-11ec-9ee1-17f27e687494"><path d="M45.061,11.823l0,36.762l9.915,0l0,-36.762l-9.915,-0Zm-30.424,0.527l-3.217,21.993c9.794,4.837 19.632,7.686 29.884,8.529l-0,-28.644c-8.896,-0.293 -17.786,-0.947 -26.667,-1.878Zm70.26,0.045c-8.725,1.095 -17.449,1.71 -26.163,1.923l-0,28.113c9.396,-1.198 19.265,-3.916 29.846,-8.168l-3.683,-21.868Zm-0.389,26.752c-8.942,3.189 -17.505,5.275 -25.774,6.261l-0,3.177l7.445,0l0,23.002l-7.445,0l-0,1.401c-0,5.528 -4.125,9.009 -8.696,9.041c-4.571,0.032 -8.734,-3.428 -8.734,-9.041l-0,-1.401l-5.561,0l-1.878,0l-0,-23.002l7.439,0l0,-2.761c-8.801,-0.669 -17.32,-2.708 -25.673,-6.114c1.013,14.89 0.736,29.778 -1.018,44.669c23.605,5.148 47.208,4.98 70.813,-0c-1.378,-15.078 -1.855,-30.154 -0.918,-45.232Zm-46.886,12.44l-0,16.998l24.8,0l0,-16.998l-24.8,0Zm4.116,2.917l16.569,-0l-0,10.843l-16.569,0l-0,-10.843Zm3.757,3.002l-0,4.839l9.054,0l0,-4.839l-9.054,-0Zm-0.433,14.082l-0,1.4c-0,4.535 2.678,6.055 4.945,6.039c2.266,-0.015 4.969,-1.609 4.969,-6.039l0,-1.401l-9.914,0.001Z" style="fill-rule:nonzero;"/></g></g></g></g></svg>