<svg id="screenshot" viewBox="851.8494384290445 353.724942494002 32.3158736842106 39.60849987927514" width="32.3158736842106" height="39.60849987927514" version="1.1" xmlns="http://www.w3.org/2000/svg" xmlns:xlink="http://www.w3.org/1999/xlink" style="-webkit-print-color-adjust: exact;"><g id="shape-f2b14b60-8eab-11ec-9ee1-17f27e687494" style="height: 512px; width: 512px;"><g id="shape-f2b19980-8eab-11ec-9ee1-17f27e687494" class=""><g id="shape-f2b2aaf0-8eab-11ec-9ee1-17f27e687494"><path d="M865.9389542185182,353.724942494002L865.9389542185182,372.79527582733533L870.0916279027288,372.79527582733533L870.0916279027288,353.724942494002L865.9389542185182,353.724942494002ZZM853.1968068500971,353.998442494002L851.8494384290445,365.40727582733535C855.9510805343077,367.91660916066866,860.0715015869393,369.394192494002,864.3652279027287,369.8317758273353L864.3652279027287,354.97235916066865C860.639417376413,354.82052582733536,856.915964744834,354.4815258273353,853.1968068500971,353.998442494002ZZM882.6231647448341,354.0217758273353C878.9685963237814,354.58960916066866,875.3150384290446,354.9090258273353,871.6652700079919,355.0192758273353L871.6652700079919,369.6026091606687C875.6005963237815,368.98110916066867,879.7339857974656,367.5713591606687,884.1653121132551,365.36560916066867L882.6231647448341,354.0217758273353ZZM882.4599647448341,367.899442494002C878.7147857974657,369.55335916066866,875.1285963237814,370.63577582733535,871.6652700079919,371.146942494002L871.6652700079919,372.79527582733533L874.783670007992,372.79527582733533L874.783670007992,384.7276091606687L871.6652700079919,384.7276091606687L871.6652700079919,385.4541091606687C871.6652700079919,388.32160916066863,869.9376068500973,390.12777582733537,868.023164744834,390.1441091606687C866.1087226395708,390.1607758273353,864.3652279027287,388.36577582733537,864.3652279027287,385.4541091606687L864.3652279027287,384.727442494002L862.0363015869393,384.7276091606687L861.2495226395708,384.7276091606687L861.2495226395708,372.79527582733533L864.3653963237815,372.79527582733533L864.3653963237815,371.362942494002C860.679164744834,371.015942494002,857.1115015869393,369.958192494002,853.6128068500972,368.19110916066865C854.0372279027288,375.91527582733534,853.921017376413,383.63860916066864,853.1864489553604,391.3630258273353C863.0729331658866,394.0336091606687,872.9580700079919,393.94652582733534,882.8443857974656,391.3630258273353C882.2672910606235,383.54152582733536,882.0677121132551,375.7208591606687,882.4599647448341,367.899442494002ZZM862.823164744834,374.3526091606687L862.823164744834,383.17027582733533L873.2101121132551,383.17027582733533L873.2101121132551,374.35252582733534L862.823164744834,374.3526091606687ZZM864.5469542185183,375.86560916066867L871.4863226395709,375.86560916066867L871.4863226395709,381.4906091606687L864.546870007992,381.4906091606687L864.5469542185183,375.86560916066867ZZM866.1205121132551,377.4228591606687L866.1205121132551,379.93335916066866L869.9126805343077,379.93335916066866L869.9126805343077,377.4227758273354L866.1205121132551,377.4228591606687ZZM865.9390384290446,384.72769249400204L865.9390384290446,385.45419249400203C865.9390384290446,387.80669249400205,867.0607226395709,388.595192494002,868.0101121132551,388.58702582733537C868.9591647448341,388.5788591606687,870.0916279027288,387.75219249400203,870.0916279027288,385.45419249400203L870.0916279027288,384.72752582733534L865.9390384290446,384.72769249400204ZZ" style="fill: rgb(0, 0, 0); fill-opacity: 1;"/></g></g></g></svg>