<?xml version="1.0" encoding="UTF-8" standalone="no"?><!DOCTYPE svg PUBLIC "-//W3C//DTD SVG 1.1//EN" "http://www.w3.org/Graphics/SVG/1.1/DTD/svg11.dtd"><svg width="100%" height="100%" viewBox="0 0 24 24" version="1.1" xmlns="http://www.w3.org/2000/svg" xmlns:xlink="http://www.w3.org/1999/xlink" xml:space="preserve" xmlns:serif="http://www.serif.com/" style="fill-rule:evenodd;clip-rule:evenodd;stroke-linejoin:round;stroke-miterlimit:2;"><g transform="matrix(1,0,0,1,-1026,-8)"><g transform="matrix(1.5,0,0,1.5,709.5,-650.196)"><g transform="matrix(0.382025,0,0,0.308436,219,446.797)"><g transform="matrix(1,0,0,1,-16.1579,-19.8042)"><g id="shape-f2b14b60-8eab-11ec-9ee1-17f27e687494"><g id="shape-f2b19980-8eab-11ec-9ee1-17f27e687494"><g id="shape-f2b2aaf0-8eab-11ec-9ee1-17f27e687494"><path d="M14.09,0l-0,19.07l4.152,0l0,-19.07l-4.152,0Zm-12.743,0.274l-1.347,11.408c4.102,2.51 8.222,3.987 12.516,4.425l-0,-14.86c-3.726,-0.151 -7.449,-0.49 -11.169,-0.973Zm29.427,0.023c-3.655,0.568 -7.308,0.887 -10.958,0.997l-0,14.584c3.935,-0.622 8.069,-2.032 12.5,-4.237l-1.542,-11.344Zm-0.163,13.878c-3.746,1.653 -7.332,2.736 -10.795,3.247l-0,1.648l3.118,0l0,11.933l-3.118,-0l-0,0.726c-0,2.868 -1.728,4.674 -3.642,4.69c-1.915,0.017 -3.658,-1.778 -3.658,-4.69l-0,-0.726l-2.329,-0l-0.787,-0l0,-11.933l3.116,0l-0,-1.432c-3.686,-0.347 -7.254,-1.405 -10.753,-3.172c0.425,7.724 0.309,15.448 -0.426,23.172c9.886,2.671 19.772,2.584 29.658,0c-0.577,-7.821 -0.777,-15.642 -0.384,-23.463Zm-19.637,6.453l-0,8.817l10.387,0l-0,-8.817l-10.387,-0Zm1.724,1.513l6.939,-0l-0,5.625l-6.94,-0l0.001,-5.625Zm1.573,1.557l0,2.51l3.792,0l0,-2.51l-3.792,-0Zm-0.181,7.305l-0,0.726c-0,2.353 1.121,3.141 2.071,3.133c0.949,-0.008 2.081,-0.835 2.081,-3.133l0,-0.726l-4.152,-0Z" style="fill-rule:nonzero;"/></g></g></g></g></g></g></g></svg>