<?xml version="1.0" encoding="UTF-8" standalone="no"?><!DOCTYPE svg PUBLIC "-//W3C//DTD SVG 1.1//EN" "http://www.w3.org/Graphics/SVG/1.1/DTD/svg11.dtd"><svg width="100%" height="100%" viewBox="0 0 24 24" version="1.1" xmlns="http://www.w3.org/2000/svg" xmlns:xlink="http://www.w3.org/1999/xlink" xml:space="preserve" xmlns:serif="http://www.serif.com/" style="fill-rule:evenodd;clip-rule:evenodd;stroke-linejoin:round;stroke-miterlimit:2;"><g transform="matrix(1,0,0,1,-1058,-8)"><g transform="matrix(1.5,0,0,1.5,741.153,-710.867)"><g transform="matrix(0.03125,0,0,0.03125,219.231,487.244)"><g transform="matrix(1,0,0,1,-256,-256)"><path d="M512,0c-51.78,3.56 -415.56,38.2 -440.99,287.61c-3.09,26.66 -4.84,53.44 -5.99,80.24l178.87,-178.69c6.25,-6.25 16.4,-6.25 22.65,0c6.25,6.25 6.25,16.38 0,22.63l-259.5,259.24c-9.38,9.37 -9.38,24.57 0,33.94c9.38,9.37 24.59,9.37 33.98,-0l57.13,-57.07c42.09,-0.14 84.15,-2.53 125.96,-7.36c53.48,-5.44 97.02,-26.47 132.58,-56.54l-100.95,-0l146.79,-48.88c11.25,-14.89 21.37,-30.71 30.45,-47.12l-81.14,-0l106.54,-53.21c41.91,-101.93 51.81,-208.53 53.62,-234.79Z" style="fill-rule:nonzero;"/></g></g></g></g></svg>