<?xml version="1.0" encoding="UTF-8" standalone="no"?><!DOCTYPE svg PUBLIC "-//W3C//DTD SVG 1.1//EN" "http://www.w3.org/Graphics/SVG/1.1/DTD/svg11.dtd"><svg width="100%" height="100%" viewBox="0 0 24 24" version="1.1" xmlns="http://www.w3.org/2000/svg" xmlns:xlink="http://www.w3.org/1999/xlink" xml:space="preserve" xmlns:serif="http://www.serif.com/" style="fill-rule:evenodd;clip-rule:evenodd;stroke-linejoin:round;stroke-miterlimit:2;"><g><path d="M24,0c-2.427,0.167 -19.479,1.791 -20.671,13.482c-0.145,1.249 -0.227,2.505 -0.281,3.761l8.384,-8.376c0.293,-0.293 0.769,-0.293 1.062,-0c0.293,0.293 0.293,0.768 0,1.061l-12.164,12.152c-0.44,0.439 -0.44,1.151 -0,1.59c0.44,0.44 1.153,0.44 1.593,0l2.678,-2.675c1.973,-0.006 3.944,-0.118 5.904,-0.345c2.507,-0.255 4.548,-1.24 6.215,-2.65l-4.732,0l6.881,-2.291c0.527,-0.698 1.001,-1.44 1.427,-2.209l-3.804,0l4.995,-2.494c1.964,-4.778 2.428,-9.775 2.513,-11.006Z" style="fill-rule:nonzero;"/></g></svg>