<?xml version="1.0" encoding="UTF-8" standalone="no"?><!DOCTYPE svg PUBLIC "-//W3C//DTD SVG 1.1//EN" "http://www.w3.org/Graphics/SVG/1.1/DTD/svg11.dtd"><svg width="100%" height="100%" viewBox="0 0 100 100" version="1.1" xmlns="http://www.w3.org/2000/svg" xmlns:xlink="http://www.w3.org/1999/xlink" xml:space="preserve" xmlns:serif="http://www.serif.com/" style="fill-rule:evenodd;clip-rule:evenodd;stroke-linejoin:round;stroke-miterlimit:2;"><g><path d="M100,0c-10.113,0.695 -81.164,7.461 -86.131,56.174c-0.603,5.207 -0.945,10.437 -1.17,15.672l34.936,-34.901c1.22,-1.22 3.203,-1.22 4.424,0c1.22,1.221 1.22,3.2 -0,4.42l-50.684,50.633c-1.832,1.83 -1.832,4.799 0,6.629c1.832,1.83 4.803,1.83 6.637,-0l11.158,-11.147c8.221,-0.027 16.435,-0.494 24.601,-1.437c10.446,-1.063 18.95,-5.17 25.895,-11.043l-19.717,0l28.67,-9.547c2.197,-2.908 4.174,-5.998 5.947,-9.203l-15.847,0l20.808,-10.393c8.186,-19.908 10.119,-40.728 10.473,-45.857Z" style="fill-rule:nonzero;"/></g></svg>