<?xml version="1.0" encoding="UTF-8" standalone="no"?><!DOCTYPE svg PUBLIC "-//W3C//DTD SVG 1.1//EN" "http://www.w3.org/Graphics/SVG/1.1/DTD/svg11.dtd"><svg width="100%" height="100%" viewBox="0 0 24 24" version="1.1" xmlns="http://www.w3.org/2000/svg" xmlns:xlink="http://www.w3.org/1999/xlink" xml:space="preserve" xmlns:serif="http://www.serif.com/" style="fill-rule:evenodd;clip-rule:evenodd;stroke-linejoin:round;stroke-miterlimit:2;"><g transform="matrix(1,0,0,1,-1090,-8)"><g transform="matrix(1.5,0,0,1.5,771.809,-776.046)"><g transform="matrix(0.327258,0,0,0.333116,220.127,530.697)"><g transform="matrix(1,0,0,1,-14.0263,-20.013)"><clipPath id="_clip1"><rect x="0" y="0" width="28.053" height="40.026"/></clipPath><g clip-path="url(#_clip1)"><g id="shape-6fece8b0-903b-11ec-bb3f-1111d879945a"><g id="shape-6fedfa20-903b-11ec-bb3f-1111d879945a"><g id="shape-6ff32a40-903b-11ec-bb3f-1111d879945a"><path d="M14.758,0l-1.768,9.613l-9.103,-2.642l5.336,6.891c-15.724,6.623 -11.808,31.046 15.344,25.295c-9.012,1.095 -26.272,-8.689 -11.817,-16.813l0.597,6.066l4.747,-8.232l9.494,2.224l-6.199,-7.071l6.664,-5.743l-9.212,0.457l-4.083,-10.045Z" style="fill-rule:nonzero;"/></g></g></g></g></g></g></g></g></svg>