<?xml version="1.0" encoding="UTF-8" standalone="no"?><!DOCTYPE svg PUBLIC "-//W3C//DTD SVG 1.1//EN" "http://www.w3.org/Graphics/SVG/1.1/DTD/svg11.dtd"><svg width="100%" height="100%" viewBox="0 0 24 24" version="1.1" xmlns="http://www.w3.org/2000/svg" xmlns:xlink="http://www.w3.org/1999/xlink" xml:space="preserve" xmlns:serif="http://www.serif.com/" style="fill-rule:evenodd;clip-rule:evenodd;stroke-linejoin:round;stroke-miterlimit:2;"><g><clipPath id="_clip1"><rect x="1" y="2.095" width="22" height="19.811"/></clipPath><g clip-path="url(#_clip1)"><g id="shape-5830a410-8eaa-11ec-9ee1-17f27e687494"><g id="shape-58314050-8eaa-11ec-9ee1-17f27e687494"><g id="shape-5833b150-8eaa-11ec-9ee1-17f27e687494"><path d="M14.663,2.095c-0.838,-0 -1.648,0.033 -2.415,0.115l-0.791,2.053l-0.233,-1.906c-0.119,0.022 -0.238,0.045 -0.357,0.07c-0.434,0.092 -0.72,0.344 -0.967,0.708c-0.248,0.364 -0.424,0.833 -0.577,1.266c-0.419,1.195 -0.752,2.457 -1.019,3.743c0.286,0.242 0.572,0.49 0.853,0.733l1.462,-0.838l1.61,1.243l2.472,-0.938l2.906,1.166l-0.324,0.795l-2.592,-1.038l-2.605,0.986l-1.534,-1.186l-0.709,0.405c0.933,0.824 1.838,1.638 2.691,2.438l0.667,-0.305l1.614,0.767l1.486,-0.624l1.153,1.109l-0.59,0.619l-0.753,-0.719l-1.315,0.557l-1.572,-0.752c0.329,0.319 0.648,0.628 0.958,0.938l0.081,0.086l0.929,3.632l-0.372,-0.271l-2.524,0.019l-1.815,-0.848l-2.02,0.696l-0.276,-0.81l2.343,-0.809l1.958,0.914l1.177,-0.01l-3.368,-2.461c-0.938,0.219 -1.877,0.133 -2.767,-0.176c-0.2,2.114 -0.281,4.08 -0.334,5.651c-0.019,0.51 0.129,1.095 0.357,1.548c0.234,0.452 0.558,0.733 0.715,0.766c0.248,0.057 0.905,0.152 1.796,0.243l0.59,-1.857l0.91,1.985c0.796,0.058 1.667,0.096 2.548,0.105c1.344,0.015 2.72,-0.043 3.906,-0.224c0.753,-0.109 1.41,-0.285 1.939,-0.495c-0.562,-0.243 -1.029,-0.504 -1.386,-0.79c-0.529,-0.424 -0.867,-0.919 -0.824,-1.471l-0,0.009c0.257,-4.589 0.514,-8.989 1.443,-13.616l0.01,-0.039c0.252,-0.852 0.852,-1.897 1.719,-2.658c-0.662,-0.098 -1.362,-0.19 -2.081,-0.269l-1.063,1.204l-0.104,-1.318c-0.905,-0.078 -1.83,-0.129 -2.735,-0.139l-0.271,-0.002Zm7.073,0.973c-0.224,0.176 -0.438,0.382 -0.633,0.606c0.576,0.389 1.019,1.113 1.038,1.761c0.015,0.371 -0.09,0.709 -0.367,1.018c-0.276,0.305 -0.743,0.591 -1.505,0.753l0.181,0.838c0.886,-0.191 1.539,-0.548 1.963,-1.019c0.428,-0.472 0.605,-1.057 0.586,-1.619c-0.029,-0.919 -0.529,-1.79 -1.263,-2.338Zm-20.718,0.167c-0.011,0.077 -0.018,0.164 -0.018,0.268c0.005,0.366 0.097,0.865 0.278,1.436c0.162,0.51 0.394,1.072 0.683,1.657c0.507,-0.252 0.981,-0.523 1.353,-0.861c-0.21,0.595 -0.483,1.176 -0.886,1.737c0.198,0.343 0.412,0.686 0.641,1.024c0.507,-0.252 0.987,-0.619 1.406,-1.243c-0.157,0.762 -0.403,1.457 -0.87,1.99c0.311,0.405 0.643,0.8 0.988,1.167c0.415,-0.443 0.743,-1 0.986,-1.662c0.181,0.881 0.124,1.681 -0.271,2.352c0.381,0.343 0.776,0.653 1.181,0.91c0.291,-0.667 0.424,-1.457 0.405,-2.367c0.438,1.129 0.538,2.043 0.457,2.833c0.963,0.438 1.944,0.572 2.92,0.291l0.2,-0.062l3.301,2.409l-0.281,-1.086c-3.477,-3.466 -8.355,-7.46 -12.473,-10.793Zm13.688,2.476l1.581,0.657l1.491,-0.472l0.257,0.819l-1.786,0.567l-1.6,-0.667l-1.372,0.386l-0.229,-0.828l1.658,-0.462Zm5.111,11.245c-0.034,0 -0.062,0.005 -0.096,0.005c-0.166,0.005 -0.342,0.024 -0.528,0.062l0.162,0.838c0.581,-0.109 0.952,-0.019 1.167,0.119c0.209,0.138 0.3,0.324 0.305,0.595c0.004,0.443 -0.334,1.095 -1.11,1.548c0.257,0.138 0.567,0.28 0.919,0.414c0.686,-0.552 1.053,-1.276 1.048,-1.971c-0.005,-0.51 -0.248,-1.01 -0.695,-1.305c-0.32,-0.205 -0.715,-0.309 -1.172,-0.305Z" style="fill-rule:nonzero;"/></g></g></g></g></g></svg>