<?xml version="1.0" encoding="UTF-8" standalone="no"?>
<!DOCTYPE svg PUBLIC "-//W3C//DTD SVG 1.1//EN" "http://www.w3.org/Graphics/SVG/1.1/DTD/svg11.dtd">
<svg width="100%" height="100%" viewBox="0 0 24 24" version="1.1" xmlns="http://www.w3.org/2000/svg" xmlns:xlink="http://www.w3.org/1999/xlink" xml:space="preserve" xmlns:serif="http://www.serif.com/" style="fill-rule:evenodd;clip-rule:evenodd;stroke-linejoin:round;stroke-miterlimit:2;">
    <rect id="Artboard2" x="-320" y="-72" width="763" height="573" style="fill:none;"/>
    <g id="Artboard21" serif:id="Artboard2">
        <g>
            <g>
                <g>
                    <path d="M8,9.5c-0.281,-0.243 -1.714,-1.258 -2,-1.5l0,-4c0,-1 1,-2 2,-2l5,0c0.905,0.01 2.5,0 2.5,0c-1,1 -0.5,1.5 -0.5,1.5c0,0 0.589,-1 2,-1.5l2,0c-1.5,1 -1.5,1 -1.5,3l0,14c0,0 -0.029,1.576 0.5,2c0.357,0.286 0.438,0.257 1,0.5c-0.529,0.21 -1.18,0.449 -1.939,0.495c-1.061,0.064 -3.717,0.02 -5.061,0.005c-0.881,-0.009 -2.5,0 -2.5,0c-1,0 -2,-2 -2,-2c-0.5,1 0.5,2 0.5,2c0,0 -0.5,-1 0,0c0,0 -2,-1 -2,-2l0,-6.5c0.89,0.309 1.357,0.357 2.295,0.138l3.368,2.461l-3.663,-0.099l0,1l5,0l-0.737,-3.414c-0,0 -0.321,-0.287 -0.65,-0.606l3.887,0.02l0,-1l-4.789,0.019c-0.487,-0.457 -1.259,-1.124 -1.679,-1.519l6.468,0l0,-1l-7.5,0Zm-7.5,-5.5c-0.011,0.077 -0.018,0.164 -0.018,0.268c0.005,0.366 0.097,0.865 0.278,1.436c0.162,0.51 0.394,1.072 0.683,1.657c0.507,-0.252 0.981,-0.523 1.353,-0.861c-0.21,0.595 -0.483,1.176 -0.886,1.737c0.198,0.343 0.412,0.686 0.641,1.024c0.507,-0.252 0.987,-0.619 1.406,-1.243c-0.157,0.762 -0.403,1.457 -0.87,1.99c0.311,0.405 0.643,0.8 0.988,1.167c0.415,-0.443 0.743,-1 0.986,-1.662c0.181,0.881 0.124,1.681 -0.271,2.352c0.381,0.343 0.776,0.653 1.181,0.91c0.291,-0.667 0.424,-1.457 0.405,-2.367c0.438,1.129 0.538,2.043 0.457,2.833c0.667,0.259 1.167,-0.241 1.438,-0.474l0.2,-0.062l3.301,2.409l-0.281,-1.086c-3.477,-3.466 -6.873,-6.695 -10.991,-10.028Zm7.5,3l0,1l7.5,0l0,-1l-7.5,0Zm0,-1.5l7.5,0l0,-1l-7.5,0l0,1Z" style="fill-rule:nonzero;"/>
                </g>
                <path d="M19.348,2.32c0.979,0.494 1.652,1.509 1.652,2.68c0,1.656 -1.344,3 -3,3l0,-1c1,0 2,-0.5 2,-2c0,-1.248 -0.812,-1.804 -1.561,-1.955c0.212,-0.287 0.582,-0.54 0.909,-0.725Z"/>
                <path d="M18,20.986l0.013,0.014c-0.004,0 -0.008,0 -0.013,0l0,-0.014Zm0.131,-0.994c0.49,-0.065 0.869,-0.484 0.869,-0.992c0,-0.552 -0.448,-1 -1,-1l0,-1l0.013,0c1.098,0.007 1.987,0.901 1.987,2c0,0.849 -0.53,1.575 -1.277,1.865c-0.193,-0.133 -0.442,-0.39 -0.592,-0.873Z"/>
            </g>
        </g>
    </g>
</svg>
