<?xml version="1.0" encoding="UTF-8" standalone="no"?><!DOCTYPE svg PUBLIC "-//W3C//DTD SVG 1.1//EN" "http://www.w3.org/Graphics/SVG/1.1/DTD/svg11.dtd"><svg width="100%" height="100%" viewBox="0 0 24 24" version="1.1" xmlns="http://www.w3.org/2000/svg" xmlns:xlink="http://www.w3.org/1999/xlink" xml:space="preserve" xmlns:serif="http://www.serif.com/" style="fill-rule:evenodd;clip-rule:evenodd;stroke-linejoin:round;stroke-miterlimit:2;"><g transform="matrix(1,0,0,1,-1122,-8)"><g transform="matrix(1.5,0,0,1.5,804.424,-838.682)"><g transform="matrix(0.363278,0,0,0.366428,219.717,572.455)"><g transform="matrix(1,0,0,1,-20.1866,-18.0214)"><clipPath id="_clip1"><rect x="0" y="0" width="40.373" height="36.043"/></clipPath><g clip-path="url(#_clip1)"><g id="shape-5830a410-8eaa-11ec-9ee1-17f27e687494"><g id="shape-58314050-8eaa-11ec-9ee1-17f27e687494"><g id="shape-5833b150-8eaa-11ec-9ee1-17f27e687494"><path d="M25.073,0c-1.538,0 -3.024,0.061 -4.431,0.21l-1.451,3.736l-0.429,-3.469c-0.218,0.04 -0.437,0.082 -0.655,0.128c-0.796,0.168 -1.32,0.625 -1.775,1.288c-0.454,0.662 -0.778,1.516 -1.058,2.304c-0.769,2.174 -1.381,4.47 -1.87,6.808c0.524,0.442 1.049,0.892 1.565,1.334l2.683,-1.524l2.955,2.261l4.536,-1.707l5.333,2.122l-0.595,1.447l-4.755,-1.888l-4.782,1.793l-2.814,-2.157l-1.303,0.736c1.714,1.499 3.374,2.98 4.939,4.435l1.224,-0.554l2.963,1.394l2.727,-1.134l2.116,2.018l-1.084,1.126l-1.381,-1.308l-2.413,1.013l-2.884,-1.368c0.603,0.58 1.188,1.143 1.757,1.706l0.148,0.156l1.705,6.609l-0.682,-0.493l-4.633,0.034l-3.33,-1.542l-3.707,1.265l-0.507,-1.472l4.301,-1.473l3.593,1.663l2.159,-0.017l-6.18,-4.479c-1.722,0.399 -3.444,0.243 -5.079,-0.32c-0.367,3.846 -0.516,7.423 -0.612,10.282c-0.035,0.927 0.236,1.992 0.656,2.815c0.428,0.823 1.022,1.334 1.311,1.395c0.454,0.104 1.661,0.277 3.295,0.442l1.084,-3.379l1.67,3.612c1.46,0.104 3.059,0.174 4.676,0.191c2.465,0.026 4.992,-0.078 7.168,-0.407c1.381,-0.199 2.588,-0.52 3.558,-0.901c-1.032,-0.442 -1.888,-0.918 -2.544,-1.438c-0.97,-0.771 -1.591,-1.672 -1.512,-2.677l0,0.018c0.472,-8.351 0.944,-16.354 2.649,-24.774l0.017,-0.069c0.463,-1.551 1.565,-3.453 3.156,-4.836c-1.215,-0.179 -2.5,-0.347 -3.82,-0.491l-1.95,2.192l-0.192,-2.4c-1.661,-0.142 -3.356,-0.234 -5.017,-0.253l-0.499,-0.003Zm12.981,1.771c-0.411,0.319 -0.804,0.695 -1.162,1.102c1.057,0.709 1.87,2.025 1.905,3.204c0.026,0.675 -0.166,1.29 -0.673,1.853c-0.507,0.555 -1.364,1.074 -2.762,1.369l0.332,1.524c1.626,-0.346 2.823,-0.996 3.601,-1.853c0.787,-0.858 1.111,-1.923 1.076,-2.945c-0.053,-1.672 -0.971,-3.257 -2.317,-4.254Zm-38.021,0.304c-0.021,0.14 -0.033,0.298 -0.033,0.487c0.009,0.666 0.177,1.574 0.51,2.614c0.298,0.927 0.723,1.949 1.254,3.014c0.929,-0.459 1.8,-0.953 2.483,-1.568c-0.386,1.083 -0.887,2.14 -1.625,3.162c0.361,0.624 0.754,1.247 1.175,1.862c0.93,-0.459 1.811,-1.126 2.581,-2.261c-0.289,1.386 -0.741,2.651 -1.597,3.621c0.57,0.737 1.18,1.455 1.813,2.122c0.761,-0.805 1.364,-1.819 1.81,-3.023c0.332,1.603 0.227,3.058 -0.498,4.28c0.699,0.623 1.424,1.186 2.167,1.654c0.534,-1.213 0.778,-2.651 0.743,-4.305c0.805,2.053 0.988,3.716 0.84,5.154c1.765,0.797 3.566,1.039 5.358,0.528l0.367,-0.112l6.058,4.383l-0.516,-1.975c-6.381,-6.306 -15.332,-13.574 -22.89,-19.637Zm25.119,4.504l2.902,1.195l2.736,-0.857l0.472,1.49l-3.278,1.03l-2.937,-1.212l-2.517,0.701l-0.42,-1.507l3.042,-0.84Zm9.379,20.46c-0.061,-0 -0.113,0.009 -0.174,0.009c-0.306,0.008 -0.63,0.043 -0.971,0.112l0.298,1.525c1.066,-0.199 1.748,-0.035 2.141,0.216c0.385,0.252 0.551,0.589 0.56,1.083c0.008,0.806 -0.612,1.992 -2.037,2.815c0.472,0.252 1.04,0.511 1.687,0.754c1.259,-1.005 1.932,-2.322 1.923,-3.586c-0.009,-0.927 -0.455,-1.837 -1.276,-2.374c-0.586,-0.372 -1.311,-0.563 -2.151,-0.554Z" style="fill-rule:nonzero;"/></g></g></g></g></g></g></g></g></svg>