<?xml version="1.0" encoding="UTF-8" standalone="no"?><!DOCTYPE svg PUBLIC "-//W3C//DTD SVG 1.1//EN" "http://www.w3.org/Graphics/SVG/1.1/DTD/svg11.dtd"><svg width="100%" height="100%" viewBox="0 0 100 100" version="1.1" xmlns="http://www.w3.org/2000/svg" xmlns:xlink="http://www.w3.org/1999/xlink" xml:space="preserve" xmlns:serif="http://www.serif.com/" style="fill-rule:evenodd;clip-rule:evenodd;stroke-linejoin:round;stroke-miterlimit:2;"><rect id="Artboard2" x="-1333.33" y="-300" width="3179.17" height="2387.5" style="fill:none;"/><g id="Artboard21" serif:id="Artboard2"><g><g><g><path d="M33.333,39.584c-1.17,-1.012 -7.141,-5.241 -8.333,-6.25l0,-16.666c0,-4.167 4.167,-8.334 8.333,-8.334l20.834,0c3.771,0.042 10.416,0 10.416,0c-4.166,4.167 -2.083,6.25 -2.083,6.25c0,0 2.453,-4.166 8.333,-6.25l8.334,0c-6.25,4.167 -6.25,4.167 -6.25,12.5l-0,58.334c-0,-0 -0.121,6.566 2.083,8.333c1.488,1.192 1.825,1.071 4.167,2.083c-2.204,0.875 -4.915,1.871 -8.079,2.063c-4.421,0.267 -15.488,0.083 -21.088,0.021c-3.671,-0.038 -10.417,-0 -10.417,-0c-4.166,-0 -8.333,-8.334 -8.333,-8.334c-2.083,4.167 2.083,8.334 2.083,8.334c0,-0 -2.083,-4.167 0,-0c0,-0 -8.333,-4.167 -8.333,-8.334l0,-27.083c3.708,1.287 5.654,1.487 9.563,0.575l14.033,10.254l-15.263,-0.412l0,4.166l20.834,0l-3.071,-14.225c-0,0 -1.337,-1.197 -2.708,-2.526l16.195,0.085l0,-4.167l-19.954,0.078c-2.03,-1.905 -5.245,-4.684 -6.995,-6.328l26.949,-0l0,-4.167l-31.25,0Zm-31.25,-22.916c-0.045,0.32 -0.075,0.683 -0.075,1.116c0.021,1.525 0.405,3.604 1.159,5.984c0.675,2.125 1.641,4.466 2.846,6.904c2.112,-1.05 4.087,-2.179 5.637,-3.588c-0.875,2.479 -2.012,4.9 -3.692,7.238c0.825,1.429 1.717,2.858 2.671,4.266c2.113,-1.05 4.113,-2.579 5.859,-5.179c-0.655,3.175 -1.68,6.071 -3.625,8.292c1.295,1.687 2.679,3.333 4.116,4.862c1.729,-1.845 3.096,-4.166 4.109,-6.925c0.754,3.671 0.516,7.005 -1.13,9.8c1.588,1.43 3.234,2.721 4.921,3.792c1.213,-2.779 1.767,-6.071 1.688,-9.862c1.825,4.704 2.241,8.512 1.904,11.804c2.779,1.079 4.862,-1.004 5.992,-1.975l0.833,-0.259l13.754,10.038l-1.171,-4.525c-14.487,-14.442 -28.637,-27.896 -45.796,-41.783Zm31.25,12.5l0,4.166l31.25,0l0,-4.166l-31.25,-0Zm0,-6.25l31.25,-0l0,-4.167l-31.25,-0l0,4.167Z" style="fill-rule:nonzero;"/></g><path d="M80.615,9.665c4.083,2.059 6.885,6.289 6.885,11.169c0,6.899 -5.601,12.5 -12.5,12.5l0,-4.166c4.167,-0 8.333,-2.084 8.333,-8.334c0,-5.2 -3.381,-7.516 -6.505,-8.147c0.885,-1.197 2.426,-2.251 3.787,-3.022Z"/><path d="M75,87.442l0.056,0.059c-0.018,-0 -0.037,-0 -0.056,-0l0,-0.059Zm0.548,-4.143c2.041,-0.269 3.619,-2.017 3.619,-4.131c-0,-2.3 -1.867,-4.167 -4.167,-4.167l0,-4.167l0.054,0c4.574,0.029 8.279,3.752 8.279,8.334c0,3.537 -2.209,6.563 -5.322,7.771c-0.804,-0.555 -1.84,-1.625 -2.463,-3.64Z"/></g></g></g></svg>