<svg id="screenshot" viewBox="786.4039705965702 355.5078029183337 40.37317574067538 36.042779030611655" width="40.37317574067538" height="36.042779030611655" version="1.1" xmlns="http://www.w3.org/2000/svg" xmlns:xlink="http://www.w3.org/1999/xlink" style="-webkit-print-color-adjust: exact;"><g id="shape-5830a410-8eaa-11ec-9ee1-17f27e687494" style="height: 512px; width: 512px;"><g id="shape-58314050-8eaa-11ec-9ee1-17f27e687494" class=""><g id="shape-5833b150-8eaa-11ec-9ee1-17f27e687494"><path d="M811.4773971699967,355.5078029183337C809.9389356315351,355.5078029183337,808.4529216455212,355.5684381304841,807.0455789881784,355.7182937262271L805.5945300371295,359.4534227946895L805.1662083588078,355.98508865968876C804.9476768902763,356.0249346562446,804.7291454217449,356.0665130874335,804.5106139532135,356.1124226052045C803.7151594077588,356.2804687645926,803.1906838832833,356.7378315076697,802.736138428738,357.4004877547415C802.2815929741924,358.0631440018133,801.9581664007658,358.9163680585006,801.6784461210457,359.70462581645535C800.9092153518149,361.87883128070405,800.2973272399266,364.17430716925355,799.8078167504161,366.5130939236247C800.3322922748916,366.954864755006,800.8567677993673,367.4052977595515,801.3725020651016,367.8470685909327L804.056068498668,366.3225261140093L807.0106139532134,368.5833533099014L811.5473272399267,366.8769051965269L816.8794950720945,368.99913762178966L816.285089477689,370.445720540234L811.5298447224443,368.55736679040837L806.7483761909756,370.3504366354263L803.9336908762903,368.1935555175062L802.6312433238428,368.92984023647494C804.3445300371295,370.4283961939053,806.0053691979687,371.90962780500706,807.570054512654,373.3648728966158L808.7938307364302,372.8104938140982L811.757117449717,374.2051036935565L814.4843901769896,373.0703590090283L816.5997747923743,375.088645356319L815.5158587084582,376.21472786768294L814.1347398273393,374.9067397198679L811.7221524147519,375.9202139800954L808.8375370301364,374.55159062013C809.4406838832833,375.1319562221407,810.0263482189476,375.69499747782265,810.5945300371295,376.2580387335046L810.7431314357309,376.4139578504627L812.4476768902762,383.0231959748523L811.7658587084582,382.529452104485L807.1329915755912,382.56410079714243L803.8025719951713,381.0222339738903L800.0962782888778,382.2869112558836L799.5892852818847,380.8143418179462L803.8899845825841,379.3417723800088L807.4826419252414,381.0049096275617L809.6417328343324,380.98758528123295L803.4616629042623,376.50924175527035C801.7396349322345,376.9077017208299,800.0176069602065,376.75178260387185,798.3829915755911,376.18874134818986C798.0158587084582,380.0347462331558,797.8672573098569,383.6122237500273,797.7711034637028,386.4707408942587C797.736138428738,387.3975934228428,798.0071174497169,388.4630407220563,798.4266978692973,389.28594717266844C798.855019547619,390.1088536232805,799.4494251420246,390.61992183997637,799.7378866804862,390.68055705212674C800.1924321350316,390.78450313009887,801.3987258413254,390.9577465933856,803.0333412259407,391.1223278835081L804.1172573098568,387.7440803494164L805.7868377294373,391.35620655894513C807.2466279392274,391.4601526369172,808.8462782888778,391.52945002223186,810.4634111560106,391.54677436856065C812.9284461210456,391.5727608880536,815.4546698972694,391.46881481008154,817.6312433238428,391.1396522298367C819.0123622049616,390.940422247057,820.2186559112554,390.61992183997637,821.1889356315351,390.23878622074557C820.1574671000666,389.79701538936433,819.3008237434232,389.32059586532574,818.6452293378288,388.8008654754655C817.6749496175489,388.02993206383945,817.0543202469197,387.12906605474836,817.1329915755911,386.12425396768526L817.1329915755911,386.1415783140139C817.605019547619,377.7912433835923,818.077047519647,369.78739537974434,819.7815929741924,361.36776306400816L819.7903342329337,361.3331143713508L819.799075491675,361.29846567869345C820.2623622049617,359.74793668227704,821.3637608063603,357.84572345538845,822.9546698972692,356.46237440104375C821.7396349322345,356.28393363385834,820.4546698972694,356.11588747447024,819.1347398273393,355.97209539994225L817.1854391280386,358.1636252105197L816.9931314357309,355.7642032439981C815.3322922748916,355.6221436041029,813.6364880790876,355.52945835124456,811.9756489182485,355.5112677875994L811.4773971699967,355.5078029183337ZZM824.4581664007659,357.2783511131243C824.0473272399266,357.5979853028884,823.65397059657,357.9739236182206,823.2955789881784,358.3810457569445C824.3532712958707,359.08961152178733,825.1662083588077,360.40626184276664,825.2011733937728,361.5843173931166C825.2273971699967,362.2599668999349,825.035089477689,362.87498119460287,824.5280964706959,363.43802245028485C824.0211034637028,363.99240153280243,823.1644601070595,364.5121319226627,821.7658587084582,364.8066458102502L822.098026540626,366.33118828717363C823.7239006665002,365.9847013606001,824.9214531140526,365.3350383732748,825.6994251420246,364.47748323000536C826.4861384287378,363.6199280867359,826.8095650021645,362.5544807875224,826.7745999671994,361.5323443541306C826.7221524147519,359.8605449334134,825.8043202469197,358.2762334616561,824.4581664007659,357.2783511131243ZZM786.4371873797868,357.58325960850897C786.4162083588078,357.72272059645485,786.4039705965702,357.8803721480458,786.4039705965702,358.07007374034475C786.4127118553113,358.73619485668235,786.5814181490176,359.643990604305,786.9135859811854,360.6834513840255C787.2116629042623,361.6103039126096,787.6364880790875,362.63244034600143,788.167956610556,363.69788764521496C789.0971524147519,363.2387924675051,789.9677817853812,362.74504859713784,790.6513482189478,362.1300343024699C790.264984582584,363.2128059480121,789.7641104567099,364.2695910740612,789.0254740930736,365.2917275074531C789.3873622049616,365.91540397528536,789.7798447224442,366.5390804431177,790.2011733937728,367.1540947377857C791.1312433238427,366.6949995600758,792.0123622049617,366.02801222642177,792.7815929741924,364.8932675418936C792.4931314357308,366.2792152481876,792.0412083588078,367.5438925301809,791.1845650021644,368.5140559245867C791.7553691979688,369.25034064355543,792.3646349322344,369.96930101619546,792.9983761909757,370.63628834984945C793.7588657014652,369.83070624556603,794.3620125546121,368.81723198533854,794.8078167504161,367.6131899154956C795.139984582584,369.2156919508981,795.035089477689,370.6709370425068,794.3095650021644,371.89230345867844C795.0088657014651,372.51597992651074,795.7343901769898,373.0790211821927,796.4773971699966,373.54677853306697C797.0106139532134,372.3340742900596,797.2553691979685,370.8961535447796,797.2204041630036,369.2416784703911C798.0245999671994,371.2946135103391,798.2081664007659,372.957750757892,798.0595650021645,374.395671503172C799.8252992678987,375.1925914342911,801.6259985685981,375.4351322828925,803.4179566105561,374.9240640661966L803.7850894776889,374.8114558150602L809.8427817853812,379.1945154362151L809.327047519647,377.21953995474604C802.9459286385281,370.91347789110824,793.9948796874792,363.6459146062289,786.4371873797868,357.58325960850897ZZM811.5560684986679,362.08672343664813L814.4581664007659,363.28210333332675L817.1941803867799,362.42454819005735L817.6662083588078,363.91444197432344L814.3882363308358,364.9452405808796L811.4511733937728,363.7325363378723L808.9336908762903,364.43417236418367L808.51411045671,362.92695423358896ZM820.9354391280385,382.5467764508138C820.8742503168498,382.5467764508138,820.8218027644022,382.55543862397803,820.7606139532135,382.55543862397803C820.4546698972694,382.56410079714243,820.1312433238428,382.59874948979984,819.7903342329337,382.66804687511444L820.0875370301364,384.1925893520379C821.1539705965702,383.99335936925814,821.8357887783882,384.1579406593806,822.229145421745,384.40914368114636C822.6137608063603,384.66034670291214,822.7798447224442,384.99817145632124,822.7885859811854,385.4919153266886C822.7973272399267,386.29749743097193,822.1766978692973,387.48421515448626,820.7518726944722,388.3071216050983C821.2239006665001,388.5583246268641,821.7920824846819,388.8181898217942,822.4389356315351,389.0607306703956C823.6976768902763,388.0559185833325,824.3707538133533,386.7392682623531,824.3620125546121,385.4745909803599C824.3532712958707,384.54773845177573,823.9074671000666,383.63821026952024,823.0857887783882,383.1011555333313C822.500124442724,382.7286820872649,821.7745999671994,382.53811427764947,820.9354391280385,382.5467764508138ZZ" style="fill: rgb(0, 0, 0); fill-opacity: 1;"/></g></g></g></svg>