<?xml version="1.0" encoding="UTF-8" standalone="no"?><!DOCTYPE svg PUBLIC "-//W3C//DTD SVG 1.1//EN" "http://www.w3.org/Graphics/SVG/1.1/DTD/svg11.dtd"><svg width="100%" height="100%" viewBox="0 0 24 24" version="1.1" xmlns="http://www.w3.org/2000/svg" xmlns:xlink="http://www.w3.org/1999/xlink" xml:space="preserve" xmlns:serif="http://www.serif.com/" style="fill-rule:evenodd;clip-rule:evenodd;stroke-linejoin:round;stroke-miterlimit:2;"><g transform="matrix(1,0,0,1,-1154,-8)"><g transform="matrix(1.5,0,0,1.5,836.424,-200.5)"><g transform="matrix(0.0338542,0,0,0.0338542,219.717,147)"><g transform="matrix(1,0,0,1,-251.154,-258.459)"><clipPath id="_clip1"><rect x="71.845" y="23.545" width="358.618" height="469.828"/></clipPath><g clip-path="url(#_clip1)"><g><path d="M363.783,23.545c-9.782,0.057 -16.583,3.047 -20.744,10.22c-17.51,30.18 -38.432,61.645 -48.552,97.245c2.836,0.83 5.635,1.787 8.373,2.853c7.353,2.863 14.38,6.482 20.542,10.858c27.534,-25.542 58.165,-45.21 87.45,-65.462c11.356,-7.854 12.273,-13.584 10.183,-20.83c-2.09,-7.246 -9.868,-16.365 -20.525,-23.176c-10.658,-6.81 -23.87,-11.33 -34.73,-11.68c-0.68,-0.022 -1.345,-0.03 -1.997,-0.027l0,-0.001Zm-68.998,0.746c-10.02,-0.182 -17.792,6.393 -23.924,20.24c-8.94,20.194 -10.212,53.436 -1.446,83.185c0.156,-0.008 0.31,-0.023 0.467,-0.03c1.99,-0.087 3.99,-0.072 6,0.03c9.436,-34.822 27.966,-64.72 44.013,-91.528c-10.31,-8.496 -18.874,-11.782 -25.108,-11.896l-0.002,-0.001Zm-97.285,58.209l-10.5,15.47c14.82,10.04 29.056,19.725 39.813,31.374c3.916,4.24 7.37,8.722 10.31,13.607c3.77,-4.73 8.51,-8.378 13.69,-10.792c0.407,-0.188 0.82,-0.355 1.228,-0.53c-3.423,-5.44 -7.304,-10.418 -11.51,-14.972c-12.766,-13.827 -28.241,-24.137 -43.031,-34.157Zm223.77,12.27c-29.255,20.228 -58.575,39.152 -84.348,62.78c0.438,0.576 0.848,1.168 1.258,1.76c20.68,-6.75 49.486,-15.333 73.916,-19.41c11.484,-1.916 15.66,-6.552 17.574,-13.228c1.914,-6.676 0.447,-16.71 -5.316,-26.983c-0.924,-1.647 -1.96,-3.29 -3.083,-4.92l-0.001,0.001Zm-223.938,47.87c-14.95,0.2 -29.732,4.3 -43.957,12.766l9.563,16.03c21.657,-12.89 42.626,-14.133 65.232,-4.563c0.52,-5.592 1.765,-10.66 3.728,-15.21c0.35,-0.806 0.73,-1.586 1.123,-2.354c-11.87,-4.52 -23.83,-6.827 -35.688,-6.67l-0.001,0.001Zm75.8,3.934c-5.578,-0.083 -10.597,0.742 -14.427,2.526c-4.377,2.038 -7.466,4.914 -9.648,9.97c-0.884,2.047 -1.572,4.54 -1.985,7.494c0.456,-0.007 0.91,-0.03 1.365,-0.033c16.053,-0.084 32.587,2.77 49.313,9.19c7.714,2.96 15.062,7.453 22.047,13.184c3.217,-2.445 4.99,-4.72 5.773,-6.535c1.21,-2.798 1.095,-5.184 -0.634,-8.82c-3.46,-7.275 -15.207,-16.955 -28.856,-22.27c-6.824,-2.658 -13.98,-4.224 -20.523,-4.614c-0.818,-0.05 -1.627,-0.08 -2.424,-0.092l-0.001,-0Zm-24.757,38.457c-22.982,0.075 -44.722,7.386 -65,19.782c-32.445,19.835 -60.565,53.124 -80.344,90.032c-19.777,36.908 -31.133,77.41 -31.186,110.53c-0.053,33.06 10.26,57.27 32.812,67.782c0.043,0.02 0.082,0.043 0.125,0.063l0.032,0c24.872,11.51 65.616,19.337 108.407,20.092c42.79,0.756 87.79,-5.457 121.874,-20.187c21.96,-9.49 34.545,-28.452 40.5,-54.156c5.954,-25.705 4.518,-57.657 -2.375,-89.314c-6.894,-31.657 -19.2,-63.06 -34.095,-87.875c-14.894,-24.814 -32.614,-42.664 -48.063,-48.593c-14.664,-5.627 -28.898,-8.2 -42.687,-8.156Z" style="fill-rule:nonzero;"/></g></g></g></g></g></g></svg>