<?xml version="1.0" encoding="UTF-8" standalone="no"?><!DOCTYPE svg PUBLIC "-//W3C//DTD SVG 1.1//EN" "http://www.w3.org/Graphics/SVG/1.1/DTD/svg11.dtd"><svg width="100%" height="100%" viewBox="0 0 100 100" version="1.1" xmlns="http://www.w3.org/2000/svg" xmlns:xlink="http://www.w3.org/1999/xlink" xml:space="preserve" xmlns:serif="http://www.serif.com/" style="fill-rule:evenodd;clip-rule:evenodd;stroke-linejoin:round;stroke-miterlimit:2;"><g><clipPath id="_clip1"><rect x="12.06" y="0.295" width="75.88" height="99.41"/></clipPath><g clip-path="url(#_clip1)"><g><path d="M73.831,0.295c-2.07,0.012 -3.509,0.645 -4.389,2.162c-3.705,6.386 -8.132,13.044 -10.273,20.576c0.6,0.176 1.192,0.378 1.771,0.604c1.556,0.606 3.043,1.371 4.347,2.297c5.826,-5.404 12.307,-9.566 18.503,-13.851c2.403,-1.662 2.597,-2.874 2.155,-4.407c-0.442,-1.533 -2.088,-3.463 -4.343,-4.904c-2.255,-1.441 -5.051,-2.397 -7.348,-2.471c-0.144,-0.005 -0.285,-0.007 -0.423,-0.006l0,-0Zm-14.599,0.158c-2.12,-0.039 -3.765,1.352 -5.062,4.282c-1.892,4.273 -2.161,11.307 -0.306,17.601c0.033,-0.001 0.065,-0.005 0.099,-0.006c0.421,-0.019 0.844,-0.015 1.269,0.006c1.997,-7.368 5.917,-13.694 9.313,-19.366c-2.182,-1.798 -3.994,-2.493 -5.313,-2.517l-0,-0Zm-20.585,12.316l-2.221,3.273c3.136,2.125 6.148,4.174 8.424,6.639c0.828,0.897 1.559,1.845 2.181,2.879c0.798,-1.001 1.801,-1.773 2.897,-2.284c0.086,-0.039 0.173,-0.075 0.26,-0.112c-0.725,-1.151 -1.546,-2.204 -2.436,-3.168c-2.701,-2.925 -5.975,-5.107 -9.105,-7.227Zm47.348,2.596c-6.19,4.28 -12.394,8.284 -17.847,13.284c0.092,0.122 0.179,0.247 0.266,0.372c4.375,-1.428 10.47,-3.244 15.64,-4.107c2.429,-0.405 3.313,-1.386 3.718,-2.799c0.405,-1.412 0.095,-3.535 -1.125,-5.709c-0.195,-0.348 -0.415,-0.696 -0.652,-1.041l-0,0Zm-47.383,10.129c-3.163,0.042 -6.291,0.91 -9.301,2.701l2.024,3.392c4.582,-2.727 9.019,-2.99 13.802,-0.966c0.11,-1.183 0.373,-2.255 0.789,-3.218c0.074,-0.17 0.154,-0.335 0.237,-0.498c-2.511,-0.956 -5.042,-1.444 -7.551,-1.411l-0,-0Zm16.038,0.832c-1.18,-0.017 -2.242,0.157 -3.052,0.535c-0.926,0.431 -1.58,1.04 -2.042,2.109c-0.187,0.434 -0.332,0.961 -0.42,1.586c0.097,-0.001 0.193,-0.006 0.289,-0.007c3.397,-0.018 6.895,0.586 10.434,1.945c1.632,0.626 3.187,1.577 4.665,2.789c0.681,-0.517 1.056,-0.999 1.222,-1.383c0.256,-0.592 0.231,-1.096 -0.135,-1.866c-0.732,-1.539 -3.217,-3.587 -6.105,-4.712c-1.444,-0.562 -2.958,-0.894 -4.343,-0.976c-0.173,-0.011 -0.344,-0.017 -0.512,-0.02l-0.001,0Zm-5.238,8.137c-4.863,0.016 -9.463,1.563 -13.753,4.186c-6.865,4.197 -12.815,11.241 -17,19.05c-4.185,7.809 -6.587,16.379 -6.599,23.387c-0.011,6.995 2.171,12.117 6.943,14.342c0.009,0.004 0.017,0.009 0.026,0.013l0.007,-0c5.263,2.435 13.884,4.091 22.938,4.251c9.054,0.16 18.575,-1.154 25.787,-4.271c4.646,-2.008 7.309,-6.02 8.569,-11.459c1.26,-5.439 0.956,-12.2 -0.502,-18.898c-1.459,-6.698 -4.063,-13.343 -7.214,-18.593c-3.152,-5.25 -6.901,-9.027 -10.17,-10.282c-3.103,-1.19 -6.114,-1.735 -9.032,-1.726Z" style="fill-rule:nonzero;"/></g></g></g></svg>