<?xml version="1.0" encoding="UTF-8" standalone="no"?><!DOCTYPE svg PUBLIC "-//W3C//DTD SVG 1.1//EN" "http://www.w3.org/Graphics/SVG/1.1/DTD/svg11.dtd"><svg width="100%" height="100%" viewBox="0 0 24 24" version="1.1" xmlns="http://www.w3.org/2000/svg" xmlns:xlink="http://www.w3.org/1999/xlink" xml:space="preserve" xmlns:serif="http://www.serif.com/" style="fill-rule:evenodd;clip-rule:evenodd;stroke-linejoin:round;stroke-miterlimit:2;"><g><clipPath id="_clip1"><rect x="2.894" y="0.071" width="18.211" height="23.858"/></clipPath><g clip-path="url(#_clip1)"><g><path d="M17.719,0.071c-0.496,0.003 -0.842,0.154 -1.053,0.519c-0.889,1.532 -1.952,3.13 -2.465,4.938c0.144,0.042 0.286,0.091 0.425,0.145c0.373,0.145 0.73,0.329 1.043,0.551c1.398,-1.297 2.954,-2.296 4.441,-3.324c0.576,-0.399 0.623,-0.69 0.517,-1.058c-0.106,-0.368 -0.501,-0.831 -1.043,-1.177c-0.541,-0.346 -1.212,-0.575 -1.763,-0.593c-0.035,-0.001 -0.068,-0.001 -0.102,-0.001l0,-0Zm-3.503,0.038c-0.509,-0.01 -0.904,0.324 -1.215,1.027c-0.454,1.026 -0.519,2.714 -0.074,4.225c0.008,-0.001 0.016,-0.001 0.024,-0.002c0.101,-0.004 0.203,-0.003 0.305,0.002c0.479,-1.769 1.42,-3.287 2.235,-4.648c-0.524,-0.432 -0.959,-0.599 -1.275,-0.604l-0,-0Zm-4.941,2.956l-0.533,0.785c0.753,0.51 1.476,1.002 2.022,1.593c0.199,0.216 0.374,0.443 0.523,0.691c0.192,-0.24 0.433,-0.425 0.696,-0.548c0.02,-0.009 0.041,-0.018 0.062,-0.027c-0.174,-0.276 -0.371,-0.529 -0.584,-0.76c-0.649,-0.702 -1.435,-1.226 -2.186,-1.734Zm11.364,0.623c-1.486,1.027 -2.975,1.988 -4.284,3.188c0.023,0.029 0.043,0.059 0.064,0.089c1.05,-0.343 2.513,-0.779 3.754,-0.986c0.583,-0.097 0.795,-0.332 0.892,-0.671c0.097,-0.339 0.023,-0.849 -0.27,-1.371c-0.047,-0.083 -0.099,-0.167 -0.156,-0.249l-0,-0Zm-11.372,2.431c-0.759,0.01 -1.51,0.218 -2.232,0.648l0.485,0.814c1.1,-0.655 2.165,-0.718 3.313,-0.232c0.026,-0.284 0.089,-0.541 0.189,-0.772c0.018,-0.041 0.037,-0.081 0.057,-0.12c-0.603,-0.229 -1.21,-0.346 -1.812,-0.338l-0,-0Zm3.849,0.199c-0.283,-0.004 -0.538,0.038 -0.733,0.129c-0.222,0.103 -0.379,0.249 -0.489,0.506c-0.045,0.104 -0.08,0.23 -0.101,0.38c0.023,0 0.046,-0.001 0.069,-0.001c0.815,-0.004 1.655,0.14 2.504,0.466c0.392,0.151 0.765,0.379 1.12,0.67c0.163,-0.124 0.253,-0.24 0.293,-0.332c0.061,-0.142 0.056,-0.263 -0.032,-0.448c-0.176,-0.369 -0.772,-0.861 -1.466,-1.131c-0.346,-0.135 -0.71,-0.214 -1.042,-0.234c-0.041,-0.003 -0.082,-0.004 -0.123,-0.005l0,0Zm-1.257,1.953c-1.167,0.004 -2.271,0.375 -3.301,1.005c-1.647,1.007 -3.075,2.697 -4.08,4.572c-1.004,1.874 -1.581,3.931 -1.584,5.613c-0.002,1.678 0.521,2.908 1.667,3.442c0.002,0.001 0.004,0.002 0.006,0.003l0.002,-0c1.263,0.584 3.332,0.982 5.505,1.02c2.173,0.039 4.458,-0.277 6.189,-1.025c1.115,-0.482 1.754,-1.445 2.056,-2.75c0.303,-1.305 0.23,-2.928 -0.12,-4.536c-0.35,-1.607 -0.975,-3.202 -1.732,-4.462c-0.756,-1.26 -1.656,-2.167 -2.44,-2.468c-0.745,-0.285 -1.468,-0.416 -2.168,-0.414Z" style="fill-rule:nonzero;"/></g></g></g></svg>