<?xml version="1.0" encoding="UTF-8" standalone="no"?><!DOCTYPE svg PUBLIC "-//W3C//DTD SVG 1.1//EN" "http://www.w3.org/Graphics/SVG/1.1/DTD/svg11.dtd"><svg width="100%" height="100%" viewBox="0 0 24 24" version="1.1" xmlns="http://www.w3.org/2000/svg" xmlns:xlink="http://www.w3.org/1999/xlink" xml:space="preserve" xmlns:serif="http://www.serif.com/" style="fill-rule:evenodd;clip-rule:evenodd;stroke-linejoin:round;stroke-miterlimit:2;"><g><clipPath id="_clip1"><rect x="2" y="2" width="20" height="20"/></clipPath><g clip-path="url(#_clip1)"><rect id="Artboard1" x="1.992" y="2" width="20" height="20" style="fill:none;"/><clipPath id="_clip2"><rect x="1.992" y="2" width="20" height="20"/></clipPath><g clip-path="url(#_clip2)"><path d="M11.81,13.629l-2.423,2.415l2.234,2.505l-0.661,0.716l-2.58,-2.177l-2.958,3.012c0.094,0.447 -0.032,0.954 -0.409,1.341c-0.63,0.686 -1.731,0.746 -2.424,0.15c-0.723,-0.597 -0.786,-1.611 -0.157,-2.296c0.346,-0.388 0.85,-0.567 1.385,-0.567l2.737,-3.131l-2.611,-2.177l0.66,-0.715l2.927,1.789l2.392,-2.773l1.888,1.908Z"/><path d="M20.81,2l-0.724,3.22l-5.853,5.934l-1.857,-2.147l5.161,-5.904l3.273,-1.103Z"/><path d="M3.334,2l0.772,3.294l10.334,10.494l-2.285,2.562l0.676,0.732l2.672,-2.226l2.993,3.05c-0.096,0.488 0.065,1.007 0.419,1.403c0.644,0.702 1.771,0.763 2.511,0.153c0.708,-0.61 0.773,-1.678 0.129,-2.38c-0.354,-0.396 -0.869,-0.579 -1.385,-0.549l-2.832,-3.233l2.672,-2.227l-0.677,-0.732l-2.993,1.83l-9.626,-11.042l-3.38,-1.129Z"/></g></g></g></svg>