<?xml version="1.0" encoding="UTF-8" standalone="no"?><!DOCTYPE svg PUBLIC "-//W3C//DTD SVG 1.1//EN" "http://www.w3.org/Graphics/SVG/1.1/DTD/svg11.dtd"><svg width="100%" height="100%" viewBox="0 0 24 24" version="1.1" xmlns="http://www.w3.org/2000/svg" xmlns:xlink="http://www.w3.org/1999/xlink" xml:space="preserve" xmlns:serif="http://www.serif.com/" style="fill-rule:evenodd;clip-rule:evenodd;stroke-linejoin:round;stroke-miterlimit:2;"><g transform="matrix(1,0,0,1,-1218,-8)"><g transform="matrix(1.5,0,0,1.5,901.153,-963.314)"><g transform="matrix(0.0209788,0,0,0.0198788,219.231,655.543)"><g transform="matrix(1,0,0,1,-318.049,-335.366)"><clipPath id="_clip1"><rect x="0.268" y="0" width="635.562" height="670.732"/></clipPath><g clip-path="url(#_clip1)"><g id="Artboard1" transform="matrix(1,0,0,1,-0.268236,0)"><rect x="0.268" y="0" width="635.562" height="670.732" style="fill:none;"/><clipPath id="_clip2"><rect x="0.268" y="0" width="635.562" height="670.732"/></clipPath><g clip-path="url(#_clip2)"><g transform="matrix(1,0,0,1,0.268236,0)"><path d="M312,390l-77,81l71,84l-21,24l-82,-73l-94,101c3,15 -1,32 -13,45c-20,23 -55,25 -77,5c-23,-20 -25,-54 -5,-77c11,-13 27,-19 44,-19l87,-105l-83,-73l21,-24l93,60l76,-93l60,64Z"/></g><g transform="matrix(1,0,0,1,0.268236,0)"><path d="M598,0l-23,108l-186,199l-59,-72l164,-198l104,-37Z"/></g><g transform="matrix(1.02302,0,0,1.02302,-14.3658,-15.3452)"><path d="M56,15l24,108l321,344l-71,84l21,24l83,-73l93,100c-3,16 2,33 13,46c20,23 55,25 78,5c22,-20 24,-55 4,-78c-11,-13 -27,-19 -43,-18l-88,-106l83,-73l-21,-24l-93,60l-299,-362l-105,-37Z"/></g></g></g></g></g></g></g></g></svg>