<?xml version="1.0" encoding="UTF-8" standalone="no"?><!DOCTYPE svg PUBLIC "-//W3C//DTD SVG 1.1//EN" "http://www.w3.org/Graphics/SVG/1.1/DTD/svg11.dtd"><svg width="100%" height="100%" viewBox="0 0 100 100" version="1.1" xmlns="http://www.w3.org/2000/svg" xmlns:xlink="http://www.w3.org/1999/xlink" xml:space="preserve" xmlns:serif="http://www.serif.com/" style="fill-rule:evenodd;clip-rule:evenodd;stroke-linejoin:round;stroke-miterlimit:2;"><g><clipPath id="_clip1"><rect x="8.316" y="8.333" width="83.369" height="83.333"/></clipPath><g clip-path="url(#_clip1)"><rect id="Artboard1" x="8.316" y="8.333" width="83.333" height="83.333" style="fill:none;"/><clipPath id="_clip2"><rect x="8.316" y="8.333" width="83.333" height="83.333"/></clipPath><g clip-path="url(#_clip2)"><path d="M49.224,56.788l-10.096,10.064l9.31,10.436l-2.754,2.982l-10.751,-9.07l-12.325,12.548c0.393,1.864 -0.132,3.976 -1.705,5.591c-2.622,2.858 -7.211,3.106 -10.096,0.622c-3.016,-2.485 -3.278,-6.709 -0.656,-9.567c1.443,-1.615 3.541,-2.361 5.77,-2.361l11.407,-13.045l-10.883,-9.07l2.754,-2.982l12.193,7.455l9.965,-11.555l7.867,7.952Z"/><path d="M86.724,8.333l-3.016,13.419l-24.388,24.724l-7.735,-8.946l21.503,-24.6l13.636,-4.597Z"/><path d="M13.909,8.333l3.219,13.727l43.057,43.723l-9.523,10.677l2.816,3.05l11.134,-9.278l12.474,12.71c-0.402,2.034 0.269,4.195 1.744,5.847c2.683,2.923 7.377,3.177 10.463,0.635c2.951,-2.542 3.219,-6.99 0.536,-9.914c-1.475,-1.652 -3.622,-2.415 -5.768,-2.287l-11.804,-13.473l11.134,-9.279l-2.817,-3.05l-12.475,7.626l-40.106,-46.011l-14.084,-4.703Z"/></g></g></g></svg>